SplineFontDB: 3.2
FontName: DotAndDash
FullName: DotAndDash
FamilyName: DotAndDash
Weight: Black
Copyright: Copyright 2022 Alessandro Maclaine\n\nPermission is hereby granted, free of charge, to any person obtaining a copy of this software and associated documentation files (the "Software"), to deal in the Software without restriction, including without limitation the rights to use, copy, modify, merge, publish, distribute, sublicense, and/or sell copies of the Software, and to permit persons to whom the Software is furnished to do so, subject to the following conditions:\n\nThe above copyright notice and this permission notice shall be included in all copies or substantial portions of the Software.\n\nTHE SOFTWARE IS PROVIDED "AS IS", WITHOUT WARRANTY OF ANY KIND, EXPRESS OR IMPLIED, INCLUDING BUT NOT LIMITED TO THE WARRANTIES OF MERCHANTABILITY, FITNESS FOR A PARTICULAR PURPOSE AND NONINFRINGEMENT. IN NO EVENT SHALL THE AUTHORS OR COPYRIGHT HOLDERS BE LIABLE FOR ANY CLAIM, DAMAGES OR OTHER LIABILITY, WHETHER IN AN ACTION OF CONTRACT, TORT OR OTHERWISE, ARISING FROM, OUT OF OR IN CONNECTION WITH THE SOFTWARE OR THE USE OR OTHER DEALINGS IN THE SOFTWARE.
Version: 1
ItalicAngle: 0
UnderlinePosition: -102.4
UnderlineWidth: 51.2
Ascent: 819
Descent: 205
InvalidEm: 0
sfntRevision: 0x00010000
LayerCount: 2
Layer: 0 0 "Back" 1
Layer: 1 0 "Fore" 0
XUID: [1021 62 1817400015 16182410]
StyleMap: 0x0040
FSType: 0
OS2Version: 4
OS2_WeightWidthSlopeOnly: 0
OS2_UseTypoMetrics: 1
CreationTime: 1509465267
ModificationTime: 1662174481
PfmFamily: 81
TTFWeight: 900
TTFWidth: 5
LineGap: 0
VLineGap: 0
Panose: 0 0 10 0 0 0 0 0 0 0
OS2TypoAscent: 991
OS2TypoAOffset: 0
OS2TypoDescent: -257
OS2TypoDOffset: 0
OS2TypoLinegap: 0
OS2WinAscent: 1136
OS2WinAOffset: 0
OS2WinDescent: 276
OS2WinDOffset: 0
HheadAscent: 991
HheadAOffset: 0
HheadDescent: -257
HheadDOffset: 0
OS2SubXSize: 666
OS2SubYSize: 614
OS2SubXOff: 0
OS2SubYOff: 77
OS2SupXSize: 666
OS2SupYSize: 614
OS2SupXOff: 0
OS2SupYOff: 358

StartChar: .notdef
Encoding: 65536 -1 0
Width: 352
GlyphClass: 1
Flags: HMW
HStem: 163 266<136 216>
VStem: 41 270<257 337>
LayerCount: 2
Fore
SplineSet
176 163 m 0
 96 163 41 216 41 297 c 0
 41 378 96 429 176 429 c 0
 256 429 311 378 311 297 c 0
 311 216 256 163 176 163 c 0
EndSplineSet
Validated: 1
EndChar

StartChar: A
Encoding: 65 65 1
Width: 352
GlyphClass: 2
Flags: HMW
HStem: 163 266<136 216>
VStem: 41 270<257 337>
LayerCount: 2
Fore
SplineSet
176 163 m 0
 96 163 41 216 41 297 c 0
 41 378 96 429 176 429 c 0
 256 429 311 378 311 297 c 0
 311 216 256 163 176 163 c 0
EndSplineSet
Validated: 1
Substitution2: "Single Substitution lookup 44 subtable" ordfeminine
Substitution2: "'ss01' Style Set 1 lookup 42 subtable" A.ss01
Substitution2: "'salt' Stylistic Alternatives lookup 41 subtable" A.ss01
Substitution2: "'c2sc' Capitals to Small Capitals lookup 36 subtable" a.sc
AlternateSubs2: "'aalt' Access All Alternates lookup 1 subtable" ordfeminine a.sc A.ss01
EndChar

StartChar: Aacute
Encoding: 193 193 2
Width: 352
GlyphClass: 2
Flags: HMW
HStem: 163 266<136 216>
VStem: 41 270<257 337>
LayerCount: 2
Fore
SplineSet
176 163 m 0
 96 163 41 216 41 297 c 0
 41 378 96 429 176 429 c 0
 256 429 311 378 311 297 c 0
 311 216 256 163 176 163 c 0
EndSplineSet
Validated: 1
Substitution2: "'ss01' Style Set 1 lookup 42 subtable" Aacute.ss01
Substitution2: "'salt' Stylistic Alternatives lookup 41 subtable" Aacute.ss01
Substitution2: "'c2sc' Capitals to Small Capitals lookup 36 subtable" aacute.sc
AlternateSubs2: "'aalt' Access All Alternates lookup 1 subtable" aacute.sc Aacute.ss01
EndChar

StartChar: Abreve
Encoding: 258 258 3
Width: 352
GlyphClass: 2
Flags: HMW
HStem: 163 266<136 216>
VStem: 41 270<257 337>
LayerCount: 2
Fore
SplineSet
176 163 m 0
 96 163 41 216 41 297 c 0
 41 378 96 429 176 429 c 0
 256 429 311 378 311 297 c 0
 311 216 256 163 176 163 c 0
EndSplineSet
Validated: 1
Substitution2: "'ss01' Style Set 1 lookup 42 subtable" Abreve.ss01
Substitution2: "'salt' Stylistic Alternatives lookup 41 subtable" Abreve.ss01
Substitution2: "'c2sc' Capitals to Small Capitals lookup 36 subtable" abreve.sc
AlternateSubs2: "'aalt' Access All Alternates lookup 1 subtable" abreve.sc Abreve.ss01
EndChar

StartChar: uni1EAE
Encoding: 7854 7854 4
Width: 352
GlyphClass: 2
Flags: HMW
HStem: 163 266<136 216>
VStem: 41 270<257 337>
LayerCount: 2
Fore
SplineSet
176 163 m 0
 96 163 41 216 41 297 c 0
 41 378 96 429 176 429 c 0
 256 429 311 378 311 297 c 0
 311 216 256 163 176 163 c 0
EndSplineSet
Validated: 1
Substitution2: "'ss01' Style Set 1 lookup 42 subtable" uni1EAE.ss01
Substitution2: "'salt' Stylistic Alternatives lookup 41 subtable" uni1EAE.ss01
Substitution2: "'c2sc' Capitals to Small Capitals lookup 36 subtable" uni1EAF.sc
AlternateSubs2: "'aalt' Access All Alternates lookup 1 subtable" uni1EAF.sc uni1EAE.ss01
EndChar

StartChar: uni1EB6
Encoding: 7862 7862 5
Width: 352
GlyphClass: 2
Flags: HMW
HStem: 163 266<136 216>
VStem: 41 270<257 337>
LayerCount: 2
Fore
SplineSet
176 163 m 0
 96 163 41 216 41 297 c 0
 41 378 96 429 176 429 c 0
 256 429 311 378 311 297 c 0
 311 216 256 163 176 163 c 0
EndSplineSet
Validated: 1
Substitution2: "'ss01' Style Set 1 lookup 42 subtable" uni1EB6.ss01
Substitution2: "'salt' Stylistic Alternatives lookup 41 subtable" uni1EB6.ss01
Substitution2: "'c2sc' Capitals to Small Capitals lookup 36 subtable" uni1EB7.sc
AlternateSubs2: "'aalt' Access All Alternates lookup 1 subtable" uni1EB7.sc uni1EB6.ss01
EndChar

StartChar: uni1EB0
Encoding: 7856 7856 6
Width: 352
GlyphClass: 2
Flags: HMW
HStem: 163 266<136 216>
VStem: 41 270<257 337>
LayerCount: 2
Fore
SplineSet
176 163 m 0
 96 163 41 216 41 297 c 0
 41 378 96 429 176 429 c 0
 256 429 311 378 311 297 c 0
 311 216 256 163 176 163 c 0
EndSplineSet
Validated: 1
Substitution2: "'ss01' Style Set 1 lookup 42 subtable" uni1EB0.ss01
Substitution2: "'salt' Stylistic Alternatives lookup 41 subtable" uni1EB0.ss01
Substitution2: "'c2sc' Capitals to Small Capitals lookup 36 subtable" uni1EB1.sc
AlternateSubs2: "'aalt' Access All Alternates lookup 1 subtable" uni1EB1.sc uni1EB0.ss01
EndChar

StartChar: uni1EB2
Encoding: 7858 7858 7
Width: 352
GlyphClass: 2
Flags: HMW
HStem: 163 266<136 216>
VStem: 41 270<257 337>
LayerCount: 2
Fore
SplineSet
176 163 m 0
 96 163 41 216 41 297 c 0
 41 378 96 429 176 429 c 0
 256 429 311 378 311 297 c 0
 311 216 256 163 176 163 c 0
EndSplineSet
Validated: 1
Substitution2: "'ss01' Style Set 1 lookup 42 subtable" uni1EB2.ss01
Substitution2: "'salt' Stylistic Alternatives lookup 41 subtable" uni1EB2.ss01
Substitution2: "'c2sc' Capitals to Small Capitals lookup 36 subtable" uni1EB3.sc
AlternateSubs2: "'aalt' Access All Alternates lookup 1 subtable" uni1EB3.sc uni1EB2.ss01
EndChar

StartChar: uni1EB4
Encoding: 7860 7860 8
Width: 352
GlyphClass: 2
Flags: HMW
HStem: 163 266<136 216>
VStem: 41 270<257 337>
LayerCount: 2
Fore
SplineSet
176 163 m 0
 96 163 41 216 41 297 c 0
 41 378 96 429 176 429 c 0
 256 429 311 378 311 297 c 0
 311 216 256 163 176 163 c 0
EndSplineSet
Validated: 1
Substitution2: "'ss01' Style Set 1 lookup 42 subtable" uni1EB4.ss01
Substitution2: "'salt' Stylistic Alternatives lookup 41 subtable" uni1EB4.ss01
Substitution2: "'c2sc' Capitals to Small Capitals lookup 36 subtable" uni1EB5.sc
AlternateSubs2: "'aalt' Access All Alternates lookup 1 subtable" uni1EB5.sc uni1EB4.ss01
EndChar

StartChar: uni01CD
Encoding: 461 461 9
Width: 352
GlyphClass: 2
Flags: HMW
HStem: 163 266<136 216>
VStem: 41 270<257 337>
LayerCount: 2
Fore
SplineSet
176 163 m 0
 96 163 41 216 41 297 c 0
 41 378 96 429 176 429 c 0
 256 429 311 378 311 297 c 0
 311 216 256 163 176 163 c 0
EndSplineSet
Validated: 1
Substitution2: "'ss01' Style Set 1 lookup 42 subtable" uni01CD.ss01
Substitution2: "'salt' Stylistic Alternatives lookup 41 subtable" uni01CD.ss01
Substitution2: "'c2sc' Capitals to Small Capitals lookup 36 subtable" uni01CE.sc
AlternateSubs2: "'aalt' Access All Alternates lookup 1 subtable" uni01CE.sc uni01CD.ss01
EndChar

StartChar: Acircumflex
Encoding: 194 194 10
Width: 352
GlyphClass: 2
Flags: HMW
HStem: 163 266<136 216>
VStem: 41 270<257 337>
LayerCount: 2
Fore
SplineSet
176 163 m 0
 96 163 41 216 41 297 c 0
 41 378 96 429 176 429 c 0
 256 429 311 378 311 297 c 0
 311 216 256 163 176 163 c 0
EndSplineSet
Validated: 1
Substitution2: "'ss01' Style Set 1 lookup 42 subtable" Acircumflex.ss01
Substitution2: "'salt' Stylistic Alternatives lookup 41 subtable" Acircumflex.ss01
Substitution2: "'c2sc' Capitals to Small Capitals lookup 36 subtable" acircumflex.sc
AlternateSubs2: "'aalt' Access All Alternates lookup 1 subtable" acircumflex.sc Acircumflex.ss01
EndChar

StartChar: uni1EA4
Encoding: 7844 7844 11
Width: 352
GlyphClass: 2
Flags: HMW
HStem: 163 266<136 216>
VStem: 41 270<257 337>
LayerCount: 2
Fore
SplineSet
176 163 m 0
 96 163 41 216 41 297 c 0
 41 378 96 429 176 429 c 0
 256 429 311 378 311 297 c 0
 311 216 256 163 176 163 c 0
EndSplineSet
Validated: 1
Substitution2: "'ss01' Style Set 1 lookup 42 subtable" uni1EA4.ss01
Substitution2: "'salt' Stylistic Alternatives lookup 41 subtable" uni1EA4.ss01
Substitution2: "'c2sc' Capitals to Small Capitals lookup 36 subtable" uni1EA5.sc
AlternateSubs2: "'aalt' Access All Alternates lookup 1 subtable" uni1EA5.sc uni1EA4.ss01
EndChar

StartChar: uni1EAC
Encoding: 7852 7852 12
Width: 352
GlyphClass: 2
Flags: HMW
HStem: 163 266<136 216>
VStem: 41 270<257 337>
LayerCount: 2
Fore
SplineSet
176 163 m 0
 96 163 41 216 41 297 c 0
 41 378 96 429 176 429 c 0
 256 429 311 378 311 297 c 0
 311 216 256 163 176 163 c 0
EndSplineSet
Validated: 1
Substitution2: "'ss01' Style Set 1 lookup 42 subtable" uni1EAC.ss01
Substitution2: "'salt' Stylistic Alternatives lookup 41 subtable" uni1EAC.ss01
Substitution2: "'c2sc' Capitals to Small Capitals lookup 36 subtable" uni1EAD.sc
AlternateSubs2: "'aalt' Access All Alternates lookup 1 subtable" uni1EAD.sc uni1EAC.ss01
EndChar

StartChar: uni1EA6
Encoding: 7846 7846 13
Width: 352
GlyphClass: 2
Flags: HMW
HStem: 163 266<136 216>
VStem: 41 270<257 337>
LayerCount: 2
Fore
SplineSet
176 163 m 0
 96 163 41 216 41 297 c 0
 41 378 96 429 176 429 c 0
 256 429 311 378 311 297 c 0
 311 216 256 163 176 163 c 0
EndSplineSet
Validated: 1
Substitution2: "'ss01' Style Set 1 lookup 42 subtable" uni1EA6.ss01
Substitution2: "'salt' Stylistic Alternatives lookup 41 subtable" uni1EA6.ss01
Substitution2: "'c2sc' Capitals to Small Capitals lookup 36 subtable" uni1EA7.sc
AlternateSubs2: "'aalt' Access All Alternates lookup 1 subtable" uni1EA7.sc uni1EA6.ss01
EndChar

StartChar: uni1EA8
Encoding: 7848 7848 14
Width: 352
GlyphClass: 2
Flags: HMW
HStem: 163 266<136 216>
VStem: 41 270<257 337>
LayerCount: 2
Fore
SplineSet
176 163 m 0
 96 163 41 216 41 297 c 0
 41 378 96 429 176 429 c 0
 256 429 311 378 311 297 c 0
 311 216 256 163 176 163 c 0
EndSplineSet
Validated: 1
Substitution2: "'ss01' Style Set 1 lookup 42 subtable" uni1EA8.ss01
Substitution2: "'salt' Stylistic Alternatives lookup 41 subtable" uni1EA8.ss01
Substitution2: "'c2sc' Capitals to Small Capitals lookup 36 subtable" uni1EA9.sc
AlternateSubs2: "'aalt' Access All Alternates lookup 1 subtable" uni1EA9.sc uni1EA8.ss01
EndChar

StartChar: uni1EAA
Encoding: 7850 7850 15
Width: 352
GlyphClass: 2
Flags: HMW
HStem: 163 266<136 216>
VStem: 41 270<257 337>
LayerCount: 2
Fore
SplineSet
176 163 m 0
 96 163 41 216 41 297 c 0
 41 378 96 429 176 429 c 0
 256 429 311 378 311 297 c 0
 311 216 256 163 176 163 c 0
EndSplineSet
Validated: 1
Substitution2: "'ss01' Style Set 1 lookup 42 subtable" uni1EAA.ss01
Substitution2: "'salt' Stylistic Alternatives lookup 41 subtable" uni1EAA.ss01
Substitution2: "'c2sc' Capitals to Small Capitals lookup 36 subtable" uni1EAB.sc
AlternateSubs2: "'aalt' Access All Alternates lookup 1 subtable" uni1EAB.sc uni1EAA.ss01
EndChar

StartChar: uni0200
Encoding: 512 512 16
Width: 352
GlyphClass: 2
Flags: HMW
HStem: 163 266<136 216>
VStem: 41 270<257 337>
LayerCount: 2
Fore
SplineSet
176 163 m 0
 96 163 41 216 41 297 c 0
 41 378 96 429 176 429 c 0
 256 429 311 378 311 297 c 0
 311 216 256 163 176 163 c 0
EndSplineSet
Validated: 1
Substitution2: "'ss01' Style Set 1 lookup 42 subtable" uni0200.ss01
Substitution2: "'salt' Stylistic Alternatives lookup 41 subtable" uni0200.ss01
Substitution2: "'c2sc' Capitals to Small Capitals lookup 36 subtable" uni0201.sc
AlternateSubs2: "'aalt' Access All Alternates lookup 1 subtable" uni0201.sc uni0200.ss01
EndChar

StartChar: Adieresis
Encoding: 196 196 17
Width: 352
GlyphClass: 2
Flags: HMW
HStem: 163 266<136 216>
VStem: 41 270<257 337>
LayerCount: 2
Fore
SplineSet
176 163 m 0
 96 163 41 216 41 297 c 0
 41 378 96 429 176 429 c 0
 256 429 311 378 311 297 c 0
 311 216 256 163 176 163 c 0
EndSplineSet
Validated: 1
Substitution2: "'ss01' Style Set 1 lookup 42 subtable" Adieresis.ss01
Substitution2: "'salt' Stylistic Alternatives lookup 41 subtable" Adieresis.ss01
Substitution2: "'c2sc' Capitals to Small Capitals lookup 36 subtable" adieresis.sc
AlternateSubs2: "'aalt' Access All Alternates lookup 1 subtable" adieresis.sc Adieresis.ss01
EndChar

StartChar: uni1EA0
Encoding: 7840 7840 18
Width: 352
GlyphClass: 2
Flags: HMW
HStem: 163 266<136 216>
VStem: 41 270<257 337>
LayerCount: 2
Fore
SplineSet
176 163 m 0
 96 163 41 216 41 297 c 0
 41 378 96 429 176 429 c 0
 256 429 311 378 311 297 c 0
 311 216 256 163 176 163 c 0
EndSplineSet
Validated: 1
Substitution2: "'ss01' Style Set 1 lookup 42 subtable" uni1EA0.ss01
Substitution2: "'salt' Stylistic Alternatives lookup 41 subtable" uni1EA0.ss01
Substitution2: "'c2sc' Capitals to Small Capitals lookup 36 subtable" uni1EA1.sc
AlternateSubs2: "'aalt' Access All Alternates lookup 1 subtable" uni1EA1.sc uni1EA0.ss01
EndChar

StartChar: Agrave
Encoding: 192 192 19
Width: 352
GlyphClass: 2
Flags: HMW
HStem: 163 266<136 216>
VStem: 41 270<257 337>
LayerCount: 2
Fore
SplineSet
176 163 m 0
 96 163 41 216 41 297 c 0
 41 378 96 429 176 429 c 0
 256 429 311 378 311 297 c 0
 311 216 256 163 176 163 c 0
EndSplineSet
Validated: 1
Substitution2: "'ss01' Style Set 1 lookup 42 subtable" Agrave.ss01
Substitution2: "'salt' Stylistic Alternatives lookup 41 subtable" Agrave.ss01
Substitution2: "'c2sc' Capitals to Small Capitals lookup 36 subtable" agrave.sc
AlternateSubs2: "'aalt' Access All Alternates lookup 1 subtable" agrave.sc Agrave.ss01
EndChar

StartChar: uni1EA2
Encoding: 7842 7842 20
Width: 352
GlyphClass: 2
Flags: HMW
HStem: 163 266<136 216>
VStem: 41 270<257 337>
LayerCount: 2
Fore
SplineSet
176 163 m 0
 96 163 41 216 41 297 c 0
 41 378 96 429 176 429 c 0
 256 429 311 378 311 297 c 0
 311 216 256 163 176 163 c 0
EndSplineSet
Validated: 1
Substitution2: "'ss01' Style Set 1 lookup 42 subtable" uni1EA2.ss01
Substitution2: "'salt' Stylistic Alternatives lookup 41 subtable" uni1EA2.ss01
Substitution2: "'c2sc' Capitals to Small Capitals lookup 36 subtable" uni1EA3.sc
AlternateSubs2: "'aalt' Access All Alternates lookup 1 subtable" uni1EA3.sc uni1EA2.ss01
EndChar

StartChar: uni0202
Encoding: 514 514 21
Width: 352
GlyphClass: 2
Flags: HMW
HStem: 163 266<136 216>
VStem: 41 270<257 337>
LayerCount: 2
Fore
SplineSet
176 163 m 0
 96 163 41 216 41 297 c 0
 41 378 96 429 176 429 c 0
 256 429 311 378 311 297 c 0
 311 216 256 163 176 163 c 0
EndSplineSet
Validated: 1
Substitution2: "'ss01' Style Set 1 lookup 42 subtable" uni0202.ss01
Substitution2: "'salt' Stylistic Alternatives lookup 41 subtable" uni0202.ss01
Substitution2: "'c2sc' Capitals to Small Capitals lookup 36 subtable" uni0203.sc
AlternateSubs2: "'aalt' Access All Alternates lookup 1 subtable" uni0203.sc uni0202.ss01
EndChar

StartChar: Amacron
Encoding: 256 256 22
Width: 352
GlyphClass: 2
Flags: HMW
HStem: 163 266<136 216>
VStem: 41 270<257 337>
LayerCount: 2
Fore
SplineSet
176 163 m 0
 96 163 41 216 41 297 c 0
 41 378 96 429 176 429 c 0
 256 429 311 378 311 297 c 0
 311 216 256 163 176 163 c 0
EndSplineSet
Validated: 1
Substitution2: "'ss01' Style Set 1 lookup 42 subtable" Amacron.ss01
Substitution2: "'salt' Stylistic Alternatives lookup 41 subtable" Amacron.ss01
Substitution2: "'c2sc' Capitals to Small Capitals lookup 36 subtable" amacron.sc
AlternateSubs2: "'aalt' Access All Alternates lookup 1 subtable" amacron.sc Amacron.ss01
EndChar

StartChar: Aogonek
Encoding: 260 260 23
Width: 352
GlyphClass: 2
Flags: HMW
HStem: 163 266<136 216>
VStem: 41 270<257 337>
LayerCount: 2
Fore
SplineSet
176 163 m 0
 96 163 41 216 41 297 c 0
 41 378 96 429 176 429 c 0
 256 429 311 378 311 297 c 0
 311 216 256 163 176 163 c 0
EndSplineSet
Validated: 1
Substitution2: "'ss01' Style Set 1 lookup 42 subtable" Aogonek.ss01
Substitution2: "'salt' Stylistic Alternatives lookup 41 subtable" Aogonek.ss01
Substitution2: "'c2sc' Capitals to Small Capitals lookup 36 subtable" aogonek.sc
AlternateSubs2: "'aalt' Access All Alternates lookup 1 subtable" aogonek.sc Aogonek.ss01
EndChar

StartChar: Aring
Encoding: 197 197 24
Width: 352
GlyphClass: 2
Flags: HMW
HStem: 163 266<136 216>
VStem: 41 270<257 337>
LayerCount: 2
Fore
SplineSet
176 163 m 0
 96 163 41 216 41 297 c 0
 41 378 96 429 176 429 c 0
 256 429 311 378 311 297 c 0
 311 216 256 163 176 163 c 0
EndSplineSet
Validated: 1
Substitution2: "'ss01' Style Set 1 lookup 42 subtable" Aring.ss01
Substitution2: "'salt' Stylistic Alternatives lookup 41 subtable" Aring.ss01
Substitution2: "'c2sc' Capitals to Small Capitals lookup 36 subtable" aring.sc
AlternateSubs2: "'aalt' Access All Alternates lookup 1 subtable" aring.sc Aring.ss01
EndChar

StartChar: Aringacute
Encoding: 506 506 25
Width: 352
GlyphClass: 2
Flags: HMW
HStem: 163 266<136 216>
VStem: 41 270<257 337>
LayerCount: 2
Fore
SplineSet
176 163 m 0
 96 163 41 216 41 297 c 0
 41 378 96 429 176 429 c 0
 256 429 311 378 311 297 c 0
 311 216 256 163 176 163 c 0
EndSplineSet
Validated: 1
Substitution2: "'ss01' Style Set 1 lookup 42 subtable" Aringacute.ss01
Substitution2: "'salt' Stylistic Alternatives lookup 41 subtable" Aringacute.ss01
Substitution2: "'c2sc' Capitals to Small Capitals lookup 36 subtable" aringacute.sc
AlternateSubs2: "'aalt' Access All Alternates lookup 1 subtable" aringacute.sc Aringacute.ss01
EndChar

StartChar: Atilde
Encoding: 195 195 26
Width: 352
GlyphClass: 2
Flags: HMW
HStem: 163 266<136 216>
VStem: 41 270<257 337>
LayerCount: 2
Fore
SplineSet
176 163 m 0
 96 163 41 216 41 297 c 0
 41 378 96 429 176 429 c 0
 256 429 311 378 311 297 c 0
 311 216 256 163 176 163 c 0
EndSplineSet
Validated: 1
Substitution2: "'ss01' Style Set 1 lookup 42 subtable" Atilde.ss01
Substitution2: "'salt' Stylistic Alternatives lookup 41 subtable" Atilde.ss01
Substitution2: "'c2sc' Capitals to Small Capitals lookup 36 subtable" atilde.sc
AlternateSubs2: "'aalt' Access All Alternates lookup 1 subtable" atilde.sc Atilde.ss01
EndChar

StartChar: AE
Encoding: 198 198 27
Width: 352
GlyphClass: 2
Flags: HMW
HStem: 163 266<136 216>
VStem: 41 270<257 337>
LayerCount: 2
Fore
SplineSet
176 163 m 0
 96 163 41 216 41 297 c 0
 41 378 96 429 176 429 c 0
 256 429 311 378 311 297 c 0
 311 216 256 163 176 163 c 0
EndSplineSet
Validated: 1
Substitution2: "'ss01' Style Set 1 lookup 42 subtable" AE.ss01
Substitution2: "'salt' Stylistic Alternatives lookup 41 subtable" AE.ss01
Substitution2: "'c2sc' Capitals to Small Capitals lookup 36 subtable" ae.sc
AlternateSubs2: "'aalt' Access All Alternates lookup 1 subtable" ae.sc AE.ss01
EndChar

StartChar: AEacute
Encoding: 508 508 28
Width: 352
GlyphClass: 2
Flags: HMW
HStem: 163 266<136 216>
VStem: 41 270<257 337>
LayerCount: 2
Fore
SplineSet
176 163 m 0
 96 163 41 216 41 297 c 0
 41 378 96 429 176 429 c 0
 256 429 311 378 311 297 c 0
 311 216 256 163 176 163 c 0
EndSplineSet
Validated: 1
Substitution2: "'ss01' Style Set 1 lookup 42 subtable" AEacute.ss01
Substitution2: "'salt' Stylistic Alternatives lookup 41 subtable" AEacute.ss01
Substitution2: "'c2sc' Capitals to Small Capitals lookup 36 subtable" aeacute.sc
AlternateSubs2: "'aalt' Access All Alternates lookup 1 subtable" aeacute.sc AEacute.ss01
EndChar

StartChar: B
Encoding: 66 66 29
Width: 352
GlyphClass: 2
Flags: HMW
HStem: 163 266<136 216>
VStem: 41 270<257 337>
LayerCount: 2
Fore
SplineSet
176 163 m 0
 96 163 41 216 41 297 c 0
 41 378 96 429 176 429 c 0
 256 429 311 378 311 297 c 0
 311 216 256 163 176 163 c 0
EndSplineSet
Validated: 1
Substitution2: "'c2sc' Capitals to Small Capitals lookup 36 subtable" b.sc
Substitution2: "'aalt' Access All Alternates lookup 0 subtable" b.sc
EndChar

StartChar: C
Encoding: 67 67 30
Width: 352
GlyphClass: 2
Flags: HMW
HStem: 163 266<136 216>
VStem: 41 270<257 337>
LayerCount: 2
Fore
SplineSet
176 163 m 0
 96 163 41 216 41 297 c 0
 41 378 96 429 176 429 c 0
 256 429 311 378 311 297 c 0
 311 216 256 163 176 163 c 0
EndSplineSet
Validated: 1
Substitution2: "'c2sc' Capitals to Small Capitals lookup 36 subtable" c.sc
Substitution2: "'aalt' Access All Alternates lookup 0 subtable" c.sc
EndChar

StartChar: Cacute
Encoding: 262 262 31
Width: 352
GlyphClass: 2
Flags: HMW
HStem: 163 266<136 216>
VStem: 41 270<257 337>
LayerCount: 2
Fore
SplineSet
176 163 m 0
 96 163 41 216 41 297 c 0
 41 378 96 429 176 429 c 0
 256 429 311 378 311 297 c 0
 311 216 256 163 176 163 c 0
EndSplineSet
Validated: 1
Substitution2: "'c2sc' Capitals to Small Capitals lookup 36 subtable" cacute.sc
Substitution2: "'aalt' Access All Alternates lookup 0 subtable" cacute.sc
EndChar

StartChar: Ccaron
Encoding: 268 268 32
Width: 352
GlyphClass: 2
Flags: HMW
HStem: 163 266<136 216>
VStem: 41 270<257 337>
LayerCount: 2
Fore
SplineSet
176 163 m 0
 96 163 41 216 41 297 c 0
 41 378 96 429 176 429 c 0
 256 429 311 378 311 297 c 0
 311 216 256 163 176 163 c 0
EndSplineSet
Validated: 1
Substitution2: "'c2sc' Capitals to Small Capitals lookup 36 subtable" ccaron.sc
Substitution2: "'aalt' Access All Alternates lookup 0 subtable" ccaron.sc
EndChar

StartChar: Ccedilla
Encoding: 199 199 33
Width: 352
GlyphClass: 2
Flags: HMW
HStem: 163 266<136 216>
VStem: 41 270<257 337>
LayerCount: 2
Fore
SplineSet
176 163 m 0
 96 163 41 216 41 297 c 0
 41 378 96 429 176 429 c 0
 256 429 311 378 311 297 c 0
 311 216 256 163 176 163 c 0
EndSplineSet
Validated: 1
Substitution2: "'c2sc' Capitals to Small Capitals lookup 36 subtable" ccedilla.sc
Substitution2: "'aalt' Access All Alternates lookup 0 subtable" ccedilla.sc
EndChar

StartChar: uni1E08
Encoding: 7688 7688 34
Width: 352
GlyphClass: 2
Flags: HMW
HStem: 163 266<136 216>
VStem: 41 270<257 337>
LayerCount: 2
Fore
SplineSet
176 163 m 0
 96 163 41 216 41 297 c 0
 41 378 96 429 176 429 c 0
 256 429 311 378 311 297 c 0
 311 216 256 163 176 163 c 0
EndSplineSet
Validated: 1
Substitution2: "'c2sc' Capitals to Small Capitals lookup 36 subtable" uni1E09.sc
Substitution2: "'aalt' Access All Alternates lookup 0 subtable" uni1E09.sc
EndChar

StartChar: Ccircumflex
Encoding: 264 264 35
Width: 352
GlyphClass: 2
Flags: HMW
HStem: 163 266<136 216>
VStem: 41 270<257 337>
LayerCount: 2
Fore
SplineSet
176 163 m 0
 96 163 41 216 41 297 c 0
 41 378 96 429 176 429 c 0
 256 429 311 378 311 297 c 0
 311 216 256 163 176 163 c 0
EndSplineSet
Validated: 1
Substitution2: "'c2sc' Capitals to Small Capitals lookup 36 subtable" ccircumflex.sc
Substitution2: "'aalt' Access All Alternates lookup 0 subtable" ccircumflex.sc
EndChar

StartChar: Cdotaccent
Encoding: 266 266 36
Width: 352
GlyphClass: 2
Flags: HMW
HStem: 163 266<136 216>
VStem: 41 270<257 337>
LayerCount: 2
Fore
SplineSet
176 163 m 0
 96 163 41 216 41 297 c 0
 41 378 96 429 176 429 c 0
 256 429 311 378 311 297 c 0
 311 216 256 163 176 163 c 0
EndSplineSet
Validated: 1
Substitution2: "'c2sc' Capitals to Small Capitals lookup 36 subtable" cdotaccent.sc
Substitution2: "'aalt' Access All Alternates lookup 0 subtable" cdotaccent.sc
EndChar

StartChar: D
Encoding: 68 68 37
Width: 352
GlyphClass: 2
Flags: HMW
HStem: 163 266<136 216>
VStem: 41 270<257 337>
LayerCount: 2
Fore
SplineSet
176 163 m 0
 96 163 41 216 41 297 c 0
 41 378 96 429 176 429 c 0
 256 429 311 378 311 297 c 0
 311 216 256 163 176 163 c 0
EndSplineSet
Validated: 1
Substitution2: "'c2sc' Capitals to Small Capitals lookup 36 subtable" d.sc
Substitution2: "'aalt' Access All Alternates lookup 0 subtable" d.sc
EndChar

StartChar: uni01C4
Encoding: 452 452 38
Width: 352
GlyphClass: 2
Flags: HMW
HStem: 163 266<136 216>
VStem: 41 270<257 337>
LayerCount: 2
Fore
SplineSet
176 163 m 0
 96 163 41 216 41 297 c 0
 41 378 96 429 176 429 c 0
 256 429 311 378 311 297 c 0
 311 216 256 163 176 163 c 0
EndSplineSet
Validated: 1
Substitution2: "'ss01' Style Set 1 lookup 42 subtable" uni01C4.ss01
Substitution2: "'salt' Stylistic Alternatives lookup 41 subtable" uni01C4.ss01
Substitution2: "'c2sc' Capitals to Small Capitals lookup 36 subtable" uni01C6.sc
AlternateSubs2: "'aalt' Access All Alternates lookup 1 subtable" uni01C6.sc uni01C4.ss01
EndChar

StartChar: Eth
Encoding: 208 208 39
Width: 352
GlyphClass: 2
Flags: HMW
HStem: 163 266<136 216>
VStem: 41 270<257 337>
LayerCount: 2
Fore
SplineSet
176 163 m 0
 96 163 41 216 41 297 c 0
 41 378 96 429 176 429 c 0
 256 429 311 378 311 297 c 0
 311 216 256 163 176 163 c 0
EndSplineSet
Validated: 1
Substitution2: "'c2sc' Capitals to Small Capitals lookup 36 subtable" eth.sc
Substitution2: "'aalt' Access All Alternates lookup 0 subtable" eth.sc
EndChar

StartChar: Dcaron
Encoding: 270 270 40
Width: 352
GlyphClass: 2
Flags: HMW
HStem: 163 266<136 216>
VStem: 41 270<257 337>
LayerCount: 2
Fore
SplineSet
176 163 m 0
 96 163 41 216 41 297 c 0
 41 378 96 429 176 429 c 0
 256 429 311 378 311 297 c 0
 311 216 256 163 176 163 c 0
EndSplineSet
Validated: 1
Substitution2: "'c2sc' Capitals to Small Capitals lookup 36 subtable" dcaron.sc
Substitution2: "'aalt' Access All Alternates lookup 0 subtable" dcaron.sc
EndChar

StartChar: Dcroat
Encoding: 272 272 41
Width: 352
GlyphClass: 2
Flags: HMW
HStem: 163 266<136 216>
VStem: 41 270<257 337>
LayerCount: 2
Fore
SplineSet
176 163 m 0
 96 163 41 216 41 297 c 0
 41 378 96 429 176 429 c 0
 256 429 311 378 311 297 c 0
 311 216 256 163 176 163 c 0
EndSplineSet
Validated: 1
Substitution2: "'c2sc' Capitals to Small Capitals lookup 36 subtable" dcroat.sc
Substitution2: "'aalt' Access All Alternates lookup 0 subtable" dcroat.sc
EndChar

StartChar: uni1E0C
Encoding: 7692 7692 42
Width: 352
GlyphClass: 2
Flags: HMW
HStem: 163 266<136 216>
VStem: 41 270<257 337>
LayerCount: 2
Fore
SplineSet
176 163 m 0
 96 163 41 216 41 297 c 0
 41 378 96 429 176 429 c 0
 256 429 311 378 311 297 c 0
 311 216 256 163 176 163 c 0
EndSplineSet
Validated: 1
Substitution2: "'c2sc' Capitals to Small Capitals lookup 36 subtable" uni1E0D.sc
Substitution2: "'aalt' Access All Alternates lookup 0 subtable" uni1E0D.sc
EndChar

StartChar: uni1E0E
Encoding: 7694 7694 43
Width: 352
GlyphClass: 2
Flags: HMW
HStem: 163 266<136 216>
VStem: 41 270<257 337>
LayerCount: 2
Fore
SplineSet
176 163 m 0
 96 163 41 216 41 297 c 0
 41 378 96 429 176 429 c 0
 256 429 311 378 311 297 c 0
 311 216 256 163 176 163 c 0
EndSplineSet
Validated: 1
Substitution2: "'c2sc' Capitals to Small Capitals lookup 36 subtable" uni1E0F.sc
Substitution2: "'aalt' Access All Alternates lookup 0 subtable" uni1E0F.sc
EndChar

StartChar: uni01C5
Encoding: 453 453 44
Width: 352
GlyphClass: 2
Flags: HMW
HStem: 163 266<136 216>
VStem: 41 270<257 337>
LayerCount: 2
Fore
SplineSet
176 163 m 0
 96 163 41 216 41 297 c 0
 41 378 96 429 176 429 c 0
 256 429 311 378 311 297 c 0
 311 216 256 163 176 163 c 0
EndSplineSet
Validated: 1
Substitution2: "'ss01' Style Set 1 lookup 42 subtable" uni01C5.ss01
Substitution2: "'salt' Stylistic Alternatives lookup 41 subtable" uni01C5.ss01
Substitution2: "'c2sc' Capitals to Small Capitals lookup 36 subtable" uni01C6.sc
AlternateSubs2: "'aalt' Access All Alternates lookup 1 subtable" uni01C6.sc uni01C5.ss01
EndChar

StartChar: E
Encoding: 69 69 45
Width: 352
GlyphClass: 2
Flags: HMW
HStem: 163 266<136 216>
VStem: 41 270<257 337>
LayerCount: 2
Fore
SplineSet
176 163 m 0
 96 163 41 216 41 297 c 0
 41 378 96 429 176 429 c 0
 256 429 311 378 311 297 c 0
 311 216 256 163 176 163 c 0
EndSplineSet
Validated: 1
Substitution2: "'ss01' Style Set 1 lookup 42 subtable" E.ss01
Substitution2: "'salt' Stylistic Alternatives lookup 41 subtable" E.ss01
Substitution2: "'c2sc' Capitals to Small Capitals lookup 36 subtable" e.sc
AlternateSubs2: "'aalt' Access All Alternates lookup 1 subtable" e.sc E.ss01
EndChar

StartChar: Eacute
Encoding: 201 201 46
Width: 352
GlyphClass: 2
Flags: HMW
HStem: 163 266<136 216>
VStem: 41 270<257 337>
LayerCount: 2
Fore
SplineSet
176 163 m 0
 96 163 41 216 41 297 c 0
 41 378 96 429 176 429 c 0
 256 429 311 378 311 297 c 0
 311 216 256 163 176 163 c 0
EndSplineSet
Validated: 1
Substitution2: "'ss01' Style Set 1 lookup 42 subtable" Eacute.ss01
Substitution2: "'salt' Stylistic Alternatives lookup 41 subtable" Eacute.ss01
Substitution2: "'c2sc' Capitals to Small Capitals lookup 36 subtable" eacute.sc
AlternateSubs2: "'aalt' Access All Alternates lookup 1 subtable" eacute.sc Eacute.ss01
EndChar

StartChar: Ebreve
Encoding: 276 276 47
Width: 352
GlyphClass: 2
Flags: HMW
HStem: 163 266<136 216>
VStem: 41 270<257 337>
LayerCount: 2
Fore
SplineSet
176 163 m 0
 96 163 41 216 41 297 c 0
 41 378 96 429 176 429 c 0
 256 429 311 378 311 297 c 0
 311 216 256 163 176 163 c 0
EndSplineSet
Validated: 1
Substitution2: "'ss01' Style Set 1 lookup 42 subtable" Ebreve.ss01
Substitution2: "'salt' Stylistic Alternatives lookup 41 subtable" Ebreve.ss01
Substitution2: "'c2sc' Capitals to Small Capitals lookup 36 subtable" ebreve.sc
AlternateSubs2: "'aalt' Access All Alternates lookup 1 subtable" ebreve.sc Ebreve.ss01
EndChar

StartChar: Ecaron
Encoding: 282 282 48
Width: 352
GlyphClass: 2
Flags: HMW
HStem: 163 266<136 216>
VStem: 41 270<257 337>
LayerCount: 2
Fore
SplineSet
176 163 m 0
 96 163 41 216 41 297 c 0
 41 378 96 429 176 429 c 0
 256 429 311 378 311 297 c 0
 311 216 256 163 176 163 c 0
EndSplineSet
Validated: 1
Substitution2: "'ss01' Style Set 1 lookup 42 subtable" Ecaron.ss01
Substitution2: "'salt' Stylistic Alternatives lookup 41 subtable" Ecaron.ss01
Substitution2: "'c2sc' Capitals to Small Capitals lookup 36 subtable" ecaron.sc
AlternateSubs2: "'aalt' Access All Alternates lookup 1 subtable" ecaron.sc Ecaron.ss01
EndChar

StartChar: uni1E1C
Encoding: 7708 7708 49
Width: 352
GlyphClass: 2
Flags: HMW
HStem: 163 266<136 216>
VStem: 41 270<257 337>
LayerCount: 2
Fore
SplineSet
176 163 m 0
 96 163 41 216 41 297 c 0
 41 378 96 429 176 429 c 0
 256 429 311 378 311 297 c 0
 311 216 256 163 176 163 c 0
EndSplineSet
Validated: 1
Substitution2: "'ss01' Style Set 1 lookup 42 subtable" uni1E1C.ss01
Substitution2: "'salt' Stylistic Alternatives lookup 41 subtable" uni1E1C.ss01
Substitution2: "'c2sc' Capitals to Small Capitals lookup 36 subtable" uni1E1D.sc
AlternateSubs2: "'aalt' Access All Alternates lookup 1 subtable" uni1E1D.sc uni1E1C.ss01
EndChar

StartChar: Ecircumflex
Encoding: 202 202 50
Width: 352
GlyphClass: 2
Flags: HMW
HStem: 163 266<136 216>
VStem: 41 270<257 337>
LayerCount: 2
Fore
SplineSet
176 163 m 0
 96 163 41 216 41 297 c 0
 41 378 96 429 176 429 c 0
 256 429 311 378 311 297 c 0
 311 216 256 163 176 163 c 0
EndSplineSet
Validated: 1
Substitution2: "'ss01' Style Set 1 lookup 42 subtable" Ecircumflex.ss01
Substitution2: "'salt' Stylistic Alternatives lookup 41 subtable" Ecircumflex.ss01
Substitution2: "'c2sc' Capitals to Small Capitals lookup 36 subtable" ecircumflex.sc
AlternateSubs2: "'aalt' Access All Alternates lookup 1 subtable" ecircumflex.sc Ecircumflex.ss01
EndChar

StartChar: uni1EBE
Encoding: 7870 7870 51
Width: 352
GlyphClass: 2
Flags: HMW
HStem: 163 266<136 216>
VStem: 41 270<257 337>
LayerCount: 2
Fore
SplineSet
176 163 m 0
 96 163 41 216 41 297 c 0
 41 378 96 429 176 429 c 0
 256 429 311 378 311 297 c 0
 311 216 256 163 176 163 c 0
EndSplineSet
Validated: 1
Substitution2: "'ss01' Style Set 1 lookup 42 subtable" uni1EBE.ss01
Substitution2: "'salt' Stylistic Alternatives lookup 41 subtable" uni1EBE.ss01
Substitution2: "'c2sc' Capitals to Small Capitals lookup 36 subtable" uni1EBF.sc
AlternateSubs2: "'aalt' Access All Alternates lookup 1 subtable" uni1EBF.sc uni1EBE.ss01
EndChar

StartChar: uni1EC6
Encoding: 7878 7878 52
Width: 352
GlyphClass: 2
Flags: HMW
HStem: 163 266<136 216>
VStem: 41 270<257 337>
LayerCount: 2
Fore
SplineSet
176 163 m 0
 96 163 41 216 41 297 c 0
 41 378 96 429 176 429 c 0
 256 429 311 378 311 297 c 0
 311 216 256 163 176 163 c 0
EndSplineSet
Validated: 1
Substitution2: "'ss01' Style Set 1 lookup 42 subtable" uni1EC6.ss01
Substitution2: "'salt' Stylistic Alternatives lookup 41 subtable" uni1EC6.ss01
Substitution2: "'c2sc' Capitals to Small Capitals lookup 36 subtable" uni1EC7.sc
AlternateSubs2: "'aalt' Access All Alternates lookup 1 subtable" uni1EC7.sc uni1EC6.ss01
EndChar

StartChar: uni1EC0
Encoding: 7872 7872 53
Width: 352
GlyphClass: 2
Flags: HMW
HStem: 163 266<136 216>
VStem: 41 270<257 337>
LayerCount: 2
Fore
SplineSet
176 163 m 0
 96 163 41 216 41 297 c 0
 41 378 96 429 176 429 c 0
 256 429 311 378 311 297 c 0
 311 216 256 163 176 163 c 0
EndSplineSet
Validated: 1
Substitution2: "'ss01' Style Set 1 lookup 42 subtable" uni1EC0.ss01
Substitution2: "'salt' Stylistic Alternatives lookup 41 subtable" uni1EC0.ss01
Substitution2: "'c2sc' Capitals to Small Capitals lookup 36 subtable" uni1EC1.sc
AlternateSubs2: "'aalt' Access All Alternates lookup 1 subtable" uni1EC1.sc uni1EC0.ss01
EndChar

StartChar: uni1EC2
Encoding: 7874 7874 54
Width: 352
GlyphClass: 2
Flags: HMW
HStem: 163 266<136 216>
VStem: 41 270<257 337>
LayerCount: 2
Fore
SplineSet
176 163 m 0
 96 163 41 216 41 297 c 0
 41 378 96 429 176 429 c 0
 256 429 311 378 311 297 c 0
 311 216 256 163 176 163 c 0
EndSplineSet
Validated: 1
Substitution2: "'ss01' Style Set 1 lookup 42 subtable" uni1EC2.ss01
Substitution2: "'salt' Stylistic Alternatives lookup 41 subtable" uni1EC2.ss01
Substitution2: "'c2sc' Capitals to Small Capitals lookup 36 subtable" uni1EC3.sc
AlternateSubs2: "'aalt' Access All Alternates lookup 1 subtable" uni1EC3.sc uni1EC2.ss01
EndChar

StartChar: uni1EC4
Encoding: 7876 7876 55
Width: 352
GlyphClass: 2
Flags: HMW
HStem: 163 266<136 216>
VStem: 41 270<257 337>
LayerCount: 2
Fore
SplineSet
176 163 m 0
 96 163 41 216 41 297 c 0
 41 378 96 429 176 429 c 0
 256 429 311 378 311 297 c 0
 311 216 256 163 176 163 c 0
EndSplineSet
Validated: 1
Substitution2: "'ss01' Style Set 1 lookup 42 subtable" uni1EC4.ss01
Substitution2: "'salt' Stylistic Alternatives lookup 41 subtable" uni1EC4.ss01
Substitution2: "'c2sc' Capitals to Small Capitals lookup 36 subtable" uni1EC5.sc
AlternateSubs2: "'aalt' Access All Alternates lookup 1 subtable" uni1EC5.sc uni1EC4.ss01
EndChar

StartChar: uni0204
Encoding: 516 516 56
Width: 352
GlyphClass: 2
Flags: HMW
HStem: 163 266<136 216>
VStem: 41 270<257 337>
LayerCount: 2
Fore
SplineSet
176 163 m 0
 96 163 41 216 41 297 c 0
 41 378 96 429 176 429 c 0
 256 429 311 378 311 297 c 0
 311 216 256 163 176 163 c 0
EndSplineSet
Validated: 1
Substitution2: "'ss01' Style Set 1 lookup 42 subtable" uni0204.ss01
Substitution2: "'salt' Stylistic Alternatives lookup 41 subtable" uni0204.ss01
Substitution2: "'c2sc' Capitals to Small Capitals lookup 36 subtable" uni0205.sc
AlternateSubs2: "'aalt' Access All Alternates lookup 1 subtable" uni0205.sc uni0204.ss01
EndChar

StartChar: Edieresis
Encoding: 203 203 57
Width: 352
GlyphClass: 2
Flags: HMW
HStem: 163 266<136 216>
VStem: 41 270<257 337>
LayerCount: 2
Fore
SplineSet
176 163 m 0
 96 163 41 216 41 297 c 0
 41 378 96 429 176 429 c 0
 256 429 311 378 311 297 c 0
 311 216 256 163 176 163 c 0
EndSplineSet
Validated: 1
Substitution2: "'ss01' Style Set 1 lookup 42 subtable" Edieresis.ss01
Substitution2: "'salt' Stylistic Alternatives lookup 41 subtable" Edieresis.ss01
Substitution2: "'c2sc' Capitals to Small Capitals lookup 36 subtable" edieresis.sc
AlternateSubs2: "'aalt' Access All Alternates lookup 1 subtable" edieresis.sc Edieresis.ss01
EndChar

StartChar: Edotaccent
Encoding: 278 278 58
Width: 352
GlyphClass: 2
Flags: HMW
HStem: 163 266<136 216>
VStem: 41 270<257 337>
LayerCount: 2
Fore
SplineSet
176 163 m 0
 96 163 41 216 41 297 c 0
 41 378 96 429 176 429 c 0
 256 429 311 378 311 297 c 0
 311 216 256 163 176 163 c 0
EndSplineSet
Validated: 1
Substitution2: "'ss01' Style Set 1 lookup 42 subtable" Edotaccent.ss01
Substitution2: "'salt' Stylistic Alternatives lookup 41 subtable" Edotaccent.ss01
Substitution2: "'c2sc' Capitals to Small Capitals lookup 36 subtable" edotaccent.sc
AlternateSubs2: "'aalt' Access All Alternates lookup 1 subtable" edotaccent.sc Edotaccent.ss01
EndChar

StartChar: uni1EB8
Encoding: 7864 7864 59
Width: 352
GlyphClass: 2
Flags: HMW
HStem: 163 266<136 216>
VStem: 41 270<257 337>
LayerCount: 2
Fore
SplineSet
176 163 m 0
 96 163 41 216 41 297 c 0
 41 378 96 429 176 429 c 0
 256 429 311 378 311 297 c 0
 311 216 256 163 176 163 c 0
EndSplineSet
Validated: 1
Substitution2: "'ss01' Style Set 1 lookup 42 subtable" uni1EB8.ss01
Substitution2: "'salt' Stylistic Alternatives lookup 41 subtable" uni1EB8.ss01
Substitution2: "'c2sc' Capitals to Small Capitals lookup 36 subtable" uni1EB9.sc
AlternateSubs2: "'aalt' Access All Alternates lookup 1 subtable" uni1EB9.sc uni1EB8.ss01
EndChar

StartChar: Egrave
Encoding: 200 200 60
Width: 352
GlyphClass: 2
Flags: HMW
HStem: 163 266<136 216>
VStem: 41 270<257 337>
LayerCount: 2
Fore
SplineSet
176 163 m 0
 96 163 41 216 41 297 c 0
 41 378 96 429 176 429 c 0
 256 429 311 378 311 297 c 0
 311 216 256 163 176 163 c 0
EndSplineSet
Validated: 1
Substitution2: "'ss01' Style Set 1 lookup 42 subtable" Egrave.ss01
Substitution2: "'salt' Stylistic Alternatives lookup 41 subtable" Egrave.ss01
Substitution2: "'c2sc' Capitals to Small Capitals lookup 36 subtable" egrave.sc
AlternateSubs2: "'aalt' Access All Alternates lookup 1 subtable" egrave.sc Egrave.ss01
EndChar

StartChar: uni1EBA
Encoding: 7866 7866 61
Width: 352
GlyphClass: 2
Flags: HMW
HStem: 163 266<136 216>
VStem: 41 270<257 337>
LayerCount: 2
Fore
SplineSet
176 163 m 0
 96 163 41 216 41 297 c 0
 41 378 96 429 176 429 c 0
 256 429 311 378 311 297 c 0
 311 216 256 163 176 163 c 0
EndSplineSet
Validated: 1
Substitution2: "'ss01' Style Set 1 lookup 42 subtable" uni1EBA.ss01
Substitution2: "'salt' Stylistic Alternatives lookup 41 subtable" uni1EBA.ss01
Substitution2: "'c2sc' Capitals to Small Capitals lookup 36 subtable" uni1EBB.sc
AlternateSubs2: "'aalt' Access All Alternates lookup 1 subtable" uni1EBB.sc uni1EBA.ss01
EndChar

StartChar: uni0206
Encoding: 518 518 62
Width: 352
GlyphClass: 2
Flags: HMW
HStem: 163 266<136 216>
VStem: 41 270<257 337>
LayerCount: 2
Fore
SplineSet
176 163 m 0
 96 163 41 216 41 297 c 0
 41 378 96 429 176 429 c 0
 256 429 311 378 311 297 c 0
 311 216 256 163 176 163 c 0
EndSplineSet
Validated: 1
Substitution2: "'ss01' Style Set 1 lookup 42 subtable" uni0206.ss01
Substitution2: "'salt' Stylistic Alternatives lookup 41 subtable" uni0206.ss01
Substitution2: "'c2sc' Capitals to Small Capitals lookup 36 subtable" uni0207.sc
AlternateSubs2: "'aalt' Access All Alternates lookup 1 subtable" uni0207.sc uni0206.ss01
EndChar

StartChar: Emacron
Encoding: 274 274 63
Width: 352
GlyphClass: 2
Flags: HMW
HStem: 163 266<136 216>
VStem: 41 270<257 337>
LayerCount: 2
Fore
SplineSet
176 163 m 0
 96 163 41 216 41 297 c 0
 41 378 96 429 176 429 c 0
 256 429 311 378 311 297 c 0
 311 216 256 163 176 163 c 0
EndSplineSet
Validated: 1
Substitution2: "'ss01' Style Set 1 lookup 42 subtable" Emacron.ss01
Substitution2: "'salt' Stylistic Alternatives lookup 41 subtable" Emacron.ss01
Substitution2: "'c2sc' Capitals to Small Capitals lookup 36 subtable" emacron.sc
AlternateSubs2: "'aalt' Access All Alternates lookup 1 subtable" emacron.sc Emacron.ss01
EndChar

StartChar: uni1E16
Encoding: 7702 7702 64
Width: 352
GlyphClass: 2
Flags: HMW
HStem: 163 266<136 216>
VStem: 41 270<257 337>
LayerCount: 2
Fore
SplineSet
176 163 m 0
 96 163 41 216 41 297 c 0
 41 378 96 429 176 429 c 0
 256 429 311 378 311 297 c 0
 311 216 256 163 176 163 c 0
EndSplineSet
Validated: 1
Substitution2: "'ss01' Style Set 1 lookup 42 subtable" uni1E16.ss01
Substitution2: "'salt' Stylistic Alternatives lookup 41 subtable" uni1E16.ss01
Substitution2: "'c2sc' Capitals to Small Capitals lookup 36 subtable" uni1E17.sc
AlternateSubs2: "'aalt' Access All Alternates lookup 1 subtable" uni1E17.sc uni1E16.ss01
EndChar

StartChar: uni1E14
Encoding: 7700 7700 65
Width: 352
GlyphClass: 2
Flags: HMW
HStem: 163 266<136 216>
VStem: 41 270<257 337>
LayerCount: 2
Fore
SplineSet
176 163 m 0
 96 163 41 216 41 297 c 0
 41 378 96 429 176 429 c 0
 256 429 311 378 311 297 c 0
 311 216 256 163 176 163 c 0
EndSplineSet
Validated: 1
Substitution2: "'ss01' Style Set 1 lookup 42 subtable" uni1E14.ss01
Substitution2: "'salt' Stylistic Alternatives lookup 41 subtable" uni1E14.ss01
Substitution2: "'c2sc' Capitals to Small Capitals lookup 36 subtable" uni1E15.sc
AlternateSubs2: "'aalt' Access All Alternates lookup 1 subtable" uni1E15.sc uni1E14.ss01
EndChar

StartChar: Eogonek
Encoding: 280 280 66
Width: 352
GlyphClass: 2
Flags: HMW
HStem: 163 266<136 216>
VStem: 41 270<257 337>
LayerCount: 2
Fore
SplineSet
176 163 m 0
 96 163 41 216 41 297 c 0
 41 378 96 429 176 429 c 0
 256 429 311 378 311 297 c 0
 311 216 256 163 176 163 c 0
EndSplineSet
Validated: 1
Substitution2: "'ss01' Style Set 1 lookup 42 subtable" Eogonek.ss01
Substitution2: "'salt' Stylistic Alternatives lookup 41 subtable" Eogonek.ss01
Substitution2: "'c2sc' Capitals to Small Capitals lookup 36 subtable" eogonek.sc
AlternateSubs2: "'aalt' Access All Alternates lookup 1 subtable" eogonek.sc Eogonek.ss01
EndChar

StartChar: uni1EBC
Encoding: 7868 7868 67
Width: 352
GlyphClass: 2
Flags: HMW
HStem: 163 266<136 216>
VStem: 41 270<257 337>
LayerCount: 2
Fore
SplineSet
176 163 m 0
 96 163 41 216 41 297 c 0
 41 378 96 429 176 429 c 0
 256 429 311 378 311 297 c 0
 311 216 256 163 176 163 c 0
EndSplineSet
Validated: 1
Substitution2: "'ss01' Style Set 1 lookup 42 subtable" uni1EBC.ss01
Substitution2: "'salt' Stylistic Alternatives lookup 41 subtable" uni1EBC.ss01
Substitution2: "'c2sc' Capitals to Small Capitals lookup 36 subtable" uni1EBD.sc
AlternateSubs2: "'aalt' Access All Alternates lookup 1 subtable" uni1EBD.sc uni1EBC.ss01
EndChar

StartChar: uni01B7
Encoding: 439 439 68
Width: 352
GlyphClass: 2
Flags: HMW
HStem: 163 266<136 216>
VStem: 41 270<257 337>
LayerCount: 2
Fore
SplineSet
176 163 m 0
 96 163 41 216 41 297 c 0
 41 378 96 429 176 429 c 0
 256 429 311 378 311 297 c 0
 311 216 256 163 176 163 c 0
EndSplineSet
Validated: 1
Substitution2: "'c2sc' Capitals to Small Capitals lookup 36 subtable" uni0292.sc
Substitution2: "'aalt' Access All Alternates lookup 0 subtable" uni0292.sc
EndChar

StartChar: uni01EE
Encoding: 494 494 69
Width: 352
GlyphClass: 2
Flags: HMW
HStem: 163 266<136 216>
VStem: 41 270<257 337>
LayerCount: 2
Fore
SplineSet
176 163 m 0
 96 163 41 216 41 297 c 0
 41 378 96 429 176 429 c 0
 256 429 311 378 311 297 c 0
 311 216 256 163 176 163 c 0
EndSplineSet
Validated: 1
Substitution2: "'c2sc' Capitals to Small Capitals lookup 36 subtable" uni01EF.sc
Substitution2: "'aalt' Access All Alternates lookup 0 subtable" uni01EF.sc
EndChar

StartChar: F
Encoding: 70 70 70
Width: 352
GlyphClass: 1
Flags: HMW
HStem: 163 266<136 216>
VStem: 41 270<257 337>
LayerCount: 2
Fore
SplineSet
176 163 m 0
 96 163 41 216 41 297 c 0
 41 378 96 429 176 429 c 0
 256 429 311 378 311 297 c 0
 311 216 256 163 176 163 c 0
EndSplineSet
Validated: 1
Substitution2: "'ss01' Style Set 1 lookup 42 subtable" F.ss01
Substitution2: "'salt' Stylistic Alternatives lookup 41 subtable" F.ss01
Substitution2: "'c2sc' Capitals to Small Capitals lookup 36 subtable" f.sc
AlternateSubs2: "'aalt' Access All Alternates lookup 1 subtable" f.sc F.ss01
EndChar

StartChar: G
Encoding: 71 71 71
Width: 352
GlyphClass: 2
Flags: HMW
HStem: 163 266<136 216>
VStem: 41 270<257 337>
LayerCount: 2
Fore
SplineSet
176 163 m 0
 96 163 41 216 41 297 c 0
 41 378 96 429 176 429 c 0
 256 429 311 378 311 297 c 0
 311 216 256 163 176 163 c 0
EndSplineSet
Validated: 1
Substitution2: "'ss01' Style Set 1 lookup 42 subtable" G.ss01
Substitution2: "'salt' Stylistic Alternatives lookup 41 subtable" G.ss01
Substitution2: "'c2sc' Capitals to Small Capitals lookup 36 subtable" g.sc
AlternateSubs2: "'aalt' Access All Alternates lookup 1 subtable" g.sc G.ss01
EndChar

StartChar: Gbreve
Encoding: 286 286 72
Width: 352
GlyphClass: 2
Flags: HMW
HStem: 163 266<136 216>
VStem: 41 270<257 337>
LayerCount: 2
Fore
SplineSet
176 163 m 0
 96 163 41 216 41 297 c 0
 41 378 96 429 176 429 c 0
 256 429 311 378 311 297 c 0
 311 216 256 163 176 163 c 0
EndSplineSet
Validated: 1
Substitution2: "'ss01' Style Set 1 lookup 42 subtable" Gbreve.ss01
Substitution2: "'salt' Stylistic Alternatives lookup 41 subtable" Gbreve.ss01
Substitution2: "'c2sc' Capitals to Small Capitals lookup 36 subtable" gbreve.sc
AlternateSubs2: "'aalt' Access All Alternates lookup 1 subtable" gbreve.sc Gbreve.ss01
EndChar

StartChar: Gcaron
Encoding: 486 486 73
Width: 352
GlyphClass: 2
Flags: HMW
HStem: 163 266<136 216>
VStem: 41 270<257 337>
LayerCount: 2
Fore
SplineSet
176 163 m 0
 96 163 41 216 41 297 c 0
 41 378 96 429 176 429 c 0
 256 429 311 378 311 297 c 0
 311 216 256 163 176 163 c 0
EndSplineSet
Validated: 1
Substitution2: "'ss01' Style Set 1 lookup 42 subtable" Gcaron.ss01
Substitution2: "'salt' Stylistic Alternatives lookup 41 subtable" Gcaron.ss01
Substitution2: "'c2sc' Capitals to Small Capitals lookup 36 subtable" gcaron.sc
AlternateSubs2: "'aalt' Access All Alternates lookup 1 subtable" gcaron.sc Gcaron.ss01
EndChar

StartChar: Gcircumflex
Encoding: 284 284 74
Width: 352
GlyphClass: 2
Flags: HMW
HStem: 163 266<136 216>
VStem: 41 270<257 337>
LayerCount: 2
Fore
SplineSet
176 163 m 0
 96 163 41 216 41 297 c 0
 41 378 96 429 176 429 c 0
 256 429 311 378 311 297 c 0
 311 216 256 163 176 163 c 0
EndSplineSet
Validated: 1
Substitution2: "'ss01' Style Set 1 lookup 42 subtable" Gcircumflex.ss01
Substitution2: "'salt' Stylistic Alternatives lookup 41 subtable" Gcircumflex.ss01
Substitution2: "'c2sc' Capitals to Small Capitals lookup 36 subtable" gcircumflex.sc
AlternateSubs2: "'aalt' Access All Alternates lookup 1 subtable" gcircumflex.sc Gcircumflex.ss01
EndChar

StartChar: Gcommaaccent
Encoding: 290 290 75
Width: 352
GlyphClass: 2
Flags: HMW
HStem: 163 266<136 216>
VStem: 41 270<257 337>
LayerCount: 2
Fore
SplineSet
176 163 m 0
 96 163 41 216 41 297 c 0
 41 378 96 429 176 429 c 0
 256 429 311 378 311 297 c 0
 311 216 256 163 176 163 c 0
EndSplineSet
Validated: 1
Substitution2: "'ss01' Style Set 1 lookup 42 subtable" Gcommaaccent.ss01
Substitution2: "'salt' Stylistic Alternatives lookup 41 subtable" Gcommaaccent.ss01
Substitution2: "'c2sc' Capitals to Small Capitals lookup 36 subtable" gcommaaccent.sc
AlternateSubs2: "'aalt' Access All Alternates lookup 1 subtable" gcommaaccent.sc Gcommaaccent.ss01
EndChar

StartChar: Gdotaccent
Encoding: 288 288 76
Width: 352
GlyphClass: 2
Flags: HMW
HStem: 163 266<136 216>
VStem: 41 270<257 337>
LayerCount: 2
Fore
SplineSet
176 163 m 0
 96 163 41 216 41 297 c 0
 41 378 96 429 176 429 c 0
 256 429 311 378 311 297 c 0
 311 216 256 163 176 163 c 0
EndSplineSet
Validated: 1
Substitution2: "'ss01' Style Set 1 lookup 42 subtable" Gdotaccent.ss01
Substitution2: "'salt' Stylistic Alternatives lookup 41 subtable" Gdotaccent.ss01
Substitution2: "'c2sc' Capitals to Small Capitals lookup 36 subtable" gdotaccent.sc
AlternateSubs2: "'aalt' Access All Alternates lookup 1 subtable" gdotaccent.sc Gdotaccent.ss01
EndChar

StartChar: uni1E20
Encoding: 7712 7712 77
Width: 352
GlyphClass: 2
Flags: HMW
HStem: 163 266<136 216>
VStem: 41 270<257 337>
LayerCount: 2
Fore
SplineSet
176 163 m 0
 96 163 41 216 41 297 c 0
 41 378 96 429 176 429 c 0
 256 429 311 378 311 297 c 0
 311 216 256 163 176 163 c 0
EndSplineSet
Validated: 1
Substitution2: "'ss01' Style Set 1 lookup 42 subtable" uni1E20.ss01
Substitution2: "'salt' Stylistic Alternatives lookup 41 subtable" uni1E20.ss01
Substitution2: "'c2sc' Capitals to Small Capitals lookup 36 subtable" uni1E21.sc
AlternateSubs2: "'aalt' Access All Alternates lookup 1 subtable" uni1E21.sc uni1E20.ss01
EndChar

StartChar: uni01E4
Encoding: 484 484 78
Width: 352
GlyphClass: 2
Flags: HMW
HStem: 163 266<136 216>
VStem: 41 270<257 337>
LayerCount: 2
Fore
SplineSet
176 163 m 0
 96 163 41 216 41 297 c 0
 41 378 96 429 176 429 c 0
 256 429 311 378 311 297 c 0
 311 216 256 163 176 163 c 0
EndSplineSet
Validated: 1
Substitution2: "'ss01' Style Set 1 lookup 42 subtable" uni01E4.ss01
Substitution2: "'salt' Stylistic Alternatives lookup 41 subtable" uni01E4.ss01
Substitution2: "'c2sc' Capitals to Small Capitals lookup 36 subtable" uni01E5.sc
AlternateSubs2: "'aalt' Access All Alternates lookup 1 subtable" uni01E5.sc uni01E4.ss01
EndChar

StartChar: H
Encoding: 72 72 79
Width: 352
GlyphClass: 2
Flags: HMW
HStem: 163 266<136 216>
VStem: 41 270<257 337>
LayerCount: 2
Fore
SplineSet
176 163 m 0
 96 163 41 216 41 297 c 0
 41 378 96 429 176 429 c 0
 256 429 311 378 311 297 c 0
 311 216 256 163 176 163 c 0
EndSplineSet
Validated: 1
Substitution2: "'c2sc' Capitals to Small Capitals lookup 36 subtable" h.sc
Substitution2: "'aalt' Access All Alternates lookup 0 subtable" h.sc
EndChar

StartChar: Hbar
Encoding: 294 294 80
Width: 352
GlyphClass: 2
Flags: HMW
HStem: 163 266<136 216>
VStem: 41 270<257 337>
LayerCount: 2
Fore
SplineSet
176 163 m 0
 96 163 41 216 41 297 c 0
 41 378 96 429 176 429 c 0
 256 429 311 378 311 297 c 0
 311 216 256 163 176 163 c 0
EndSplineSet
Validated: 1
Substitution2: "'c2sc' Capitals to Small Capitals lookup 36 subtable" hbar.sc
Substitution2: "'aalt' Access All Alternates lookup 0 subtable" hbar.sc
EndChar

StartChar: uni1E2A
Encoding: 7722 7722 81
Width: 352
GlyphClass: 2
Flags: HMW
HStem: 163 266<136 216>
VStem: 41 270<257 337>
LayerCount: 2
Fore
SplineSet
176 163 m 0
 96 163 41 216 41 297 c 0
 41 378 96 429 176 429 c 0
 256 429 311 378 311 297 c 0
 311 216 256 163 176 163 c 0
EndSplineSet
Validated: 1
Substitution2: "'c2sc' Capitals to Small Capitals lookup 36 subtable" uni1E2B.sc
Substitution2: "'aalt' Access All Alternates lookup 0 subtable" uni1E2B.sc
EndChar

StartChar: uni021E
Encoding: 542 542 82
Width: 352
GlyphClass: 2
Flags: HMW
HStem: 163 266<136 216>
VStem: 41 270<257 337>
LayerCount: 2
Fore
SplineSet
176 163 m 0
 96 163 41 216 41 297 c 0
 41 378 96 429 176 429 c 0
 256 429 311 378 311 297 c 0
 311 216 256 163 176 163 c 0
EndSplineSet
Validated: 1
Substitution2: "'c2sc' Capitals to Small Capitals lookup 36 subtable" uni021F.sc
Substitution2: "'aalt' Access All Alternates lookup 0 subtable" uni021F.sc
EndChar

StartChar: Hcircumflex
Encoding: 292 292 83
Width: 352
GlyphClass: 2
Flags: HMW
HStem: 163 266<136 216>
VStem: 41 270<257 337>
LayerCount: 2
Fore
SplineSet
176 163 m 0
 96 163 41 216 41 297 c 0
 41 378 96 429 176 429 c 0
 256 429 311 378 311 297 c 0
 311 216 256 163 176 163 c 0
EndSplineSet
Validated: 1
Substitution2: "'c2sc' Capitals to Small Capitals lookup 36 subtable" hcircumflex.sc
Substitution2: "'aalt' Access All Alternates lookup 0 subtable" hcircumflex.sc
EndChar

StartChar: uni1E24
Encoding: 7716 7716 84
Width: 352
GlyphClass: 2
Flags: HMW
HStem: 163 266<136 216>
VStem: 41 270<257 337>
LayerCount: 2
Fore
SplineSet
176 163 m 0
 96 163 41 216 41 297 c 0
 41 378 96 429 176 429 c 0
 256 429 311 378 311 297 c 0
 311 216 256 163 176 163 c 0
EndSplineSet
Validated: 1
Substitution2: "'c2sc' Capitals to Small Capitals lookup 36 subtable" uni1E25.sc
Substitution2: "'aalt' Access All Alternates lookup 0 subtable" uni1E25.sc
EndChar

StartChar: I
Encoding: 73 73 85
Width: 352
GlyphClass: 2
Flags: HMW
HStem: 163 266<136 216>
VStem: 41 270<257 337>
LayerCount: 2
Fore
SplineSet
176 163 m 0
 96 163 41 216 41 297 c 0
 41 378 96 429 176 429 c 0
 256 429 311 378 311 297 c 0
 311 216 256 163 176 163 c 0
EndSplineSet
Validated: 1
Substitution2: "'ss01' Style Set 1 lookup 42 subtable" I.ss01
Substitution2: "'salt' Stylistic Alternatives lookup 41 subtable" I.ss01
Substitution2: "'c2sc' Capitals to Small Capitals lookup 36 subtable" i.sc
AlternateSubs2: "'aalt' Access All Alternates lookup 1 subtable" i.sc I.ss01
EndChar

StartChar: IJ
Encoding: 306 306 86
Width: 352
GlyphClass: 2
Flags: HMW
HStem: 163 266<136 216>
VStem: 41 270<257 337>
LayerCount: 2
Fore
SplineSet
176 163 m 0
 96 163 41 216 41 297 c 0
 41 378 96 429 176 429 c 0
 256 429 311 378 311 297 c 0
 311 216 256 163 176 163 c 0
EndSplineSet
Validated: 1
Substitution2: "'ss01' Style Set 1 lookup 42 subtable" IJ.ss01
Substitution2: "'salt' Stylistic Alternatives lookup 41 subtable" IJ.ss01
Substitution2: "'c2sc' Capitals to Small Capitals lookup 36 subtable" ij.sc
AlternateSubs2: "'aalt' Access All Alternates lookup 1 subtable" ij.sc IJ.ss01
EndChar

StartChar: Iacute
Encoding: 205 205 87
Width: 352
GlyphClass: 2
Flags: HMW
HStem: 163 266<136 216>
VStem: 41 270<257 337>
LayerCount: 2
Fore
SplineSet
176 163 m 0
 96 163 41 216 41 297 c 0
 41 378 96 429 176 429 c 0
 256 429 311 378 311 297 c 0
 311 216 256 163 176 163 c 0
EndSplineSet
Validated: 1
Substitution2: "'ss01' Style Set 1 lookup 42 subtable" Iacute.ss01
Substitution2: "'salt' Stylistic Alternatives lookup 41 subtable" Iacute.ss01
Substitution2: "'c2sc' Capitals to Small Capitals lookup 36 subtable" iacute.sc
AlternateSubs2: "'aalt' Access All Alternates lookup 1 subtable" iacute.sc Iacute.ss01
EndChar

StartChar: Ibreve
Encoding: 300 300 88
Width: 352
GlyphClass: 2
Flags: HMW
HStem: 163 266<136 216>
VStem: 41 270<257 337>
LayerCount: 2
Fore
SplineSet
176 163 m 0
 96 163 41 216 41 297 c 0
 41 378 96 429 176 429 c 0
 256 429 311 378 311 297 c 0
 311 216 256 163 176 163 c 0
EndSplineSet
Validated: 1
Substitution2: "'ss01' Style Set 1 lookup 42 subtable" Ibreve.ss01
Substitution2: "'salt' Stylistic Alternatives lookup 41 subtable" Ibreve.ss01
Substitution2: "'c2sc' Capitals to Small Capitals lookup 36 subtable" ibreve.sc
AlternateSubs2: "'aalt' Access All Alternates lookup 1 subtable" ibreve.sc Ibreve.ss01
EndChar

StartChar: Icircumflex
Encoding: 206 206 89
Width: 352
GlyphClass: 2
Flags: HMW
HStem: 163 266<136 216>
VStem: 41 270<257 337>
LayerCount: 2
Fore
SplineSet
176 163 m 0
 96 163 41 216 41 297 c 0
 41 378 96 429 176 429 c 0
 256 429 311 378 311 297 c 0
 311 216 256 163 176 163 c 0
EndSplineSet
Validated: 1
Substitution2: "'ss01' Style Set 1 lookup 42 subtable" Icircumflex.ss01
Substitution2: "'salt' Stylistic Alternatives lookup 41 subtable" Icircumflex.ss01
Substitution2: "'c2sc' Capitals to Small Capitals lookup 36 subtable" icircumflex.sc
AlternateSubs2: "'aalt' Access All Alternates lookup 1 subtable" icircumflex.sc Icircumflex.ss01
EndChar

StartChar: uni0208
Encoding: 520 520 90
Width: 352
GlyphClass: 2
Flags: HMW
HStem: 163 266<136 216>
VStem: 41 270<257 337>
LayerCount: 2
Fore
SplineSet
176 163 m 0
 96 163 41 216 41 297 c 0
 41 378 96 429 176 429 c 0
 256 429 311 378 311 297 c 0
 311 216 256 163 176 163 c 0
EndSplineSet
Validated: 1
Substitution2: "'ss01' Style Set 1 lookup 42 subtable" uni0208.ss01
Substitution2: "'salt' Stylistic Alternatives lookup 41 subtable" uni0208.ss01
Substitution2: "'c2sc' Capitals to Small Capitals lookup 36 subtable" uni0209.sc
AlternateSubs2: "'aalt' Access All Alternates lookup 1 subtable" uni0209.sc uni0208.ss01
EndChar

StartChar: Idieresis
Encoding: 207 207 91
Width: 352
GlyphClass: 2
Flags: HMW
HStem: 163 266<136 216>
VStem: 41 270<257 337>
LayerCount: 2
Fore
SplineSet
176 163 m 0
 96 163 41 216 41 297 c 0
 41 378 96 429 176 429 c 0
 256 429 311 378 311 297 c 0
 311 216 256 163 176 163 c 0
EndSplineSet
Validated: 1
Substitution2: "'ss01' Style Set 1 lookup 42 subtable" Idieresis.ss01
Substitution2: "'salt' Stylistic Alternatives lookup 41 subtable" Idieresis.ss01
Substitution2: "'c2sc' Capitals to Small Capitals lookup 36 subtable" idieresis.sc
AlternateSubs2: "'aalt' Access All Alternates lookup 1 subtable" idieresis.sc Idieresis.ss01
EndChar

StartChar: uni1E2E
Encoding: 7726 7726 92
Width: 352
GlyphClass: 2
Flags: HMW
HStem: 163 266<136 216>
VStem: 41 270<257 337>
LayerCount: 2
Fore
SplineSet
176 163 m 0
 96 163 41 216 41 297 c 0
 41 378 96 429 176 429 c 0
 256 429 311 378 311 297 c 0
 311 216 256 163 176 163 c 0
EndSplineSet
Validated: 1
Substitution2: "'ss01' Style Set 1 lookup 42 subtable" uni1E2E.ss01
Substitution2: "'salt' Stylistic Alternatives lookup 41 subtable" uni1E2E.ss01
Substitution2: "'c2sc' Capitals to Small Capitals lookup 36 subtable" uni1E2F.sc
AlternateSubs2: "'aalt' Access All Alternates lookup 1 subtable" uni1E2F.sc uni1E2E.ss01
EndChar

StartChar: Idotaccent
Encoding: 304 304 93
Width: 352
GlyphClass: 2
Flags: HMW
HStem: 163 266<136 216>
VStem: 41 270<257 337>
LayerCount: 2
Fore
SplineSet
176 163 m 0
 96 163 41 216 41 297 c 0
 41 378 96 429 176 429 c 0
 256 429 311 378 311 297 c 0
 311 216 256 163 176 163 c 0
EndSplineSet
Validated: 1
Substitution2: "'ss01' Style Set 1 lookup 42 subtable" Idotaccent.ss01
Substitution2: "'salt' Stylistic Alternatives lookup 41 subtable" Idotaccent.ss01
Substitution2: "'c2sc' Capitals to Small Capitals lookup 36 subtable" i.sc.loclTRK
AlternateSubs2: "'aalt' Access All Alternates lookup 1 subtable" i.sc.loclTRK Idotaccent.ss01
EndChar

StartChar: uni1ECA
Encoding: 7882 7882 94
Width: 352
GlyphClass: 2
Flags: HMW
HStem: 163 266<136 216>
VStem: 41 270<257 337>
LayerCount: 2
Fore
SplineSet
176 163 m 0
 96 163 41 216 41 297 c 0
 41 378 96 429 176 429 c 0
 256 429 311 378 311 297 c 0
 311 216 256 163 176 163 c 0
EndSplineSet
Validated: 1
Substitution2: "'ss01' Style Set 1 lookup 42 subtable" uni1ECA.ss01
Substitution2: "'salt' Stylistic Alternatives lookup 41 subtable" uni1ECA.ss01
Substitution2: "'c2sc' Capitals to Small Capitals lookup 36 subtable" uni1ECB.sc
AlternateSubs2: "'aalt' Access All Alternates lookup 1 subtable" uni1ECB.sc uni1ECA.ss01
EndChar

StartChar: Igrave
Encoding: 204 204 95
Width: 352
GlyphClass: 2
Flags: HMW
HStem: 163 266<136 216>
VStem: 41 270<257 337>
LayerCount: 2
Fore
SplineSet
176 163 m 0
 96 163 41 216 41 297 c 0
 41 378 96 429 176 429 c 0
 256 429 311 378 311 297 c 0
 311 216 256 163 176 163 c 0
EndSplineSet
Validated: 1
Substitution2: "'ss01' Style Set 1 lookup 42 subtable" Igrave.ss01
Substitution2: "'salt' Stylistic Alternatives lookup 41 subtable" Igrave.ss01
Substitution2: "'c2sc' Capitals to Small Capitals lookup 36 subtable" igrave.sc
AlternateSubs2: "'aalt' Access All Alternates lookup 1 subtable" igrave.sc Igrave.ss01
EndChar

StartChar: uni1EC8
Encoding: 7880 7880 96
Width: 352
GlyphClass: 2
Flags: HMW
HStem: 163 266<136 216>
VStem: 41 270<257 337>
LayerCount: 2
Fore
SplineSet
176 163 m 0
 96 163 41 216 41 297 c 0
 41 378 96 429 176 429 c 0
 256 429 311 378 311 297 c 0
 311 216 256 163 176 163 c 0
EndSplineSet
Validated: 1
Substitution2: "'ss01' Style Set 1 lookup 42 subtable" uni1EC8.ss01
Substitution2: "'salt' Stylistic Alternatives lookup 41 subtable" uni1EC8.ss01
Substitution2: "'c2sc' Capitals to Small Capitals lookup 36 subtable" uni1EC9.sc
AlternateSubs2: "'aalt' Access All Alternates lookup 1 subtable" uni1EC9.sc uni1EC8.ss01
EndChar

StartChar: uni020A
Encoding: 522 522 97
Width: 352
GlyphClass: 2
Flags: HMW
HStem: 163 266<136 216>
VStem: 41 270<257 337>
LayerCount: 2
Fore
SplineSet
176 163 m 0
 96 163 41 216 41 297 c 0
 41 378 96 429 176 429 c 0
 256 429 311 378 311 297 c 0
 311 216 256 163 176 163 c 0
EndSplineSet
Validated: 1
Substitution2: "'ss01' Style Set 1 lookup 42 subtable" uni020A.ss01
Substitution2: "'salt' Stylistic Alternatives lookup 41 subtable" uni020A.ss01
Substitution2: "'c2sc' Capitals to Small Capitals lookup 36 subtable" uni020B.sc
AlternateSubs2: "'aalt' Access All Alternates lookup 1 subtable" uni020B.sc uni020A.ss01
EndChar

StartChar: Imacron
Encoding: 298 298 98
Width: 352
GlyphClass: 2
Flags: HMW
HStem: 163 266<136 216>
VStem: 41 270<257 337>
LayerCount: 2
Fore
SplineSet
176 163 m 0
 96 163 41 216 41 297 c 0
 41 378 96 429 176 429 c 0
 256 429 311 378 311 297 c 0
 311 216 256 163 176 163 c 0
EndSplineSet
Validated: 1
Substitution2: "'ss01' Style Set 1 lookup 42 subtable" Imacron.ss01
Substitution2: "'salt' Stylistic Alternatives lookup 41 subtable" Imacron.ss01
Substitution2: "'c2sc' Capitals to Small Capitals lookup 36 subtable" imacron.sc
AlternateSubs2: "'aalt' Access All Alternates lookup 1 subtable" imacron.sc Imacron.ss01
EndChar

StartChar: Iogonek
Encoding: 302 302 99
Width: 352
GlyphClass: 2
Flags: HMW
HStem: 163 266<136 216>
VStem: 41 270<257 337>
LayerCount: 2
Fore
SplineSet
176 163 m 0
 96 163 41 216 41 297 c 0
 41 378 96 429 176 429 c 0
 256 429 311 378 311 297 c 0
 311 216 256 163 176 163 c 0
EndSplineSet
Validated: 1
Substitution2: "'ss01' Style Set 1 lookup 42 subtable" Iogonek.ss01
Substitution2: "'salt' Stylistic Alternatives lookup 41 subtable" Iogonek.ss01
Substitution2: "'c2sc' Capitals to Small Capitals lookup 36 subtable" iogonek.sc
AlternateSubs2: "'aalt' Access All Alternates lookup 1 subtable" iogonek.sc Iogonek.ss01
EndChar

StartChar: Itilde
Encoding: 296 296 100
Width: 352
GlyphClass: 2
Flags: HMW
HStem: 163 266<136 216>
VStem: 41 270<257 337>
LayerCount: 2
Fore
SplineSet
176 163 m 0
 96 163 41 216 41 297 c 0
 41 378 96 429 176 429 c 0
 256 429 311 378 311 297 c 0
 311 216 256 163 176 163 c 0
EndSplineSet
Validated: 1
Substitution2: "'ss01' Style Set 1 lookup 42 subtable" Itilde.ss01
Substitution2: "'salt' Stylistic Alternatives lookup 41 subtable" Itilde.ss01
Substitution2: "'c2sc' Capitals to Small Capitals lookup 36 subtable" itilde.sc
AlternateSubs2: "'aalt' Access All Alternates lookup 1 subtable" itilde.sc Itilde.ss01
EndChar

StartChar: J
Encoding: 74 74 101
Width: 352
GlyphClass: 2
Flags: HMW
HStem: 163 266<136 216>
VStem: 41 270<257 337>
LayerCount: 2
Fore
SplineSet
176 163 m 0
 96 163 41 216 41 297 c 0
 41 378 96 429 176 429 c 0
 256 429 311 378 311 297 c 0
 311 216 256 163 176 163 c 0
EndSplineSet
Validated: 1
Substitution2: "'ss01' Style Set 1 lookup 42 subtable" J.ss01
Substitution2: "'salt' Stylistic Alternatives lookup 41 subtable" J.ss01
Substitution2: "'c2sc' Capitals to Small Capitals lookup 36 subtable" j.sc
AlternateSubs2: "'aalt' Access All Alternates lookup 1 subtable" j.sc J.ss01
EndChar

StartChar: uni00A40301
Encoding: 65537 -1 102
Width: 352
GlyphClass: 2
Flags: HMW
HStem: 163 266<136 216>
VStem: 41 270<257 337>
LayerCount: 2
Fore
SplineSet
176 163 m 0
 96 163 41 216 41 297 c 0
 41 378 96 429 176 429 c 0
 256 429 311 378 311 297 c 0
 311 216 256 163 176 163 c 0
EndSplineSet
Validated: 1
Substitution2: "'ss01' Style Set 1 lookup 42 subtable" uni00A40301.ss01
Substitution2: "'salt' Stylistic Alternatives lookup 41 subtable" uni00A40301.ss01
Substitution2: "'c2sc' Capitals to Small Capitals lookup 36 subtable" uni006A0301.sc
AlternateSubs2: "'aalt' Access All Alternates lookup 1 subtable" uni006A0301.sc uni00A40301.ss01
EndChar

StartChar: Jcircumflex
Encoding: 308 308 103
Width: 352
GlyphClass: 2
Flags: HMW
HStem: 163 266<136 216>
VStem: 41 270<257 337>
LayerCount: 2
Fore
SplineSet
176 163 m 0
 96 163 41 216 41 297 c 0
 41 378 96 429 176 429 c 0
 256 429 311 378 311 297 c 0
 311 216 256 163 176 163 c 0
EndSplineSet
Validated: 1
Substitution2: "'ss01' Style Set 1 lookup 42 subtable" Jcircumflex.ss01
Substitution2: "'salt' Stylistic Alternatives lookup 41 subtable" Jcircumflex.ss01
Substitution2: "'c2sc' Capitals to Small Capitals lookup 36 subtable" jcircumflex.sc
AlternateSubs2: "'aalt' Access All Alternates lookup 1 subtable" jcircumflex.sc Jcircumflex.ss01
EndChar

StartChar: K
Encoding: 75 75 104
Width: 352
GlyphClass: 2
Flags: HMW
HStem: 163 266<136 216>
VStem: 41 270<257 337>
LayerCount: 2
Fore
SplineSet
176 163 m 0
 96 163 41 216 41 297 c 0
 41 378 96 429 176 429 c 0
 256 429 311 378 311 297 c 0
 311 216 256 163 176 163 c 0
EndSplineSet
Validated: 1
Substitution2: "'c2sc' Capitals to Small Capitals lookup 36 subtable" k.sc
Substitution2: "'aalt' Access All Alternates lookup 0 subtable" k.sc
EndChar

StartChar: uni01E8
Encoding: 488 488 105
Width: 352
GlyphClass: 2
Flags: HMW
HStem: 163 266<136 216>
VStem: 41 270<257 337>
LayerCount: 2
Fore
SplineSet
176 163 m 0
 96 163 41 216 41 297 c 0
 41 378 96 429 176 429 c 0
 256 429 311 378 311 297 c 0
 311 216 256 163 176 163 c 0
EndSplineSet
Validated: 1
Substitution2: "'c2sc' Capitals to Small Capitals lookup 36 subtable" uni01E9.sc
Substitution2: "'aalt' Access All Alternates lookup 0 subtable" uni01E9.sc
EndChar

StartChar: Kcommaaccent
Encoding: 310 310 106
Width: 352
GlyphClass: 2
Flags: HMW
HStem: 163 266<136 216>
VStem: 41 270<257 337>
LayerCount: 2
Fore
SplineSet
176 163 m 0
 96 163 41 216 41 297 c 0
 41 378 96 429 176 429 c 0
 256 429 311 378 311 297 c 0
 311 216 256 163 176 163 c 0
EndSplineSet
Validated: 1
Substitution2: "'c2sc' Capitals to Small Capitals lookup 36 subtable" kcommaaccent.sc
Substitution2: "'aalt' Access All Alternates lookup 0 subtable" kcommaaccent.sc
EndChar

StartChar: L
Encoding: 76 76 107
Width: 352
GlyphClass: 2
Flags: HMW
HStem: 163 266<136 216>
VStem: 41 270<257 337>
LayerCount: 2
Fore
SplineSet
176 163 m 0
 96 163 41 216 41 297 c 0
 41 378 96 429 176 429 c 0
 256 429 311 378 311 297 c 0
 311 216 256 163 176 163 c 0
EndSplineSet
Validated: 1
Substitution2: "'c2sc' Capitals to Small Capitals lookup 36 subtable" l.sc
Substitution2: "'aalt' Access All Alternates lookup 0 subtable" l.sc
EndChar

StartChar: uni01C7
Encoding: 455 455 108
Width: 352
GlyphClass: 2
Flags: HMW
HStem: 163 266<136 216>
VStem: 41 270<257 337>
LayerCount: 2
Fore
SplineSet
176 163 m 0
 96 163 41 216 41 297 c 0
 41 378 96 429 176 429 c 0
 256 429 311 378 311 297 c 0
 311 216 256 163 176 163 c 0
EndSplineSet
Validated: 1
Substitution2: "'ss01' Style Set 1 lookup 42 subtable" uni01C7.ss01
Substitution2: "'salt' Stylistic Alternatives lookup 41 subtable" uni01C7.ss01
Substitution2: "'c2sc' Capitals to Small Capitals lookup 36 subtable" uni01C9.sc
AlternateSubs2: "'aalt' Access All Alternates lookup 1 subtable" uni01C9.sc uni01C7.ss01
EndChar

StartChar: Lacute
Encoding: 313 313 109
Width: 352
GlyphClass: 2
Flags: HMW
HStem: 163 266<136 216>
VStem: 41 270<257 337>
LayerCount: 2
Fore
SplineSet
176 163 m 0
 96 163 41 216 41 297 c 0
 41 378 96 429 176 429 c 0
 256 429 311 378 311 297 c 0
 311 216 256 163 176 163 c 0
EndSplineSet
Validated: 1
Substitution2: "'c2sc' Capitals to Small Capitals lookup 36 subtable" lacute.sc
Substitution2: "'aalt' Access All Alternates lookup 0 subtable" lacute.sc
EndChar

StartChar: Lcaron
Encoding: 317 317 110
Width: 352
GlyphClass: 2
Flags: HMW
HStem: 163 266<136 216>
VStem: 41 270<257 337>
LayerCount: 2
Fore
SplineSet
176 163 m 0
 96 163 41 216 41 297 c 0
 41 378 96 429 176 429 c 0
 256 429 311 378 311 297 c 0
 311 216 256 163 176 163 c 0
EndSplineSet
Validated: 1
Substitution2: "'c2sc' Capitals to Small Capitals lookup 36 subtable" lcaron.sc
Substitution2: "'aalt' Access All Alternates lookup 0 subtable" lcaron.sc
EndChar

StartChar: Lcommaaccent
Encoding: 315 315 111
Width: 352
GlyphClass: 2
Flags: HMW
HStem: 163 266<136 216>
VStem: 41 270<257 337>
LayerCount: 2
Fore
SplineSet
176 163 m 0
 96 163 41 216 41 297 c 0
 41 378 96 429 176 429 c 0
 256 429 311 378 311 297 c 0
 311 216 256 163 176 163 c 0
EndSplineSet
Validated: 1
Substitution2: "'c2sc' Capitals to Small Capitals lookup 36 subtable" lcommaaccent.sc
Substitution2: "'aalt' Access All Alternates lookup 0 subtable" lcommaaccent.sc
EndChar

StartChar: Ldot
Encoding: 319 319 112
Width: 352
GlyphClass: 2
Flags: HMW
HStem: 163 266<136 216>
VStem: 41 270<257 337>
LayerCount: 2
Fore
SplineSet
176 163 m 0
 96 163 41 216 41 297 c 0
 41 378 96 429 176 429 c 0
 256 429 311 378 311 297 c 0
 311 216 256 163 176 163 c 0
EndSplineSet
Validated: 1
Substitution2: "'c2sc' Capitals to Small Capitals lookup 36 subtable" ldot.sc
Substitution2: "'aalt' Access All Alternates lookup 0 subtable" ldot.sc
EndChar

StartChar: uni1E36
Encoding: 7734 7734 113
Width: 352
GlyphClass: 2
Flags: HMW
HStem: 163 266<136 216>
VStem: 41 270<257 337>
LayerCount: 2
Fore
SplineSet
176 163 m 0
 96 163 41 216 41 297 c 0
 41 378 96 429 176 429 c 0
 256 429 311 378 311 297 c 0
 311 216 256 163 176 163 c 0
EndSplineSet
Validated: 1
Substitution2: "'c2sc' Capitals to Small Capitals lookup 36 subtable" uni1E37.sc
Substitution2: "'aalt' Access All Alternates lookup 0 subtable" uni1E37.sc
EndChar

StartChar: uni01C8
Encoding: 456 456 114
Width: 352
GlyphClass: 2
Flags: HMW
HStem: 163 266<136 216>
VStem: 41 270<257 337>
LayerCount: 2
Fore
SplineSet
176 163 m 0
 96 163 41 216 41 297 c 0
 41 378 96 429 176 429 c 0
 256 429 311 378 311 297 c 0
 311 216 256 163 176 163 c 0
EndSplineSet
Validated: 1
Substitution2: "'c2sc' Capitals to Small Capitals lookup 36 subtable" uni01C9.sc
Substitution2: "'aalt' Access All Alternates lookup 0 subtable" uni01C9.sc
EndChar

StartChar: uni1E3A
Encoding: 7738 7738 115
Width: 352
GlyphClass: 2
Flags: HMW
HStem: 163 266<136 216>
VStem: 41 270<257 337>
LayerCount: 2
Fore
SplineSet
176 163 m 0
 96 163 41 216 41 297 c 0
 41 378 96 429 176 429 c 0
 256 429 311 378 311 297 c 0
 311 216 256 163 176 163 c 0
EndSplineSet
Validated: 1
Substitution2: "'c2sc' Capitals to Small Capitals lookup 36 subtable" uni1E3B.sc
Substitution2: "'aalt' Access All Alternates lookup 0 subtable" uni1E3B.sc
EndChar

StartChar: Lslash
Encoding: 321 321 116
Width: 352
GlyphClass: 2
Flags: HMW
HStem: 163 266<136 216>
VStem: 41 270<257 337>
LayerCount: 2
Fore
SplineSet
176 163 m 0
 96 163 41 216 41 297 c 0
 41 378 96 429 176 429 c 0
 256 429 311 378 311 297 c 0
 311 216 256 163 176 163 c 0
EndSplineSet
Validated: 1
Substitution2: "'c2sc' Capitals to Small Capitals lookup 36 subtable" lslash.sc
Substitution2: "'aalt' Access All Alternates lookup 0 subtable" lslash.sc
EndChar

StartChar: M
Encoding: 77 77 117
Width: 352
GlyphClass: 2
Flags: HMW
HStem: 163 266<136 216>
VStem: 41 270<257 337>
LayerCount: 2
Fore
SplineSet
176 163 m 0
 96 163 41 216 41 297 c 0
 41 378 96 429 176 429 c 0
 256 429 311 378 311 297 c 0
 311 216 256 163 176 163 c 0
EndSplineSet
Validated: 1
Substitution2: "'ss01' Style Set 1 lookup 42 subtable" M.ss01
Substitution2: "'salt' Stylistic Alternatives lookup 41 subtable" M.ss01
Substitution2: "'c2sc' Capitals to Small Capitals lookup 36 subtable" m.sc
AlternateSubs2: "'aalt' Access All Alternates lookup 1 subtable" m.sc M.ss01
EndChar

StartChar: uni1E42
Encoding: 7746 7746 118
Width: 352
GlyphClass: 2
Flags: HMW
HStem: 163 266<136 216>
VStem: 41 270<257 337>
LayerCount: 2
Fore
SplineSet
176 163 m 0
 96 163 41 216 41 297 c 0
 41 378 96 429 176 429 c 0
 256 429 311 378 311 297 c 0
 311 216 256 163 176 163 c 0
EndSplineSet
Validated: 1
Substitution2: "'ss01' Style Set 1 lookup 42 subtable" uni1E42.ss01
Substitution2: "'salt' Stylistic Alternatives lookup 41 subtable" uni1E42.ss01
Substitution2: "'c2sc' Capitals to Small Capitals lookup 36 subtable" uni1E43.sc
AlternateSubs2: "'aalt' Access All Alternates lookup 1 subtable" uni1E43.sc uni1E42.ss01
EndChar

StartChar: N
Encoding: 78 78 119
Width: 352
GlyphClass: 2
Flags: HMW
HStem: 163 266<136 216>
VStem: 41 270<257 337>
LayerCount: 2
Fore
SplineSet
176 163 m 0
 96 163 41 216 41 297 c 0
 41 378 96 429 176 429 c 0
 256 429 311 378 311 297 c 0
 311 216 256 163 176 163 c 0
EndSplineSet
Validated: 1
Substitution2: "'ss01' Style Set 1 lookup 42 subtable" N.ss01
Substitution2: "'salt' Stylistic Alternatives lookup 41 subtable" N.ss01
Substitution2: "'c2sc' Capitals to Small Capitals lookup 36 subtable" n.sc
AlternateSubs2: "'aalt' Access All Alternates lookup 1 subtable" n.sc N.ss01
EndChar

StartChar: uni01CA
Encoding: 458 458 120
Width: 352
GlyphClass: 2
Flags: HMW
HStem: 163 266<136 216>
VStem: 41 270<257 337>
LayerCount: 2
Fore
SplineSet
176 163 m 0
 96 163 41 216 41 297 c 0
 41 378 96 429 176 429 c 0
 256 429 311 378 311 297 c 0
 311 216 256 163 176 163 c 0
EndSplineSet
Validated: 1
Substitution2: "'ss01' Style Set 1 lookup 42 subtable" uni01CA.ss01
Substitution2: "'salt' Stylistic Alternatives lookup 41 subtable" uni01CA.ss01
Substitution2: "'c2sc' Capitals to Small Capitals lookup 36 subtable" uni01CC.sc
AlternateSubs2: "'aalt' Access All Alternates lookup 1 subtable" uni01CC.sc uni01CA.ss01
EndChar

StartChar: Nacute
Encoding: 323 323 121
Width: 352
GlyphClass: 2
Flags: HMW
HStem: 163 266<136 216>
VStem: 41 270<257 337>
LayerCount: 2
Fore
SplineSet
176 163 m 0
 96 163 41 216 41 297 c 0
 41 378 96 429 176 429 c 0
 256 429 311 378 311 297 c 0
 311 216 256 163 176 163 c 0
EndSplineSet
Validated: 1
Substitution2: "'ss01' Style Set 1 lookup 42 subtable" Nacute.ss01
Substitution2: "'salt' Stylistic Alternatives lookup 41 subtable" Nacute.ss01
Substitution2: "'c2sc' Capitals to Small Capitals lookup 36 subtable" nacute.sc
AlternateSubs2: "'aalt' Access All Alternates lookup 1 subtable" nacute.sc Nacute.ss01
EndChar

StartChar: Ncaron
Encoding: 327 327 122
Width: 352
GlyphClass: 2
Flags: HMW
HStem: 163 266<136 216>
VStem: 41 270<257 337>
LayerCount: 2
Fore
SplineSet
176 163 m 0
 96 163 41 216 41 297 c 0
 41 378 96 429 176 429 c 0
 256 429 311 378 311 297 c 0
 311 216 256 163 176 163 c 0
EndSplineSet
Validated: 1
Substitution2: "'ss01' Style Set 1 lookup 42 subtable" Ncaron.ss01
Substitution2: "'salt' Stylistic Alternatives lookup 41 subtable" Ncaron.ss01
Substitution2: "'c2sc' Capitals to Small Capitals lookup 36 subtable" ncaron.sc
AlternateSubs2: "'aalt' Access All Alternates lookup 1 subtable" ncaron.sc Ncaron.ss01
EndChar

StartChar: Ncommaaccent
Encoding: 325 325 123
Width: 352
GlyphClass: 2
Flags: HMW
HStem: 163 266<136 216>
VStem: 41 270<257 337>
LayerCount: 2
Fore
SplineSet
176 163 m 0
 96 163 41 216 41 297 c 0
 41 378 96 429 176 429 c 0
 256 429 311 378 311 297 c 0
 311 216 256 163 176 163 c 0
EndSplineSet
Validated: 1
Substitution2: "'ss01' Style Set 1 lookup 42 subtable" Ncommaaccent.ss01
Substitution2: "'salt' Stylistic Alternatives lookup 41 subtable" Ncommaaccent.ss01
Substitution2: "'c2sc' Capitals to Small Capitals lookup 36 subtable" ncommaaccent.sc
AlternateSubs2: "'aalt' Access All Alternates lookup 1 subtable" ncommaaccent.sc Ncommaaccent.ss01
EndChar

StartChar: uni1E44
Encoding: 7748 7748 124
Width: 352
GlyphClass: 2
Flags: HMW
HStem: 163 266<136 216>
VStem: 41 270<257 337>
LayerCount: 2
Fore
SplineSet
176 163 m 0
 96 163 41 216 41 297 c 0
 41 378 96 429 176 429 c 0
 256 429 311 378 311 297 c 0
 311 216 256 163 176 163 c 0
EndSplineSet
Validated: 1
Substitution2: "'ss01' Style Set 1 lookup 42 subtable" uni1E44.ss01
Substitution2: "'salt' Stylistic Alternatives lookup 41 subtable" uni1E44.ss01
Substitution2: "'c2sc' Capitals to Small Capitals lookup 36 subtable" uni1E45.sc
AlternateSubs2: "'aalt' Access All Alternates lookup 1 subtable" uni1E45.sc uni1E44.ss01
EndChar

StartChar: uni1E46
Encoding: 7750 7750 125
Width: 352
GlyphClass: 2
Flags: HMW
HStem: 163 266<136 216>
VStem: 41 270<257 337>
LayerCount: 2
Fore
SplineSet
176 163 m 0
 96 163 41 216 41 297 c 0
 41 378 96 429 176 429 c 0
 256 429 311 378 311 297 c 0
 311 216 256 163 176 163 c 0
EndSplineSet
Validated: 1
Substitution2: "'ss01' Style Set 1 lookup 42 subtable" uni1E46.ss01
Substitution2: "'salt' Stylistic Alternatives lookup 41 subtable" uni1E46.ss01
Substitution2: "'c2sc' Capitals to Small Capitals lookup 36 subtable" uni1E47.sc
AlternateSubs2: "'aalt' Access All Alternates lookup 1 subtable" uni1E47.sc uni1E46.ss01
EndChar

StartChar: Eng
Encoding: 330 330 126
Width: 352
GlyphClass: 1
Flags: HMW
HStem: 163 266<136 216>
VStem: 41 270<257 337>
LayerCount: 2
Fore
SplineSet
176 163 m 0
 96 163 41 216 41 297 c 0
 41 378 96 429 176 429 c 0
 256 429 311 378 311 297 c 0
 311 216 256 163 176 163 c 0
EndSplineSet
Validated: 1
Substitution2: "'ss01' Style Set 1 lookup 42 subtable" Eng.ss01
Substitution2: "'salt' Stylistic Alternatives lookup 41 subtable" Eng.ss01
Substitution2: "'c2sc' Capitals to Small Capitals lookup 36 subtable" eng.sc
AlternateSubs2: "'aalt' Access All Alternates lookup 1 subtable" eng.sc Eng.ss01
EndChar

StartChar: uni01CB
Encoding: 459 459 127
Width: 352
GlyphClass: 2
Flags: HMW
HStem: 163 266<136 216>
VStem: 41 270<257 337>
LayerCount: 2
Fore
SplineSet
176 163 m 0
 96 163 41 216 41 297 c 0
 41 378 96 429 176 429 c 0
 256 429 311 378 311 297 c 0
 311 216 256 163 176 163 c 0
EndSplineSet
Validated: 1
Substitution2: "'ss01' Style Set 1 lookup 42 subtable" uni01CB.ss01
Substitution2: "'salt' Stylistic Alternatives lookup 41 subtable" uni01CB.ss01
Substitution2: "'c2sc' Capitals to Small Capitals lookup 36 subtable" uni01CC.sc
AlternateSubs2: "'aalt' Access All Alternates lookup 1 subtable" uni01CC.sc uni01CB.ss01
EndChar

StartChar: uni1E48
Encoding: 7752 7752 128
Width: 352
GlyphClass: 2
Flags: HMW
HStem: 163 266<136 216>
VStem: 41 270<257 337>
LayerCount: 2
Fore
SplineSet
176 163 m 0
 96 163 41 216 41 297 c 0
 41 378 96 429 176 429 c 0
 256 429 311 378 311 297 c 0
 311 216 256 163 176 163 c 0
EndSplineSet
Validated: 1
Substitution2: "'ss01' Style Set 1 lookup 42 subtable" uni1E48.ss01
Substitution2: "'salt' Stylistic Alternatives lookup 41 subtable" uni1E48.ss01
Substitution2: "'c2sc' Capitals to Small Capitals lookup 36 subtable" uni1E49.sc
AlternateSubs2: "'aalt' Access All Alternates lookup 1 subtable" uni1E49.sc uni1E48.ss01
EndChar

StartChar: Ntilde
Encoding: 209 209 129
Width: 352
GlyphClass: 2
Flags: HMW
HStem: 163 266<136 216>
VStem: 41 270<257 337>
LayerCount: 2
Fore
SplineSet
176 163 m 0
 96 163 41 216 41 297 c 0
 41 378 96 429 176 429 c 0
 256 429 311 378 311 297 c 0
 311 216 256 163 176 163 c 0
EndSplineSet
Validated: 1
Substitution2: "'ss01' Style Set 1 lookup 42 subtable" Ntilde.ss01
Substitution2: "'salt' Stylistic Alternatives lookup 41 subtable" Ntilde.ss01
Substitution2: "'c2sc' Capitals to Small Capitals lookup 36 subtable" ntilde.sc
AlternateSubs2: "'aalt' Access All Alternates lookup 1 subtable" ntilde.sc Ntilde.ss01
EndChar

StartChar: O
Encoding: 79 79 130
Width: 352
GlyphClass: 2
Flags: HMW
HStem: 163 266<136 216>
VStem: 41 270<257 337>
LayerCount: 2
Fore
SplineSet
176 163 m 0
 96 163 41 216 41 297 c 0
 41 378 96 429 176 429 c 0
 256 429 311 378 311 297 c 0
 311 216 256 163 176 163 c 0
EndSplineSet
Validated: 1
Substitution2: "Single Substitution lookup 44 subtable" ordmasculine
Substitution2: "'c2sc' Capitals to Small Capitals lookup 36 subtable" o.sc
AlternateSubs2: "'aalt' Access All Alternates lookup 1 subtable" ordmasculine o.sc
EndChar

StartChar: Oacute
Encoding: 211 211 131
Width: 352
GlyphClass: 2
Flags: HMW
HStem: 163 266<136 216>
VStem: 41 270<257 337>
LayerCount: 2
Fore
SplineSet
176 163 m 0
 96 163 41 216 41 297 c 0
 41 378 96 429 176 429 c 0
 256 429 311 378 311 297 c 0
 311 216 256 163 176 163 c 0
EndSplineSet
Validated: 1
Substitution2: "'c2sc' Capitals to Small Capitals lookup 36 subtable" oacute.sc
Substitution2: "'aalt' Access All Alternates lookup 0 subtable" oacute.sc
EndChar

StartChar: Obreve
Encoding: 334 334 132
Width: 352
GlyphClass: 2
Flags: HMW
HStem: 163 266<136 216>
VStem: 41 270<257 337>
LayerCount: 2
Fore
SplineSet
176 163 m 0
 96 163 41 216 41 297 c 0
 41 378 96 429 176 429 c 0
 256 429 311 378 311 297 c 0
 311 216 256 163 176 163 c 0
EndSplineSet
Validated: 1
Substitution2: "'c2sc' Capitals to Small Capitals lookup 36 subtable" obreve.sc
Substitution2: "'aalt' Access All Alternates lookup 0 subtable" obreve.sc
EndChar

StartChar: Ocircumflex
Encoding: 212 212 133
Width: 352
GlyphClass: 2
Flags: HMW
HStem: 163 266<136 216>
VStem: 41 270<257 337>
LayerCount: 2
Fore
SplineSet
176 163 m 0
 96 163 41 216 41 297 c 0
 41 378 96 429 176 429 c 0
 256 429 311 378 311 297 c 0
 311 216 256 163 176 163 c 0
EndSplineSet
Validated: 1
Substitution2: "'c2sc' Capitals to Small Capitals lookup 36 subtable" ocircumflex.sc
Substitution2: "'aalt' Access All Alternates lookup 0 subtable" ocircumflex.sc
EndChar

StartChar: uni1ED0
Encoding: 7888 7888 134
Width: 352
GlyphClass: 2
Flags: HMW
HStem: 163 266<136 216>
VStem: 41 270<257 337>
LayerCount: 2
Fore
SplineSet
176 163 m 0
 96 163 41 216 41 297 c 0
 41 378 96 429 176 429 c 0
 256 429 311 378 311 297 c 0
 311 216 256 163 176 163 c 0
EndSplineSet
Validated: 1
Substitution2: "'c2sc' Capitals to Small Capitals lookup 36 subtable" uni1ED1.sc
Substitution2: "'aalt' Access All Alternates lookup 0 subtable" uni1ED1.sc
EndChar

StartChar: uni1ED8
Encoding: 7896 7896 135
Width: 352
GlyphClass: 2
Flags: HMW
HStem: 163 266<136 216>
VStem: 41 270<257 337>
LayerCount: 2
Fore
SplineSet
176 163 m 0
 96 163 41 216 41 297 c 0
 41 378 96 429 176 429 c 0
 256 429 311 378 311 297 c 0
 311 216 256 163 176 163 c 0
EndSplineSet
Validated: 1
Substitution2: "'c2sc' Capitals to Small Capitals lookup 36 subtable" uni1ED9.sc
Substitution2: "'aalt' Access All Alternates lookup 0 subtable" uni1ED9.sc
EndChar

StartChar: uni1ED2
Encoding: 7890 7890 136
Width: 352
GlyphClass: 2
Flags: HMW
HStem: 163 266<136 216>
VStem: 41 270<257 337>
LayerCount: 2
Fore
SplineSet
176 163 m 0
 96 163 41 216 41 297 c 0
 41 378 96 429 176 429 c 0
 256 429 311 378 311 297 c 0
 311 216 256 163 176 163 c 0
EndSplineSet
Validated: 1
Substitution2: "'c2sc' Capitals to Small Capitals lookup 36 subtable" uni1ED3.sc
Substitution2: "'aalt' Access All Alternates lookup 0 subtable" uni1ED3.sc
EndChar

StartChar: uni1ED4
Encoding: 7892 7892 137
Width: 352
GlyphClass: 2
Flags: HMW
HStem: 163 266<136 216>
VStem: 41 270<257 337>
LayerCount: 2
Fore
SplineSet
176 163 m 0
 96 163 41 216 41 297 c 0
 41 378 96 429 176 429 c 0
 256 429 311 378 311 297 c 0
 311 216 256 163 176 163 c 0
EndSplineSet
Validated: 1
Substitution2: "'c2sc' Capitals to Small Capitals lookup 36 subtable" uni1ED5.sc
Substitution2: "'aalt' Access All Alternates lookup 0 subtable" uni1ED5.sc
EndChar

StartChar: uni1ED6
Encoding: 7894 7894 138
Width: 352
GlyphClass: 2
Flags: HMW
HStem: 163 266<136 216>
VStem: 41 270<257 337>
LayerCount: 2
Fore
SplineSet
176 163 m 0
 96 163 41 216 41 297 c 0
 41 378 96 429 176 429 c 0
 256 429 311 378 311 297 c 0
 311 216 256 163 176 163 c 0
EndSplineSet
Validated: 1
Substitution2: "'c2sc' Capitals to Small Capitals lookup 36 subtable" uni1ED7.sc
Substitution2: "'aalt' Access All Alternates lookup 0 subtable" uni1ED7.sc
EndChar

StartChar: uni020C
Encoding: 524 524 139
Width: 352
GlyphClass: 2
Flags: HMW
HStem: 163 266<136 216>
VStem: 41 270<257 337>
LayerCount: 2
Fore
SplineSet
176 163 m 0
 96 163 41 216 41 297 c 0
 41 378 96 429 176 429 c 0
 256 429 311 378 311 297 c 0
 311 216 256 163 176 163 c 0
EndSplineSet
Validated: 1
Substitution2: "'c2sc' Capitals to Small Capitals lookup 36 subtable" uni020D.sc
Substitution2: "'aalt' Access All Alternates lookup 0 subtable" uni020D.sc
EndChar

StartChar: Odieresis
Encoding: 214 214 140
Width: 352
GlyphClass: 2
Flags: HMW
HStem: 163 266<136 216>
VStem: 41 270<257 337>
LayerCount: 2
Fore
SplineSet
176 163 m 0
 96 163 41 216 41 297 c 0
 41 378 96 429 176 429 c 0
 256 429 311 378 311 297 c 0
 311 216 256 163 176 163 c 0
EndSplineSet
Validated: 1
Substitution2: "'c2sc' Capitals to Small Capitals lookup 36 subtable" odieresis.sc
Substitution2: "'aalt' Access All Alternates lookup 0 subtable" odieresis.sc
EndChar

StartChar: uni022A
Encoding: 554 554 141
Width: 352
GlyphClass: 2
Flags: HMW
HStem: 163 266<136 216>
VStem: 41 270<257 337>
LayerCount: 2
Fore
SplineSet
176 163 m 0
 96 163 41 216 41 297 c 0
 41 378 96 429 176 429 c 0
 256 429 311 378 311 297 c 0
 311 216 256 163 176 163 c 0
EndSplineSet
Validated: 1
Substitution2: "'c2sc' Capitals to Small Capitals lookup 36 subtable" uni022B.sc
Substitution2: "'aalt' Access All Alternates lookup 0 subtable" uni022B.sc
EndChar

StartChar: uni0230
Encoding: 560 560 142
Width: 352
GlyphClass: 2
Flags: HMW
HStem: 163 266<136 216>
VStem: 41 270<257 337>
LayerCount: 2
Fore
SplineSet
176 163 m 0
 96 163 41 216 41 297 c 0
 41 378 96 429 176 429 c 0
 256 429 311 378 311 297 c 0
 311 216 256 163 176 163 c 0
EndSplineSet
Validated: 1
Substitution2: "'c2sc' Capitals to Small Capitals lookup 36 subtable" uni0231.sc
Substitution2: "'aalt' Access All Alternates lookup 0 subtable" uni0231.sc
EndChar

StartChar: uni1ECC
Encoding: 7884 7884 143
Width: 352
GlyphClass: 2
Flags: HMW
HStem: 163 266<136 216>
VStem: 41 270<257 337>
LayerCount: 2
Fore
SplineSet
176 163 m 0
 96 163 41 216 41 297 c 0
 41 378 96 429 176 429 c 0
 256 429 311 378 311 297 c 0
 311 216 256 163 176 163 c 0
EndSplineSet
Validated: 1
Substitution2: "'c2sc' Capitals to Small Capitals lookup 36 subtable" uni1ECD.sc
Substitution2: "'aalt' Access All Alternates lookup 0 subtable" uni1ECD.sc
EndChar

StartChar: Ograve
Encoding: 210 210 144
Width: 352
GlyphClass: 2
Flags: HMW
HStem: 163 266<136 216>
VStem: 41 270<257 337>
LayerCount: 2
Fore
SplineSet
176 163 m 0
 96 163 41 216 41 297 c 0
 41 378 96 429 176 429 c 0
 256 429 311 378 311 297 c 0
 311 216 256 163 176 163 c 0
EndSplineSet
Validated: 1
Substitution2: "'c2sc' Capitals to Small Capitals lookup 36 subtable" ograve.sc
Substitution2: "'aalt' Access All Alternates lookup 0 subtable" ograve.sc
EndChar

StartChar: uni1ECE
Encoding: 7886 7886 145
Width: 352
GlyphClass: 2
Flags: HMW
HStem: 163 266<136 216>
VStem: 41 270<257 337>
LayerCount: 2
Fore
SplineSet
176 163 m 0
 96 163 41 216 41 297 c 0
 41 378 96 429 176 429 c 0
 256 429 311 378 311 297 c 0
 311 216 256 163 176 163 c 0
EndSplineSet
Validated: 1
Substitution2: "'c2sc' Capitals to Small Capitals lookup 36 subtable" uni1ECF.sc
Substitution2: "'aalt' Access All Alternates lookup 0 subtable" uni1ECF.sc
EndChar

StartChar: Ohorn
Encoding: 416 416 146
Width: 352
GlyphClass: 2
Flags: HMW
HStem: 163 266<136 216>
VStem: 41 270<257 337>
LayerCount: 2
Fore
SplineSet
176 163 m 0
 96 163 41 216 41 297 c 0
 41 378 96 429 176 429 c 0
 256 429 311 378 311 297 c 0
 311 216 256 163 176 163 c 0
EndSplineSet
Validated: 1
Substitution2: "'c2sc' Capitals to Small Capitals lookup 36 subtable" ohorn.sc
Substitution2: "'aalt' Access All Alternates lookup 0 subtable" ohorn.sc
EndChar

StartChar: uni1EDA
Encoding: 7898 7898 147
Width: 352
GlyphClass: 2
Flags: HMW
HStem: 163 266<136 216>
VStem: 41 270<257 337>
LayerCount: 2
Fore
SplineSet
176 163 m 0
 96 163 41 216 41 297 c 0
 41 378 96 429 176 429 c 0
 256 429 311 378 311 297 c 0
 311 216 256 163 176 163 c 0
EndSplineSet
Validated: 1
Substitution2: "'c2sc' Capitals to Small Capitals lookup 36 subtable" uni1EDB.sc
Substitution2: "'aalt' Access All Alternates lookup 0 subtable" uni1EDB.sc
EndChar

StartChar: uni1EE2
Encoding: 7906 7906 148
Width: 352
GlyphClass: 2
Flags: HMW
HStem: 163 266<136 216>
VStem: 41 270<257 337>
LayerCount: 2
Fore
SplineSet
176 163 m 0
 96 163 41 216 41 297 c 0
 41 378 96 429 176 429 c 0
 256 429 311 378 311 297 c 0
 311 216 256 163 176 163 c 0
EndSplineSet
Validated: 1
Substitution2: "'c2sc' Capitals to Small Capitals lookup 36 subtable" uni1EE3.sc
Substitution2: "'aalt' Access All Alternates lookup 0 subtable" uni1EE3.sc
EndChar

StartChar: uni1EDC
Encoding: 7900 7900 149
Width: 352
GlyphClass: 2
Flags: HMW
HStem: 163 266<136 216>
VStem: 41 270<257 337>
LayerCount: 2
Fore
SplineSet
176 163 m 0
 96 163 41 216 41 297 c 0
 41 378 96 429 176 429 c 0
 256 429 311 378 311 297 c 0
 311 216 256 163 176 163 c 0
EndSplineSet
Validated: 1
Substitution2: "'c2sc' Capitals to Small Capitals lookup 36 subtable" uni1EDD.sc
Substitution2: "'aalt' Access All Alternates lookup 0 subtable" uni1EDD.sc
EndChar

StartChar: uni1EDE
Encoding: 7902 7902 150
Width: 352
GlyphClass: 2
Flags: HMW
HStem: 163 266<136 216>
VStem: 41 270<257 337>
LayerCount: 2
Fore
SplineSet
176 163 m 0
 96 163 41 216 41 297 c 0
 41 378 96 429 176 429 c 0
 256 429 311 378 311 297 c 0
 311 216 256 163 176 163 c 0
EndSplineSet
Validated: 1
Substitution2: "'c2sc' Capitals to Small Capitals lookup 36 subtable" uni1EDF.sc
Substitution2: "'aalt' Access All Alternates lookup 0 subtable" uni1EDF.sc
EndChar

StartChar: uni1EE0
Encoding: 7904 7904 151
Width: 352
GlyphClass: 2
Flags: HMW
HStem: 163 266<136 216>
VStem: 41 270<257 337>
LayerCount: 2
Fore
SplineSet
176 163 m 0
 96 163 41 216 41 297 c 0
 41 378 96 429 176 429 c 0
 256 429 311 378 311 297 c 0
 311 216 256 163 176 163 c 0
EndSplineSet
Validated: 1
Substitution2: "'c2sc' Capitals to Small Capitals lookup 36 subtable" uni1EE1.sc
Substitution2: "'aalt' Access All Alternates lookup 0 subtable" uni1EE1.sc
EndChar

StartChar: Ohungarumlaut
Encoding: 336 336 152
Width: 352
GlyphClass: 2
Flags: HMW
HStem: 163 266<136 216>
VStem: 41 270<257 337>
LayerCount: 2
Fore
SplineSet
176 163 m 0
 96 163 41 216 41 297 c 0
 41 378 96 429 176 429 c 0
 256 429 311 378 311 297 c 0
 311 216 256 163 176 163 c 0
EndSplineSet
Validated: 1
Substitution2: "'c2sc' Capitals to Small Capitals lookup 36 subtable" ohungarumlaut.sc
Substitution2: "'aalt' Access All Alternates lookup 0 subtable" ohungarumlaut.sc
EndChar

StartChar: uni020E
Encoding: 526 526 153
Width: 352
GlyphClass: 2
Flags: HMW
HStem: 163 266<136 216>
VStem: 41 270<257 337>
LayerCount: 2
Fore
SplineSet
176 163 m 0
 96 163 41 216 41 297 c 0
 41 378 96 429 176 429 c 0
 256 429 311 378 311 297 c 0
 311 216 256 163 176 163 c 0
EndSplineSet
Validated: 1
Substitution2: "'c2sc' Capitals to Small Capitals lookup 36 subtable" uni020F.sc
Substitution2: "'aalt' Access All Alternates lookup 0 subtable" uni020F.sc
EndChar

StartChar: Omacron
Encoding: 332 332 154
Width: 352
GlyphClass: 2
Flags: HMW
HStem: 163 266<136 216>
VStem: 41 270<257 337>
LayerCount: 2
Fore
SplineSet
176 163 m 0
 96 163 41 216 41 297 c 0
 41 378 96 429 176 429 c 0
 256 429 311 378 311 297 c 0
 311 216 256 163 176 163 c 0
EndSplineSet
Validated: 1
Substitution2: "'c2sc' Capitals to Small Capitals lookup 36 subtable" omacron.sc
Substitution2: "'aalt' Access All Alternates lookup 0 subtable" omacron.sc
EndChar

StartChar: uni1E52
Encoding: 7762 7762 155
Width: 352
GlyphClass: 2
Flags: HMW
HStem: 163 266<136 216>
VStem: 41 270<257 337>
LayerCount: 2
Fore
SplineSet
176 163 m 0
 96 163 41 216 41 297 c 0
 41 378 96 429 176 429 c 0
 256 429 311 378 311 297 c 0
 311 216 256 163 176 163 c 0
EndSplineSet
Validated: 1
Substitution2: "'c2sc' Capitals to Small Capitals lookup 36 subtable" uni1E53.sc
Substitution2: "'aalt' Access All Alternates lookup 0 subtable" uni1E53.sc
EndChar

StartChar: uni1E50
Encoding: 7760 7760 156
Width: 352
GlyphClass: 2
Flags: HMW
HStem: 163 266<136 216>
VStem: 41 270<257 337>
LayerCount: 2
Fore
SplineSet
176 163 m 0
 96 163 41 216 41 297 c 0
 41 378 96 429 176 429 c 0
 256 429 311 378 311 297 c 0
 311 216 256 163 176 163 c 0
EndSplineSet
Validated: 1
Substitution2: "'c2sc' Capitals to Small Capitals lookup 36 subtable" uni1E51.sc
Substitution2: "'aalt' Access All Alternates lookup 0 subtable" uni1E51.sc
EndChar

StartChar: uni01EA
Encoding: 490 490 157
Width: 352
GlyphClass: 2
Flags: HMW
HStem: 163 266<136 216>
VStem: 41 270<257 337>
LayerCount: 2
Fore
SplineSet
176 163 m 0
 96 163 41 216 41 297 c 0
 41 378 96 429 176 429 c 0
 256 429 311 378 311 297 c 0
 311 216 256 163 176 163 c 0
EndSplineSet
Validated: 1
Substitution2: "'c2sc' Capitals to Small Capitals lookup 36 subtable" uni01EB.sc
Substitution2: "'aalt' Access All Alternates lookup 0 subtable" uni01EB.sc
EndChar

StartChar: Oslash
Encoding: 216 216 158
Width: 352
GlyphClass: 2
Flags: HMW
HStem: 163 266<136 216>
VStem: 41 270<257 337>
LayerCount: 2
Fore
SplineSet
176 163 m 0
 96 163 41 216 41 297 c 0
 41 378 96 429 176 429 c 0
 256 429 311 378 311 297 c 0
 311 216 256 163 176 163 c 0
EndSplineSet
Validated: 1
Substitution2: "'c2sc' Capitals to Small Capitals lookup 36 subtable" oslash.sc
Substitution2: "'aalt' Access All Alternates lookup 0 subtable" oslash.sc
EndChar

StartChar: Oslashacute
Encoding: 510 510 159
Width: 352
GlyphClass: 2
Flags: HMW
HStem: 163 266<136 216>
VStem: 41 270<257 337>
LayerCount: 2
Fore
SplineSet
176 163 m 0
 96 163 41 216 41 297 c 0
 41 378 96 429 176 429 c 0
 256 429 311 378 311 297 c 0
 311 216 256 163 176 163 c 0
EndSplineSet
Validated: 1
Substitution2: "'c2sc' Capitals to Small Capitals lookup 36 subtable" oslashacute.sc
Substitution2: "'aalt' Access All Alternates lookup 0 subtable" oslashacute.sc
EndChar

StartChar: Otilde
Encoding: 213 213 160
Width: 352
GlyphClass: 2
Flags: HMW
HStem: 163 266<136 216>
VStem: 41 270<257 337>
LayerCount: 2
Fore
SplineSet
176 163 m 0
 96 163 41 216 41 297 c 0
 41 378 96 429 176 429 c 0
 256 429 311 378 311 297 c 0
 311 216 256 163 176 163 c 0
EndSplineSet
Validated: 1
Substitution2: "'c2sc' Capitals to Small Capitals lookup 36 subtable" otilde.sc
Substitution2: "'aalt' Access All Alternates lookup 0 subtable" otilde.sc
EndChar

StartChar: uni1E4C
Encoding: 7756 7756 161
Width: 352
GlyphClass: 2
Flags: HMW
HStem: 163 266<136 216>
VStem: 41 270<257 337>
LayerCount: 2
Fore
SplineSet
176 163 m 0
 96 163 41 216 41 297 c 0
 41 378 96 429 176 429 c 0
 256 429 311 378 311 297 c 0
 311 216 256 163 176 163 c 0
EndSplineSet
Validated: 1
Substitution2: "'c2sc' Capitals to Small Capitals lookup 36 subtable" uni1E4D.sc
Substitution2: "'aalt' Access All Alternates lookup 0 subtable" uni1E4D.sc
EndChar

StartChar: uni1E4E
Encoding: 7758 7758 162
Width: 352
GlyphClass: 2
Flags: HMW
HStem: 163 266<136 216>
VStem: 41 270<257 337>
LayerCount: 2
Fore
SplineSet
176 163 m 0
 96 163 41 216 41 297 c 0
 41 378 96 429 176 429 c 0
 256 429 311 378 311 297 c 0
 311 216 256 163 176 163 c 0
EndSplineSet
Validated: 1
Substitution2: "'c2sc' Capitals to Small Capitals lookup 36 subtable" uni1E4F.sc
Substitution2: "'aalt' Access All Alternates lookup 0 subtable" uni1E4F.sc
EndChar

StartChar: uni022C
Encoding: 556 556 163
Width: 352
GlyphClass: 2
Flags: HMW
HStem: 163 266<136 216>
VStem: 41 270<257 337>
LayerCount: 2
Fore
SplineSet
176 163 m 0
 96 163 41 216 41 297 c 0
 41 378 96 429 176 429 c 0
 256 429 311 378 311 297 c 0
 311 216 256 163 176 163 c 0
EndSplineSet
Validated: 1
Substitution2: "'c2sc' Capitals to Small Capitals lookup 36 subtable" uni022D.sc
Substitution2: "'aalt' Access All Alternates lookup 0 subtable" uni022D.sc
EndChar

StartChar: OE
Encoding: 338 338 164
Width: 352
GlyphClass: 2
Flags: HMW
HStem: 163 266<136 216>
VStem: 41 270<257 337>
LayerCount: 2
Fore
SplineSet
176 163 m 0
 96 163 41 216 41 297 c 0
 41 378 96 429 176 429 c 0
 256 429 311 378 311 297 c 0
 311 216 256 163 176 163 c 0
EndSplineSet
Validated: 1
Substitution2: "'c2sc' Capitals to Small Capitals lookup 36 subtable" oe.sc
Substitution2: "'aalt' Access All Alternates lookup 0 subtable" oe.sc
EndChar

StartChar: P
Encoding: 80 80 165
Width: 352
GlyphClass: 1
Flags: HMW
HStem: 163 266<136 216>
VStem: 41 270<257 337>
LayerCount: 2
Fore
SplineSet
176 163 m 0
 96 163 41 216 41 297 c 0
 41 378 96 429 176 429 c 0
 256 429 311 378 311 297 c 0
 311 216 256 163 176 163 c 0
EndSplineSet
Validated: 1
Substitution2: "'c2sc' Capitals to Small Capitals lookup 36 subtable" p.sc
Substitution2: "'aalt' Access All Alternates lookup 0 subtable" p.sc
EndChar

StartChar: Thorn
Encoding: 222 222 166
Width: 352
GlyphClass: 1
Flags: HMW
HStem: 163 266<136 216>
VStem: 41 270<257 337>
LayerCount: 2
Fore
SplineSet
176 163 m 0
 96 163 41 216 41 297 c 0
 41 378 96 429 176 429 c 0
 256 429 311 378 311 297 c 0
 311 216 256 163 176 163 c 0
EndSplineSet
Validated: 1
Substitution2: "'c2sc' Capitals to Small Capitals lookup 36 subtable" thorn.sc
Substitution2: "'aalt' Access All Alternates lookup 0 subtable" thorn.sc
EndChar

StartChar: Q
Encoding: 81 81 167
Width: 352
GlyphClass: 2
Flags: HMW
HStem: 163 266<136 216>
VStem: 41 270<257 337>
LayerCount: 2
Fore
SplineSet
176 163 m 0
 96 163 41 216 41 297 c 0
 41 378 96 429 176 429 c 0
 256 429 311 378 311 297 c 0
 311 216 256 163 176 163 c 0
EndSplineSet
Validated: 1
Substitution2: "'ss01' Style Set 1 lookup 42 subtable" Q.ss01
Substitution2: "'salt' Stylistic Alternatives lookup 41 subtable" Q.ss01
Substitution2: "'c2sc' Capitals to Small Capitals lookup 36 subtable" q.sc
AlternateSubs2: "'aalt' Access All Alternates lookup 1 subtable" q.sc Q.ss01
EndChar

StartChar: R
Encoding: 82 82 168
Width: 352
GlyphClass: 2
Flags: HMW
HStem: 163 266<136 216>
VStem: 41 270<257 337>
LayerCount: 2
Fore
SplineSet
176 163 m 0
 96 163 41 216 41 297 c 0
 41 378 96 429 176 429 c 0
 256 429 311 378 311 297 c 0
 311 216 256 163 176 163 c 0
EndSplineSet
Validated: 1
Substitution2: "'c2sc' Capitals to Small Capitals lookup 36 subtable" r.sc
Substitution2: "'aalt' Access All Alternates lookup 0 subtable" r.sc
EndChar

StartChar: Racute
Encoding: 340 340 169
Width: 352
GlyphClass: 2
Flags: HMW
HStem: 163 266<136 216>
VStem: 41 270<257 337>
LayerCount: 2
Fore
SplineSet
176 163 m 0
 96 163 41 216 41 297 c 0
 41 378 96 429 176 429 c 0
 256 429 311 378 311 297 c 0
 311 216 256 163 176 163 c 0
EndSplineSet
Validated: 1
Substitution2: "'c2sc' Capitals to Small Capitals lookup 36 subtable" racute.sc
Substitution2: "'aalt' Access All Alternates lookup 0 subtable" racute.sc
EndChar

StartChar: Rcaron
Encoding: 344 344 170
Width: 352
GlyphClass: 2
Flags: HMW
HStem: 163 266<136 216>
VStem: 41 270<257 337>
LayerCount: 2
Fore
SplineSet
176 163 m 0
 96 163 41 216 41 297 c 0
 41 378 96 429 176 429 c 0
 256 429 311 378 311 297 c 0
 311 216 256 163 176 163 c 0
EndSplineSet
Validated: 1
Substitution2: "'c2sc' Capitals to Small Capitals lookup 36 subtable" rcaron.sc
Substitution2: "'aalt' Access All Alternates lookup 0 subtable" rcaron.sc
EndChar

StartChar: Rcommaaccent
Encoding: 342 342 171
Width: 352
GlyphClass: 2
Flags: HMW
HStem: 163 266<136 216>
VStem: 41 270<257 337>
LayerCount: 2
Fore
SplineSet
176 163 m 0
 96 163 41 216 41 297 c 0
 41 378 96 429 176 429 c 0
 256 429 311 378 311 297 c 0
 311 216 256 163 176 163 c 0
EndSplineSet
Validated: 1
Substitution2: "'c2sc' Capitals to Small Capitals lookup 36 subtable" rcommaaccent.sc
Substitution2: "'aalt' Access All Alternates lookup 0 subtable" rcommaaccent.sc
EndChar

StartChar: uni0210
Encoding: 528 528 172
Width: 352
GlyphClass: 2
Flags: HMW
HStem: 163 266<136 216>
VStem: 41 270<257 337>
LayerCount: 2
Fore
SplineSet
176 163 m 0
 96 163 41 216 41 297 c 0
 41 378 96 429 176 429 c 0
 256 429 311 378 311 297 c 0
 311 216 256 163 176 163 c 0
EndSplineSet
Validated: 1
Substitution2: "'c2sc' Capitals to Small Capitals lookup 36 subtable" uni0211.sc
Substitution2: "'aalt' Access All Alternates lookup 0 subtable" uni0211.sc
EndChar

StartChar: uni1E5A
Encoding: 7770 7770 173
Width: 352
GlyphClass: 2
Flags: HMW
HStem: 163 266<136 216>
VStem: 41 270<257 337>
LayerCount: 2
Fore
SplineSet
176 163 m 0
 96 163 41 216 41 297 c 0
 41 378 96 429 176 429 c 0
 256 429 311 378 311 297 c 0
 311 216 256 163 176 163 c 0
EndSplineSet
Validated: 1
Substitution2: "'c2sc' Capitals to Small Capitals lookup 36 subtable" uni1E5B.sc
Substitution2: "'aalt' Access All Alternates lookup 0 subtable" uni1E5B.sc
EndChar

StartChar: uni0212
Encoding: 530 530 174
Width: 352
GlyphClass: 2
Flags: HMW
HStem: 163 266<136 216>
VStem: 41 270<257 337>
LayerCount: 2
Fore
SplineSet
176 163 m 0
 96 163 41 216 41 297 c 0
 41 378 96 429 176 429 c 0
 256 429 311 378 311 297 c 0
 311 216 256 163 176 163 c 0
EndSplineSet
Validated: 1
Substitution2: "'c2sc' Capitals to Small Capitals lookup 36 subtable" uni0213.sc
Substitution2: "'aalt' Access All Alternates lookup 0 subtable" uni0213.sc
EndChar

StartChar: uni1E5E
Encoding: 7774 7774 175
Width: 352
GlyphClass: 2
Flags: HMW
HStem: 163 266<136 216>
VStem: 41 270<257 337>
LayerCount: 2
Fore
SplineSet
176 163 m 0
 96 163 41 216 41 297 c 0
 41 378 96 429 176 429 c 0
 256 429 311 378 311 297 c 0
 311 216 256 163 176 163 c 0
EndSplineSet
Validated: 1
Substitution2: "'c2sc' Capitals to Small Capitals lookup 36 subtable" uni1E5F.sc
Substitution2: "'aalt' Access All Alternates lookup 0 subtable" uni1E5F.sc
EndChar

StartChar: S
Encoding: 83 83 176
Width: 352
GlyphClass: 2
Flags: HMW
HStem: 163 266<136 216>
VStem: 41 270<257 337>
LayerCount: 2
Fore
SplineSet
176 163 m 0
 96 163 41 216 41 297 c 0
 41 378 96 429 176 429 c 0
 256 429 311 378 311 297 c 0
 311 216 256 163 176 163 c 0
EndSplineSet
Validated: 1
Substitution2: "'c2sc' Capitals to Small Capitals lookup 36 subtable" s.sc
Substitution2: "'aalt' Access All Alternates lookup 0 subtable" s.sc
EndChar

StartChar: Sacute
Encoding: 346 346 177
Width: 352
GlyphClass: 2
Flags: HMW
HStem: 163 266<136 216>
VStem: 41 270<257 337>
LayerCount: 2
Fore
SplineSet
176 163 m 0
 96 163 41 216 41 297 c 0
 41 378 96 429 176 429 c 0
 256 429 311 378 311 297 c 0
 311 216 256 163 176 163 c 0
EndSplineSet
Validated: 1
Substitution2: "'c2sc' Capitals to Small Capitals lookup 36 subtable" sacute.sc
Substitution2: "'aalt' Access All Alternates lookup 0 subtable" sacute.sc
EndChar

StartChar: uni1E64
Encoding: 7780 7780 178
Width: 352
GlyphClass: 2
Flags: HMW
HStem: 163 266<136 216>
VStem: 41 270<257 337>
LayerCount: 2
Fore
SplineSet
176 163 m 0
 96 163 41 216 41 297 c 0
 41 378 96 429 176 429 c 0
 256 429 311 378 311 297 c 0
 311 216 256 163 176 163 c 0
EndSplineSet
Validated: 1
Substitution2: "'c2sc' Capitals to Small Capitals lookup 36 subtable" uni1E65.sc
Substitution2: "'aalt' Access All Alternates lookup 0 subtable" uni1E65.sc
EndChar

StartChar: uniA78B
Encoding: 42891 42891 179
Width: 352
GlyphClass: 1
Flags: HMW
HStem: 163 266<136 216>
VStem: 41 270<257 337>
LayerCount: 2
Fore
SplineSet
176 163 m 0
 96 163 41 216 41 297 c 0
 41 378 96 429 176 429 c 0
 256 429 311 378 311 297 c 0
 311 216 256 163 176 163 c 0
EndSplineSet
Validated: 1
Substitution2: "'c2sc' Capitals to Small Capitals lookup 36 subtable" uniA78C.sc
Substitution2: "'aalt' Access All Alternates lookup 0 subtable" uniA78C.sc
EndChar

StartChar: Scaron
Encoding: 352 352 180
Width: 352
GlyphClass: 2
Flags: HMW
HStem: 163 266<136 216>
VStem: 41 270<257 337>
LayerCount: 2
Fore
SplineSet
176 163 m 0
 96 163 41 216 41 297 c 0
 41 378 96 429 176 429 c 0
 256 429 311 378 311 297 c 0
 311 216 256 163 176 163 c 0
EndSplineSet
Validated: 1
Substitution2: "'c2sc' Capitals to Small Capitals lookup 36 subtable" scaron.sc
Substitution2: "'aalt' Access All Alternates lookup 0 subtable" scaron.sc
EndChar

StartChar: uni1E66
Encoding: 7782 7782 181
Width: 352
GlyphClass: 2
Flags: HMW
HStem: 163 266<136 216>
VStem: 41 270<257 337>
LayerCount: 2
Fore
SplineSet
176 163 m 0
 96 163 41 216 41 297 c 0
 41 378 96 429 176 429 c 0
 256 429 311 378 311 297 c 0
 311 216 256 163 176 163 c 0
EndSplineSet
Validated: 1
Substitution2: "'c2sc' Capitals to Small Capitals lookup 36 subtable" uni1E67.sc
Substitution2: "'aalt' Access All Alternates lookup 0 subtable" uni1E67.sc
EndChar

StartChar: Scedilla
Encoding: 350 350 182
Width: 352
GlyphClass: 2
Flags: HMW
HStem: 163 266<136 216>
VStem: 41 270<257 337>
LayerCount: 2
Fore
SplineSet
176 163 m 0
 96 163 41 216 41 297 c 0
 41 378 96 429 176 429 c 0
 256 429 311 378 311 297 c 0
 311 216 256 163 176 163 c 0
EndSplineSet
Validated: 1
Substitution2: "'c2sc' Capitals to Small Capitals lookup 36 subtable" scedilla.sc
Substitution2: "'locl' Localized Forms in Latin lookup 11 subtable" Scommaaccent
Substitution2: "'locl' Localized Forms in Latin lookup 10 subtable" Scommaaccent
AlternateSubs2: "'aalt' Access All Alternates lookup 1 subtable" Scommaaccent scedilla.sc
EndChar

StartChar: Scircumflex
Encoding: 348 348 183
Width: 352
GlyphClass: 2
Flags: HMW
HStem: 163 266<136 216>
VStem: 41 270<257 337>
LayerCount: 2
Fore
SplineSet
176 163 m 0
 96 163 41 216 41 297 c 0
 41 378 96 429 176 429 c 0
 256 429 311 378 311 297 c 0
 311 216 256 163 176 163 c 0
EndSplineSet
Validated: 1
Substitution2: "'c2sc' Capitals to Small Capitals lookup 36 subtable" scircumflex.sc
Substitution2: "'aalt' Access All Alternates lookup 0 subtable" scircumflex.sc
EndChar

StartChar: Scommaaccent
Encoding: 536 536 184
Width: 352
GlyphClass: 2
Flags: HMW
HStem: 163 266<136 216>
VStem: 41 270<257 337>
LayerCount: 2
Fore
SplineSet
176 163 m 0
 96 163 41 216 41 297 c 0
 41 378 96 429 176 429 c 0
 256 429 311 378 311 297 c 0
 311 216 256 163 176 163 c 0
EndSplineSet
Validated: 1
Substitution2: "'c2sc' Capitals to Small Capitals lookup 36 subtable" scommaaccent.sc
Substitution2: "'aalt' Access All Alternates lookup 0 subtable" scommaaccent.sc
EndChar

StartChar: uni1E60
Encoding: 7776 7776 185
Width: 352
GlyphClass: 2
Flags: HMW
HStem: 163 266<136 216>
VStem: 41 270<257 337>
LayerCount: 2
Fore
SplineSet
176 163 m 0
 96 163 41 216 41 297 c 0
 41 378 96 429 176 429 c 0
 256 429 311 378 311 297 c 0
 311 216 256 163 176 163 c 0
EndSplineSet
Validated: 1
Substitution2: "'c2sc' Capitals to Small Capitals lookup 36 subtable" uni1E61.sc
Substitution2: "'aalt' Access All Alternates lookup 0 subtable" uni1E61.sc
EndChar

StartChar: uni1E62
Encoding: 7778 7778 186
Width: 352
GlyphClass: 2
Flags: HMW
HStem: 163 266<136 216>
VStem: 41 270<257 337>
LayerCount: 2
Fore
SplineSet
176 163 m 0
 96 163 41 216 41 297 c 0
 41 378 96 429 176 429 c 0
 256 429 311 378 311 297 c 0
 311 216 256 163 176 163 c 0
EndSplineSet
Validated: 1
Substitution2: "'c2sc' Capitals to Small Capitals lookup 36 subtable" uni1E63.sc
Substitution2: "'aalt' Access All Alternates lookup 0 subtable" uni1E63.sc
EndChar

StartChar: uni1E68
Encoding: 7784 7784 187
Width: 352
GlyphClass: 2
Flags: HMW
HStem: 163 266<136 216>
VStem: 41 270<257 337>
LayerCount: 2
Fore
SplineSet
176 163 m 0
 96 163 41 216 41 297 c 0
 41 378 96 429 176 429 c 0
 256 429 311 378 311 297 c 0
 311 216 256 163 176 163 c 0
EndSplineSet
Validated: 1
Substitution2: "'c2sc' Capitals to Small Capitals lookup 36 subtable" uni1E69.sc
Substitution2: "'aalt' Access All Alternates lookup 0 subtable" uni1E69.sc
EndChar

StartChar: uni1E9E
Encoding: 7838 7838 188
Width: 352
GlyphClass: 1
Flags: HMW
HStem: 163 266<136 216>
VStem: 41 270<257 337>
LayerCount: 2
Fore
SplineSet
176 163 m 0
 96 163 41 216 41 297 c 0
 41 378 96 429 176 429 c 0
 256 429 311 378 311 297 c 0
 311 216 256 163 176 163 c 0
EndSplineSet
Validated: 1
Substitution2: "'c2sc' Capitals to Small Capitals lookup 36 subtable" germandbls.sc
Substitution2: "'aalt' Access All Alternates lookup 0 subtable" germandbls.sc
EndChar

StartChar: uni018F
Encoding: 399 399 189
Width: 352
GlyphClass: 2
Flags: HMW
HStem: 163 266<136 216>
VStem: 41 270<257 337>
LayerCount: 2
Fore
SplineSet
176 163 m 0
 96 163 41 216 41 297 c 0
 41 378 96 429 176 429 c 0
 256 429 311 378 311 297 c 0
 311 216 256 163 176 163 c 0
EndSplineSet
Validated: 1
Substitution2: "'ss01' Style Set 1 lookup 42 subtable" uni018F.ss01
Substitution2: "'salt' Stylistic Alternatives lookup 41 subtable" uni018F.ss01
Substitution2: "'c2sc' Capitals to Small Capitals lookup 36 subtable" uni0259.sc
AlternateSubs2: "'aalt' Access All Alternates lookup 1 subtable" uni0259.sc uni018F.ss01
EndChar

StartChar: T
Encoding: 84 84 190
Width: 352
GlyphClass: 2
Flags: HMW
HStem: 163 266<136 216>
VStem: 41 270<257 337>
LayerCount: 2
Fore
SplineSet
176 163 m 0
 96 163 41 216 41 297 c 0
 41 378 96 429 176 429 c 0
 256 429 311 378 311 297 c 0
 311 216 256 163 176 163 c 0
EndSplineSet
Validated: 1
Substitution2: "'ss01' Style Set 1 lookup 42 subtable" T.ss01
Substitution2: "'salt' Stylistic Alternatives lookup 41 subtable" T.ss01
Substitution2: "'c2sc' Capitals to Small Capitals lookup 36 subtable" t.sc
AlternateSubs2: "'aalt' Access All Alternates lookup 1 subtable" t.sc T.ss01
EndChar

StartChar: Tbar
Encoding: 358 358 191
Width: 352
GlyphClass: 2
Flags: HMW
HStem: 163 266<136 216>
VStem: 41 270<257 337>
LayerCount: 2
Fore
SplineSet
176 163 m 0
 96 163 41 216 41 297 c 0
 41 378 96 429 176 429 c 0
 256 429 311 378 311 297 c 0
 311 216 256 163 176 163 c 0
EndSplineSet
Validated: 1
Substitution2: "'ss01' Style Set 1 lookup 42 subtable" Tbar.ss01
Substitution2: "'salt' Stylistic Alternatives lookup 41 subtable" Tbar.ss01
Substitution2: "'c2sc' Capitals to Small Capitals lookup 36 subtable" tbar.sc
AlternateSubs2: "'aalt' Access All Alternates lookup 1 subtable" tbar.sc Tbar.ss01
EndChar

StartChar: Tcaron
Encoding: 356 356 192
Width: 352
GlyphClass: 2
Flags: HMW
HStem: 163 266<136 216>
VStem: 41 270<257 337>
LayerCount: 2
Fore
SplineSet
176 163 m 0
 96 163 41 216 41 297 c 0
 41 378 96 429 176 429 c 0
 256 429 311 378 311 297 c 0
 311 216 256 163 176 163 c 0
EndSplineSet
Validated: 1
Substitution2: "'ss01' Style Set 1 lookup 42 subtable" Tcaron.ss01
Substitution2: "'salt' Stylistic Alternatives lookup 41 subtable" Tcaron.ss01
Substitution2: "'c2sc' Capitals to Small Capitals lookup 36 subtable" tcaron.sc
AlternateSubs2: "'aalt' Access All Alternates lookup 1 subtable" tcaron.sc Tcaron.ss01
EndChar

StartChar: uni0162
Encoding: 354 354 193
Width: 352
GlyphClass: 2
Flags: HMW
HStem: 163 266<136 216>
VStem: 41 270<257 337>
LayerCount: 2
Fore
SplineSet
176 163 m 0
 96 163 41 216 41 297 c 0
 41 378 96 429 176 429 c 0
 256 429 311 378 311 297 c 0
 311 216 256 163 176 163 c 0
EndSplineSet
Validated: 1
Substitution2: "'ss01' Style Set 1 lookup 42 subtable" uni0162.ss01
Substitution2: "'salt' Stylistic Alternatives lookup 41 subtable" uni0162.ss01
Substitution2: "'c2sc' Capitals to Small Capitals lookup 36 subtable" uni0163.sc
Substitution2: "'locl' Localized Forms in Latin lookup 11 subtable" uni021A
Substitution2: "'locl' Localized Forms in Latin lookup 10 subtable" uni021A
AlternateSubs2: "'aalt' Access All Alternates lookup 1 subtable" uni021A uni0163.sc uni0162.ss01
EndChar

StartChar: uni021A
Encoding: 538 538 194
Width: 352
GlyphClass: 2
Flags: HMW
HStem: 163 266<136 216>
VStem: 41 270<257 337>
LayerCount: 2
Fore
SplineSet
176 163 m 0
 96 163 41 216 41 297 c 0
 41 378 96 429 176 429 c 0
 256 429 311 378 311 297 c 0
 311 216 256 163 176 163 c 0
EndSplineSet
Validated: 1
Substitution2: "'ss01' Style Set 1 lookup 42 subtable" uni021A.ss01
Substitution2: "'salt' Stylistic Alternatives lookup 41 subtable" uni021A.ss01
Substitution2: "'c2sc' Capitals to Small Capitals lookup 36 subtable" uni021B.sc
AlternateSubs2: "'aalt' Access All Alternates lookup 1 subtable" uni021B.sc uni021A.ss01
EndChar

StartChar: uni1E6C
Encoding: 7788 7788 195
Width: 352
GlyphClass: 2
Flags: HMW
HStem: 163 266<136 216>
VStem: 41 270<257 337>
LayerCount: 2
Fore
SplineSet
176 163 m 0
 96 163 41 216 41 297 c 0
 41 378 96 429 176 429 c 0
 256 429 311 378 311 297 c 0
 311 216 256 163 176 163 c 0
EndSplineSet
Validated: 1
Substitution2: "'ss01' Style Set 1 lookup 42 subtable" uni1E6C.ss01
Substitution2: "'salt' Stylistic Alternatives lookup 41 subtable" uni1E6C.ss01
Substitution2: "'c2sc' Capitals to Small Capitals lookup 36 subtable" uni1E6D.sc
AlternateSubs2: "'aalt' Access All Alternates lookup 1 subtable" uni1E6D.sc uni1E6C.ss01
EndChar

StartChar: uni1E6E
Encoding: 7790 7790 196
Width: 352
GlyphClass: 2
Flags: HMW
HStem: 163 266<136 216>
VStem: 41 270<257 337>
LayerCount: 2
Fore
SplineSet
176 163 m 0
 96 163 41 216 41 297 c 0
 41 378 96 429 176 429 c 0
 256 429 311 378 311 297 c 0
 311 216 256 163 176 163 c 0
EndSplineSet
Validated: 1
Substitution2: "'ss01' Style Set 1 lookup 42 subtable" uni1E6E.ss01
Substitution2: "'salt' Stylistic Alternatives lookup 41 subtable" uni1E6E.ss01
Substitution2: "'c2sc' Capitals to Small Capitals lookup 36 subtable" uni1E6F.sc
AlternateSubs2: "'aalt' Access All Alternates lookup 1 subtable" uni1E6F.sc uni1E6E.ss01
EndChar

StartChar: U
Encoding: 85 85 197
Width: 352
GlyphClass: 2
Flags: HMW
HStem: 163 266<136 216>
VStem: 41 270<257 337>
LayerCount: 2
Fore
SplineSet
176 163 m 0
 96 163 41 216 41 297 c 0
 41 378 96 429 176 429 c 0
 256 429 311 378 311 297 c 0
 311 216 256 163 176 163 c 0
EndSplineSet
Validated: 1
Substitution2: "'ss01' Style Set 1 lookup 42 subtable" U.ss01
Substitution2: "'salt' Stylistic Alternatives lookup 41 subtable" U.ss01
Substitution2: "'c2sc' Capitals to Small Capitals lookup 36 subtable" u.sc
AlternateSubs2: "'aalt' Access All Alternates lookup 1 subtable" u.sc U.ss01
EndChar

StartChar: Uacute
Encoding: 218 218 198
Width: 352
GlyphClass: 2
Flags: HMW
HStem: 163 266<136 216>
VStem: 41 270<257 337>
LayerCount: 2
Fore
SplineSet
176 163 m 0
 96 163 41 216 41 297 c 0
 41 378 96 429 176 429 c 0
 256 429 311 378 311 297 c 0
 311 216 256 163 176 163 c 0
EndSplineSet
Validated: 1
Substitution2: "'ss01' Style Set 1 lookup 42 subtable" Uacute.ss01
Substitution2: "'salt' Stylistic Alternatives lookup 41 subtable" Uacute.ss01
Substitution2: "'c2sc' Capitals to Small Capitals lookup 36 subtable" uacute.sc
AlternateSubs2: "'aalt' Access All Alternates lookup 1 subtable" uacute.sc Uacute.ss01
EndChar

StartChar: Ubreve
Encoding: 364 364 199
Width: 352
GlyphClass: 2
Flags: HMW
HStem: 163 266<136 216>
VStem: 41 270<257 337>
LayerCount: 2
Fore
SplineSet
176 163 m 0
 96 163 41 216 41 297 c 0
 41 378 96 429 176 429 c 0
 256 429 311 378 311 297 c 0
 311 216 256 163 176 163 c 0
EndSplineSet
Validated: 1
Substitution2: "'ss01' Style Set 1 lookup 42 subtable" Ubreve.ss01
Substitution2: "'salt' Stylistic Alternatives lookup 41 subtable" Ubreve.ss01
Substitution2: "'c2sc' Capitals to Small Capitals lookup 36 subtable" ubreve.sc
AlternateSubs2: "'aalt' Access All Alternates lookup 1 subtable" ubreve.sc Ubreve.ss01
EndChar

StartChar: uni01D3
Encoding: 467 467 200
Width: 352
GlyphClass: 2
Flags: HMW
HStem: 163 266<136 216>
VStem: 41 270<257 337>
LayerCount: 2
Fore
SplineSet
176 163 m 0
 96 163 41 216 41 297 c 0
 41 378 96 429 176 429 c 0
 256 429 311 378 311 297 c 0
 311 216 256 163 176 163 c 0
EndSplineSet
Validated: 1
Substitution2: "'ss01' Style Set 1 lookup 42 subtable" uni01D3.ss01
Substitution2: "'salt' Stylistic Alternatives lookup 41 subtable" uni01D3.ss01
Substitution2: "'c2sc' Capitals to Small Capitals lookup 36 subtable" uni01D4.sc
AlternateSubs2: "'aalt' Access All Alternates lookup 1 subtable" uni01D4.sc uni01D3.ss01
EndChar

StartChar: Ucircumflex
Encoding: 219 219 201
Width: 352
GlyphClass: 2
Flags: HMW
HStem: 163 266<136 216>
VStem: 41 270<257 337>
LayerCount: 2
Fore
SplineSet
176 163 m 0
 96 163 41 216 41 297 c 0
 41 378 96 429 176 429 c 0
 256 429 311 378 311 297 c 0
 311 216 256 163 176 163 c 0
EndSplineSet
Validated: 1
Substitution2: "'ss01' Style Set 1 lookup 42 subtable" Ucircumflex.ss01
Substitution2: "'salt' Stylistic Alternatives lookup 41 subtable" Ucircumflex.ss01
Substitution2: "'c2sc' Capitals to Small Capitals lookup 36 subtable" ucircumflex.sc
AlternateSubs2: "'aalt' Access All Alternates lookup 1 subtable" ucircumflex.sc Ucircumflex.ss01
EndChar

StartChar: uni0214
Encoding: 532 532 202
Width: 352
GlyphClass: 2
Flags: HMW
HStem: 163 266<136 216>
VStem: 41 270<257 337>
LayerCount: 2
Fore
SplineSet
176 163 m 0
 96 163 41 216 41 297 c 0
 41 378 96 429 176 429 c 0
 256 429 311 378 311 297 c 0
 311 216 256 163 176 163 c 0
EndSplineSet
Validated: 1
Substitution2: "'ss01' Style Set 1 lookup 42 subtable" uni0214.ss01
Substitution2: "'salt' Stylistic Alternatives lookup 41 subtable" uni0214.ss01
Substitution2: "'c2sc' Capitals to Small Capitals lookup 36 subtable" uni0215.sc
AlternateSubs2: "'aalt' Access All Alternates lookup 1 subtable" uni0215.sc uni0214.ss01
EndChar

StartChar: Udieresis
Encoding: 220 220 203
Width: 352
GlyphClass: 2
Flags: HMW
HStem: 163 266<136 216>
VStem: 41 270<257 337>
LayerCount: 2
Fore
SplineSet
176 163 m 0
 96 163 41 216 41 297 c 0
 41 378 96 429 176 429 c 0
 256 429 311 378 311 297 c 0
 311 216 256 163 176 163 c 0
EndSplineSet
Validated: 1
Substitution2: "'ss01' Style Set 1 lookup 42 subtable" Udieresis.ss01
Substitution2: "'salt' Stylistic Alternatives lookup 41 subtable" Udieresis.ss01
Substitution2: "'c2sc' Capitals to Small Capitals lookup 36 subtable" udieresis.sc
AlternateSubs2: "'aalt' Access All Alternates lookup 1 subtable" udieresis.sc Udieresis.ss01
EndChar

StartChar: uni1EE4
Encoding: 7908 7908 204
Width: 352
GlyphClass: 2
Flags: HMW
HStem: 163 266<136 216>
VStem: 41 270<257 337>
LayerCount: 2
Fore
SplineSet
176 163 m 0
 96 163 41 216 41 297 c 0
 41 378 96 429 176 429 c 0
 256 429 311 378 311 297 c 0
 311 216 256 163 176 163 c 0
EndSplineSet
Validated: 1
Substitution2: "'ss01' Style Set 1 lookup 42 subtable" uni1EE4.ss01
Substitution2: "'salt' Stylistic Alternatives lookup 41 subtable" uni1EE4.ss01
Substitution2: "'c2sc' Capitals to Small Capitals lookup 36 subtable" uni1EE5.sc
AlternateSubs2: "'aalt' Access All Alternates lookup 1 subtable" uni1EE5.sc uni1EE4.ss01
EndChar

StartChar: Ugrave
Encoding: 217 217 205
Width: 352
GlyphClass: 2
Flags: HMW
HStem: 163 266<136 216>
VStem: 41 270<257 337>
LayerCount: 2
Fore
SplineSet
176 163 m 0
 96 163 41 216 41 297 c 0
 41 378 96 429 176 429 c 0
 256 429 311 378 311 297 c 0
 311 216 256 163 176 163 c 0
EndSplineSet
Validated: 1
Substitution2: "'ss01' Style Set 1 lookup 42 subtable" Ugrave.ss01
Substitution2: "'salt' Stylistic Alternatives lookup 41 subtable" Ugrave.ss01
Substitution2: "'c2sc' Capitals to Small Capitals lookup 36 subtable" ugrave.sc
AlternateSubs2: "'aalt' Access All Alternates lookup 1 subtable" ugrave.sc Ugrave.ss01
EndChar

StartChar: uni1EE6
Encoding: 7910 7910 206
Width: 352
GlyphClass: 2
Flags: HMW
HStem: 163 266<136 216>
VStem: 41 270<257 337>
LayerCount: 2
Fore
SplineSet
176 163 m 0
 96 163 41 216 41 297 c 0
 41 378 96 429 176 429 c 0
 256 429 311 378 311 297 c 0
 311 216 256 163 176 163 c 0
EndSplineSet
Validated: 1
Substitution2: "'ss01' Style Set 1 lookup 42 subtable" uni1EE6.ss01
Substitution2: "'salt' Stylistic Alternatives lookup 41 subtable" uni1EE6.ss01
Substitution2: "'c2sc' Capitals to Small Capitals lookup 36 subtable" uni1EE7.sc
AlternateSubs2: "'aalt' Access All Alternates lookup 1 subtable" uni1EE7.sc uni1EE6.ss01
EndChar

StartChar: Uhorn
Encoding: 431 431 207
Width: 352
GlyphClass: 2
Flags: HMW
HStem: 163 266<136 216>
VStem: 41 270<257 337>
LayerCount: 2
Fore
SplineSet
176 163 m 0
 96 163 41 216 41 297 c 0
 41 378 96 429 176 429 c 0
 256 429 311 378 311 297 c 0
 311 216 256 163 176 163 c 0
EndSplineSet
Validated: 1
Substitution2: "'ss01' Style Set 1 lookup 42 subtable" Uhorn.ss01
Substitution2: "'salt' Stylistic Alternatives lookup 41 subtable" Uhorn.ss01
Substitution2: "'c2sc' Capitals to Small Capitals lookup 36 subtable" uhorn.sc
AlternateSubs2: "'aalt' Access All Alternates lookup 1 subtable" uhorn.sc Uhorn.ss01
EndChar

StartChar: uni1EE8
Encoding: 7912 7912 208
Width: 352
GlyphClass: 2
Flags: HMW
HStem: 163 266<136 216>
VStem: 41 270<257 337>
LayerCount: 2
Fore
SplineSet
176 163 m 0
 96 163 41 216 41 297 c 0
 41 378 96 429 176 429 c 0
 256 429 311 378 311 297 c 0
 311 216 256 163 176 163 c 0
EndSplineSet
Validated: 1
Substitution2: "'ss01' Style Set 1 lookup 42 subtable" uni1EE8.ss01
Substitution2: "'salt' Stylistic Alternatives lookup 41 subtable" uni1EE8.ss01
Substitution2: "'c2sc' Capitals to Small Capitals lookup 36 subtable" uni1EE9.sc
AlternateSubs2: "'aalt' Access All Alternates lookup 1 subtable" uni1EE9.sc uni1EE8.ss01
EndChar

StartChar: uni1EF0
Encoding: 7920 7920 209
Width: 352
GlyphClass: 2
Flags: HMW
HStem: 163 266<136 216>
VStem: 41 270<257 337>
LayerCount: 2
Fore
SplineSet
176 163 m 0
 96 163 41 216 41 297 c 0
 41 378 96 429 176 429 c 0
 256 429 311 378 311 297 c 0
 311 216 256 163 176 163 c 0
EndSplineSet
Validated: 1
Substitution2: "'ss01' Style Set 1 lookup 42 subtable" uni1EF0.ss01
Substitution2: "'salt' Stylistic Alternatives lookup 41 subtable" uni1EF0.ss01
Substitution2: "'c2sc' Capitals to Small Capitals lookup 36 subtable" uni1EF1.sc
AlternateSubs2: "'aalt' Access All Alternates lookup 1 subtable" uni1EF1.sc uni1EF0.ss01
EndChar

StartChar: uni1EEA
Encoding: 7914 7914 210
Width: 352
GlyphClass: 2
Flags: HMW
HStem: 163 266<136 216>
VStem: 41 270<257 337>
LayerCount: 2
Fore
SplineSet
176 163 m 0
 96 163 41 216 41 297 c 0
 41 378 96 429 176 429 c 0
 256 429 311 378 311 297 c 0
 311 216 256 163 176 163 c 0
EndSplineSet
Validated: 1
Substitution2: "'ss01' Style Set 1 lookup 42 subtable" uni1EEA.ss01
Substitution2: "'salt' Stylistic Alternatives lookup 41 subtable" uni1EEA.ss01
Substitution2: "'c2sc' Capitals to Small Capitals lookup 36 subtable" uni1EEB.sc
AlternateSubs2: "'aalt' Access All Alternates lookup 1 subtable" uni1EEB.sc uni1EEA.ss01
EndChar

StartChar: uni1EEC
Encoding: 7916 7916 211
Width: 352
GlyphClass: 2
Flags: HMW
HStem: 163 266<136 216>
VStem: 41 270<257 337>
LayerCount: 2
Fore
SplineSet
176 163 m 0
 96 163 41 216 41 297 c 0
 41 378 96 429 176 429 c 0
 256 429 311 378 311 297 c 0
 311 216 256 163 176 163 c 0
EndSplineSet
Validated: 1
Substitution2: "'ss01' Style Set 1 lookup 42 subtable" uni1EEC.ss01
Substitution2: "'salt' Stylistic Alternatives lookup 41 subtable" uni1EEC.ss01
Substitution2: "'c2sc' Capitals to Small Capitals lookup 36 subtable" uni1EED.sc
AlternateSubs2: "'aalt' Access All Alternates lookup 1 subtable" uni1EED.sc uni1EEC.ss01
EndChar

StartChar: uni1EEE
Encoding: 7918 7918 212
Width: 352
GlyphClass: 2
Flags: HMW
HStem: 163 266<136 216>
VStem: 41 270<257 337>
LayerCount: 2
Fore
SplineSet
176 163 m 0
 96 163 41 216 41 297 c 0
 41 378 96 429 176 429 c 0
 256 429 311 378 311 297 c 0
 311 216 256 163 176 163 c 0
EndSplineSet
Validated: 1
Substitution2: "'ss01' Style Set 1 lookup 42 subtable" uni1EEE.ss01
Substitution2: "'salt' Stylistic Alternatives lookup 41 subtable" uni1EEE.ss01
Substitution2: "'c2sc' Capitals to Small Capitals lookup 36 subtable" uni1EEF.sc
AlternateSubs2: "'aalt' Access All Alternates lookup 1 subtable" uni1EEF.sc uni1EEE.ss01
EndChar

StartChar: Uhungarumlaut
Encoding: 368 368 213
Width: 352
GlyphClass: 2
Flags: HMW
HStem: 163 266<136 216>
VStem: 41 270<257 337>
LayerCount: 2
Fore
SplineSet
176 163 m 0
 96 163 41 216 41 297 c 0
 41 378 96 429 176 429 c 0
 256 429 311 378 311 297 c 0
 311 216 256 163 176 163 c 0
EndSplineSet
Validated: 1
Substitution2: "'ss01' Style Set 1 lookup 42 subtable" Uhungarumlaut.ss01
Substitution2: "'salt' Stylistic Alternatives lookup 41 subtable" Uhungarumlaut.ss01
Substitution2: "'c2sc' Capitals to Small Capitals lookup 36 subtable" uhungarumlaut.sc
AlternateSubs2: "'aalt' Access All Alternates lookup 1 subtable" uhungarumlaut.sc Uhungarumlaut.ss01
EndChar

StartChar: uni0216
Encoding: 534 534 214
Width: 352
GlyphClass: 2
Flags: HMW
HStem: 163 266<136 216>
VStem: 41 270<257 337>
LayerCount: 2
Fore
SplineSet
176 163 m 0
 96 163 41 216 41 297 c 0
 41 378 96 429 176 429 c 0
 256 429 311 378 311 297 c 0
 311 216 256 163 176 163 c 0
EndSplineSet
Validated: 1
Substitution2: "'ss01' Style Set 1 lookup 42 subtable" uni0216.ss01
Substitution2: "'salt' Stylistic Alternatives lookup 41 subtable" uni0216.ss01
Substitution2: "'c2sc' Capitals to Small Capitals lookup 36 subtable" uni0217.sc
AlternateSubs2: "'aalt' Access All Alternates lookup 1 subtable" uni0217.sc uni0216.ss01
EndChar

StartChar: Umacron
Encoding: 362 362 215
Width: 352
GlyphClass: 2
Flags: HMW
HStem: 163 266<136 216>
VStem: 41 270<257 337>
LayerCount: 2
Fore
SplineSet
176 163 m 0
 96 163 41 216 41 297 c 0
 41 378 96 429 176 429 c 0
 256 429 311 378 311 297 c 0
 311 216 256 163 176 163 c 0
EndSplineSet
Validated: 1
Substitution2: "'ss01' Style Set 1 lookup 42 subtable" Umacron.ss01
Substitution2: "'salt' Stylistic Alternatives lookup 41 subtable" Umacron.ss01
Substitution2: "'c2sc' Capitals to Small Capitals lookup 36 subtable" umacron.sc
AlternateSubs2: "'aalt' Access All Alternates lookup 1 subtable" umacron.sc Umacron.ss01
EndChar

StartChar: uni1E7A
Encoding: 7802 7802 216
Width: 352
GlyphClass: 2
Flags: HMW
HStem: 163 266<136 216>
VStem: 41 270<257 337>
LayerCount: 2
Fore
SplineSet
176 163 m 0
 96 163 41 216 41 297 c 0
 41 378 96 429 176 429 c 0
 256 429 311 378 311 297 c 0
 311 216 256 163 176 163 c 0
EndSplineSet
Validated: 1
Substitution2: "'ss01' Style Set 1 lookup 42 subtable" uni1E7A.ss01
Substitution2: "'salt' Stylistic Alternatives lookup 41 subtable" uni1E7A.ss01
Substitution2: "'c2sc' Capitals to Small Capitals lookup 36 subtable" uni1E7B.sc
AlternateSubs2: "'aalt' Access All Alternates lookup 1 subtable" uni1E7B.sc uni1E7A.ss01
EndChar

StartChar: Uogonek
Encoding: 370 370 217
Width: 352
GlyphClass: 1
Flags: HMW
HStem: 163 266<136 216>
VStem: 41 270<257 337>
LayerCount: 2
Fore
SplineSet
176 163 m 0
 96 163 41 216 41 297 c 0
 41 378 96 429 176 429 c 0
 256 429 311 378 311 297 c 0
 311 216 256 163 176 163 c 0
EndSplineSet
Validated: 1
Substitution2: "'ss01' Style Set 1 lookup 42 subtable" Uogonek.ss01
Substitution2: "'salt' Stylistic Alternatives lookup 41 subtable" Uogonek.ss01
Substitution2: "'c2sc' Capitals to Small Capitals lookup 36 subtable" uogonek.sc
AlternateSubs2: "'aalt' Access All Alternates lookup 1 subtable" uogonek.sc Uogonek.ss01
EndChar

StartChar: Uring
Encoding: 366 366 218
Width: 352
GlyphClass: 2
Flags: HMW
HStem: 163 266<136 216>
VStem: 41 270<257 337>
LayerCount: 2
Fore
SplineSet
176 163 m 0
 96 163 41 216 41 297 c 0
 41 378 96 429 176 429 c 0
 256 429 311 378 311 297 c 0
 311 216 256 163 176 163 c 0
EndSplineSet
Validated: 1
Substitution2: "'ss01' Style Set 1 lookup 42 subtable" Uring.ss01
Substitution2: "'salt' Stylistic Alternatives lookup 41 subtable" Uring.ss01
Substitution2: "'c2sc' Capitals to Small Capitals lookup 36 subtable" uring.sc
AlternateSubs2: "'aalt' Access All Alternates lookup 1 subtable" uring.sc Uring.ss01
EndChar

StartChar: Utilde
Encoding: 360 360 219
Width: 352
GlyphClass: 2
Flags: HMW
HStem: 163 266<136 216>
VStem: 41 270<257 337>
LayerCount: 2
Fore
SplineSet
176 163 m 0
 96 163 41 216 41 297 c 0
 41 378 96 429 176 429 c 0
 256 429 311 378 311 297 c 0
 311 216 256 163 176 163 c 0
EndSplineSet
Validated: 1
Substitution2: "'ss01' Style Set 1 lookup 42 subtable" Utilde.ss01
Substitution2: "'salt' Stylistic Alternatives lookup 41 subtable" Utilde.ss01
Substitution2: "'c2sc' Capitals to Small Capitals lookup 36 subtable" utilde.sc
AlternateSubs2: "'aalt' Access All Alternates lookup 1 subtable" utilde.sc Utilde.ss01
EndChar

StartChar: uni1E78
Encoding: 7800 7800 220
Width: 352
GlyphClass: 2
Flags: HMW
HStem: 163 266<136 216>
VStem: 41 270<257 337>
LayerCount: 2
Fore
SplineSet
176 163 m 0
 96 163 41 216 41 297 c 0
 41 378 96 429 176 429 c 0
 256 429 311 378 311 297 c 0
 311 216 256 163 176 163 c 0
EndSplineSet
Validated: 1
Substitution2: "'ss01' Style Set 1 lookup 42 subtable" uni1E78.ss01
Substitution2: "'salt' Stylistic Alternatives lookup 41 subtable" uni1E78.ss01
Substitution2: "'c2sc' Capitals to Small Capitals lookup 36 subtable" uni1E79.sc
AlternateSubs2: "'aalt' Access All Alternates lookup 1 subtable" uni1E79.sc uni1E78.ss01
EndChar

StartChar: V
Encoding: 86 86 221
Width: 352
GlyphClass: 1
Flags: HMW
HStem: 163 266<136 216>
VStem: 41 270<257 337>
LayerCount: 2
Fore
SplineSet
176 163 m 0
 96 163 41 216 41 297 c 0
 41 378 96 429 176 429 c 0
 256 429 311 378 311 297 c 0
 311 216 256 163 176 163 c 0
EndSplineSet
Validated: 1
Substitution2: "'c2sc' Capitals to Small Capitals lookup 36 subtable" v.sc
Substitution2: "'aalt' Access All Alternates lookup 0 subtable" v.sc
EndChar

StartChar: W
Encoding: 87 87 222
Width: 352
GlyphClass: 2
Flags: HMW
HStem: 163 266<136 216>
VStem: 41 270<257 337>
LayerCount: 2
Fore
SplineSet
176 163 m 0
 96 163 41 216 41 297 c 0
 41 378 96 429 176 429 c 0
 256 429 311 378 311 297 c 0
 311 216 256 163 176 163 c 0
EndSplineSet
Validated: 1
Substitution2: "'ss01' Style Set 1 lookup 42 subtable" W.ss01
Substitution2: "'salt' Stylistic Alternatives lookup 41 subtable" W.ss01
Substitution2: "'c2sc' Capitals to Small Capitals lookup 36 subtable" w.sc
AlternateSubs2: "'aalt' Access All Alternates lookup 1 subtable" w.sc W.ss01
EndChar

StartChar: Wacute
Encoding: 7810 7810 223
Width: 352
GlyphClass: 2
Flags: HMW
HStem: 163 266<136 216>
VStem: 41 270<257 337>
LayerCount: 2
Fore
SplineSet
176 163 m 0
 96 163 41 216 41 297 c 0
 41 378 96 429 176 429 c 0
 256 429 311 378 311 297 c 0
 311 216 256 163 176 163 c 0
EndSplineSet
Validated: 1
Substitution2: "'ss01' Style Set 1 lookup 42 subtable" Wacute.ss01
Substitution2: "'salt' Stylistic Alternatives lookup 41 subtable" Wacute.ss01
Substitution2: "'c2sc' Capitals to Small Capitals lookup 36 subtable" wacute.sc
AlternateSubs2: "'aalt' Access All Alternates lookup 1 subtable" wacute.sc Wacute.ss01
EndChar

StartChar: Wcircumflex
Encoding: 372 372 224
Width: 352
GlyphClass: 2
Flags: HMW
HStem: 163 266<136 216>
VStem: 41 270<257 337>
LayerCount: 2
Fore
SplineSet
176 163 m 0
 96 163 41 216 41 297 c 0
 41 378 96 429 176 429 c 0
 256 429 311 378 311 297 c 0
 311 216 256 163 176 163 c 0
EndSplineSet
Validated: 1
Substitution2: "'ss01' Style Set 1 lookup 42 subtable" Wcircumflex.ss01
Substitution2: "'salt' Stylistic Alternatives lookup 41 subtable" Wcircumflex.ss01
Substitution2: "'c2sc' Capitals to Small Capitals lookup 36 subtable" wcircumflex.sc
AlternateSubs2: "'aalt' Access All Alternates lookup 1 subtable" wcircumflex.sc Wcircumflex.ss01
EndChar

StartChar: Wdieresis
Encoding: 7812 7812 225
Width: 352
GlyphClass: 2
Flags: HMW
HStem: 163 266<136 216>
VStem: 41 270<257 337>
LayerCount: 2
Fore
SplineSet
176 163 m 0
 96 163 41 216 41 297 c 0
 41 378 96 429 176 429 c 0
 256 429 311 378 311 297 c 0
 311 216 256 163 176 163 c 0
EndSplineSet
Validated: 1
Substitution2: "'ss01' Style Set 1 lookup 42 subtable" Wdieresis.ss01
Substitution2: "'salt' Stylistic Alternatives lookup 41 subtable" Wdieresis.ss01
Substitution2: "'c2sc' Capitals to Small Capitals lookup 36 subtable" wdieresis.sc
AlternateSubs2: "'aalt' Access All Alternates lookup 1 subtable" wdieresis.sc Wdieresis.ss01
EndChar

StartChar: Wgrave
Encoding: 7808 7808 226
Width: 352
GlyphClass: 2
Flags: HMW
HStem: 163 266<136 216>
VStem: 41 270<257 337>
LayerCount: 2
Fore
SplineSet
176 163 m 0
 96 163 41 216 41 297 c 0
 41 378 96 429 176 429 c 0
 256 429 311 378 311 297 c 0
 311 216 256 163 176 163 c 0
EndSplineSet
Validated: 1
Substitution2: "'ss01' Style Set 1 lookup 42 subtable" Wgrave.ss01
Substitution2: "'salt' Stylistic Alternatives lookup 41 subtable" Wgrave.ss01
Substitution2: "'c2sc' Capitals to Small Capitals lookup 36 subtable" wgrave.sc
AlternateSubs2: "'aalt' Access All Alternates lookup 1 subtable" wgrave.sc Wgrave.ss01
EndChar

StartChar: X
Encoding: 88 88 227
Width: 352
GlyphClass: 1
Flags: HMW
HStem: 163 266<136 216>
VStem: 41 270<257 337>
LayerCount: 2
Fore
SplineSet
176 163 m 0
 96 163 41 216 41 297 c 0
 41 378 96 429 176 429 c 0
 256 429 311 378 311 297 c 0
 311 216 256 163 176 163 c 0
EndSplineSet
Validated: 1
Substitution2: "'c2sc' Capitals to Small Capitals lookup 36 subtable" x.sc
Substitution2: "'aalt' Access All Alternates lookup 0 subtable" x.sc
EndChar

StartChar: Y
Encoding: 89 89 228
Width: 352
GlyphClass: 2
Flags: HMW
HStem: 163 266<136 216>
VStem: 41 270<257 337>
LayerCount: 2
Fore
SplineSet
176 163 m 0
 96 163 41 216 41 297 c 0
 41 378 96 429 176 429 c 0
 256 429 311 378 311 297 c 0
 311 216 256 163 176 163 c 0
EndSplineSet
Validated: 1
Substitution2: "'ss01' Style Set 1 lookup 42 subtable" Y.ss01
Substitution2: "'salt' Stylistic Alternatives lookup 41 subtable" Y.ss01
Substitution2: "'c2sc' Capitals to Small Capitals lookup 36 subtable" y.sc
AlternateSubs2: "'aalt' Access All Alternates lookup 1 subtable" y.sc Y.ss01
EndChar

StartChar: Yacute
Encoding: 221 221 229
Width: 352
GlyphClass: 2
Flags: HMW
HStem: 163 266<136 216>
VStem: 41 270<257 337>
LayerCount: 2
Fore
SplineSet
176 163 m 0
 96 163 41 216 41 297 c 0
 41 378 96 429 176 429 c 0
 256 429 311 378 311 297 c 0
 311 216 256 163 176 163 c 0
EndSplineSet
Validated: 1
Substitution2: "'ss01' Style Set 1 lookup 42 subtable" Yacute.ss01
Substitution2: "'salt' Stylistic Alternatives lookup 41 subtable" Yacute.ss01
Substitution2: "'c2sc' Capitals to Small Capitals lookup 36 subtable" yacute.sc
AlternateSubs2: "'aalt' Access All Alternates lookup 1 subtable" yacute.sc Yacute.ss01
EndChar

StartChar: Ycircumflex
Encoding: 374 374 230
Width: 352
GlyphClass: 2
Flags: HMW
HStem: 163 266<136 216>
VStem: 41 270<257 337>
LayerCount: 2
Fore
SplineSet
176 163 m 0
 96 163 41 216 41 297 c 0
 41 378 96 429 176 429 c 0
 256 429 311 378 311 297 c 0
 311 216 256 163 176 163 c 0
EndSplineSet
Validated: 1
Substitution2: "'ss01' Style Set 1 lookup 42 subtable" Ycircumflex.ss01
Substitution2: "'salt' Stylistic Alternatives lookup 41 subtable" Ycircumflex.ss01
Substitution2: "'c2sc' Capitals to Small Capitals lookup 36 subtable" ycircumflex.sc
AlternateSubs2: "'aalt' Access All Alternates lookup 1 subtable" ycircumflex.sc Ycircumflex.ss01
EndChar

StartChar: Ydieresis
Encoding: 376 376 231
Width: 352
GlyphClass: 2
Flags: HMW
HStem: 163 266<136 216>
VStem: 41 270<257 337>
LayerCount: 2
Fore
SplineSet
176 163 m 0
 96 163 41 216 41 297 c 0
 41 378 96 429 176 429 c 0
 256 429 311 378 311 297 c 0
 311 216 256 163 176 163 c 0
EndSplineSet
Validated: 1
Substitution2: "'ss01' Style Set 1 lookup 42 subtable" Ydieresis.ss01
Substitution2: "'salt' Stylistic Alternatives lookup 41 subtable" Ydieresis.ss01
Substitution2: "'c2sc' Capitals to Small Capitals lookup 36 subtable" ydieresis.sc
AlternateSubs2: "'aalt' Access All Alternates lookup 1 subtable" ydieresis.sc Ydieresis.ss01
EndChar

StartChar: uni1E8E
Encoding: 7822 7822 232
Width: 352
GlyphClass: 2
Flags: HMW
HStem: 163 266<136 216>
VStem: 41 270<257 337>
LayerCount: 2
Fore
SplineSet
176 163 m 0
 96 163 41 216 41 297 c 0
 41 378 96 429 176 429 c 0
 256 429 311 378 311 297 c 0
 311 216 256 163 176 163 c 0
EndSplineSet
Validated: 1
Substitution2: "'ss01' Style Set 1 lookup 42 subtable" uni1E8E.ss01
Substitution2: "'salt' Stylistic Alternatives lookup 41 subtable" uni1E8E.ss01
Substitution2: "'c2sc' Capitals to Small Capitals lookup 36 subtable" uni1E8F.sc
AlternateSubs2: "'aalt' Access All Alternates lookup 1 subtable" uni1E8F.sc uni1E8E.ss01
EndChar

StartChar: uni1EF4
Encoding: 7924 7924 233
Width: 352
GlyphClass: 2
Flags: HMW
HStem: 163 266<136 216>
VStem: 41 270<257 337>
LayerCount: 2
Fore
SplineSet
176 163 m 0
 96 163 41 216 41 297 c 0
 41 378 96 429 176 429 c 0
 256 429 311 378 311 297 c 0
 311 216 256 163 176 163 c 0
EndSplineSet
Validated: 1
Substitution2: "'ss01' Style Set 1 lookup 42 subtable" uni1EF4.ss01
Substitution2: "'salt' Stylistic Alternatives lookup 41 subtable" uni1EF4.ss01
Substitution2: "'c2sc' Capitals to Small Capitals lookup 36 subtable" uni1EF5.sc
AlternateSubs2: "'aalt' Access All Alternates lookup 1 subtable" uni1EF5.sc uni1EF4.ss01
EndChar

StartChar: Ygrave
Encoding: 7922 7922 234
Width: 352
GlyphClass: 2
Flags: HMW
HStem: 163 266<136 216>
VStem: 41 270<257 337>
LayerCount: 2
Fore
SplineSet
176 163 m 0
 96 163 41 216 41 297 c 0
 41 378 96 429 176 429 c 0
 256 429 311 378 311 297 c 0
 311 216 256 163 176 163 c 0
EndSplineSet
Validated: 1
Substitution2: "'ss01' Style Set 1 lookup 42 subtable" Ygrave.ss01
Substitution2: "'salt' Stylistic Alternatives lookup 41 subtable" Ygrave.ss01
Substitution2: "'c2sc' Capitals to Small Capitals lookup 36 subtable" ygrave.sc
AlternateSubs2: "'aalt' Access All Alternates lookup 1 subtable" ygrave.sc Ygrave.ss01
EndChar

StartChar: uni1EF6
Encoding: 7926 7926 235
Width: 352
GlyphClass: 2
Flags: HMW
HStem: 163 266<136 216>
VStem: 41 270<257 337>
LayerCount: 2
Fore
SplineSet
176 163 m 0
 96 163 41 216 41 297 c 0
 41 378 96 429 176 429 c 0
 256 429 311 378 311 297 c 0
 311 216 256 163 176 163 c 0
EndSplineSet
Validated: 1
Substitution2: "'ss01' Style Set 1 lookup 42 subtable" uni1EF6.ss01
Substitution2: "'salt' Stylistic Alternatives lookup 41 subtable" uni1EF6.ss01
Substitution2: "'c2sc' Capitals to Small Capitals lookup 36 subtable" uni1EF7.sc
AlternateSubs2: "'aalt' Access All Alternates lookup 1 subtable" uni1EF7.sc uni1EF6.ss01
EndChar

StartChar: uni0232
Encoding: 562 562 236
Width: 352
GlyphClass: 2
Flags: HMW
HStem: 163 266<136 216>
VStem: 41 270<257 337>
LayerCount: 2
Fore
SplineSet
176 163 m 0
 96 163 41 216 41 297 c 0
 41 378 96 429 176 429 c 0
 256 429 311 378 311 297 c 0
 311 216 256 163 176 163 c 0
EndSplineSet
Validated: 1
Substitution2: "'ss01' Style Set 1 lookup 42 subtable" uni0232.ss01
Substitution2: "'salt' Stylistic Alternatives lookup 41 subtable" uni0232.ss01
Substitution2: "'c2sc' Capitals to Small Capitals lookup 36 subtable" uni0233.sc
AlternateSubs2: "'aalt' Access All Alternates lookup 1 subtable" uni0233.sc uni0232.ss01
EndChar

StartChar: uni1EF8
Encoding: 7928 7928 237
Width: 352
GlyphClass: 2
Flags: HMW
HStem: 163 266<136 216>
VStem: 41 270<257 337>
LayerCount: 2
Fore
SplineSet
176 163 m 0
 96 163 41 216 41 297 c 0
 41 378 96 429 176 429 c 0
 256 429 311 378 311 297 c 0
 311 216 256 163 176 163 c 0
EndSplineSet
Validated: 1
Substitution2: "'ss01' Style Set 1 lookup 42 subtable" uni1EF8.ss01
Substitution2: "'salt' Stylistic Alternatives lookup 41 subtable" uni1EF8.ss01
Substitution2: "'c2sc' Capitals to Small Capitals lookup 36 subtable" uni1EF9.sc
AlternateSubs2: "'aalt' Access All Alternates lookup 1 subtable" uni1EF9.sc uni1EF8.ss01
EndChar

StartChar: Z
Encoding: 90 90 238
Width: 352
GlyphClass: 2
Flags: HMW
HStem: 163 266<136 216>
VStem: 41 270<257 337>
LayerCount: 2
Fore
SplineSet
176 163 m 0
 96 163 41 216 41 297 c 0
 41 378 96 429 176 429 c 0
 256 429 311 378 311 297 c 0
 311 216 256 163 176 163 c 0
EndSplineSet
Validated: 1
Substitution2: "'ss01' Style Set 1 lookup 42 subtable" Z.ss01
Substitution2: "'salt' Stylistic Alternatives lookup 41 subtable" Z.ss01
Substitution2: "'c2sc' Capitals to Small Capitals lookup 36 subtable" z.sc
AlternateSubs2: "'aalt' Access All Alternates lookup 1 subtable" z.sc Z.ss01
EndChar

StartChar: Zacute
Encoding: 377 377 239
Width: 352
GlyphClass: 2
Flags: HMW
HStem: 163 266<136 216>
VStem: 41 270<257 337>
LayerCount: 2
Fore
SplineSet
176 163 m 0
 96 163 41 216 41 297 c 0
 41 378 96 429 176 429 c 0
 256 429 311 378 311 297 c 0
 311 216 256 163 176 163 c 0
EndSplineSet
Validated: 1
Substitution2: "'ss01' Style Set 1 lookup 42 subtable" Zacute.ss01
Substitution2: "'salt' Stylistic Alternatives lookup 41 subtable" Zacute.ss01
Substitution2: "'c2sc' Capitals to Small Capitals lookup 36 subtable" zacute.sc
AlternateSubs2: "'aalt' Access All Alternates lookup 1 subtable" zacute.sc Zacute.ss01
EndChar

StartChar: Zcaron
Encoding: 381 381 240
Width: 352
GlyphClass: 2
Flags: HMW
HStem: 163 266<136 216>
VStem: 41 270<257 337>
LayerCount: 2
Fore
SplineSet
176 163 m 0
 96 163 41 216 41 297 c 0
 41 378 96 429 176 429 c 0
 256 429 311 378 311 297 c 0
 311 216 256 163 176 163 c 0
EndSplineSet
Validated: 1
Substitution2: "'ss01' Style Set 1 lookup 42 subtable" Zcaron.ss01
Substitution2: "'salt' Stylistic Alternatives lookup 41 subtable" Zcaron.ss01
Substitution2: "'c2sc' Capitals to Small Capitals lookup 36 subtable" zcaron.sc
AlternateSubs2: "'aalt' Access All Alternates lookup 1 subtable" zcaron.sc Zcaron.ss01
EndChar

StartChar: Zdotaccent
Encoding: 379 379 241
Width: 352
GlyphClass: 2
Flags: HMW
HStem: 163 266<136 216>
VStem: 41 270<257 337>
LayerCount: 2
Fore
SplineSet
176 163 m 0
 96 163 41 216 41 297 c 0
 41 378 96 429 176 429 c 0
 256 429 311 378 311 297 c 0
 311 216 256 163 176 163 c 0
EndSplineSet
Validated: 1
Substitution2: "'ss01' Style Set 1 lookup 42 subtable" Zdotaccent.ss01
Substitution2: "'salt' Stylistic Alternatives lookup 41 subtable" Zdotaccent.ss01
Substitution2: "'c2sc' Capitals to Small Capitals lookup 36 subtable" zdotaccent.sc
AlternateSubs2: "'aalt' Access All Alternates lookup 1 subtable" zdotaccent.sc Zdotaccent.ss01
EndChar

StartChar: uni1E92
Encoding: 7826 7826 242
Width: 352
GlyphClass: 2
Flags: HMW
HStem: 163 266<136 216>
VStem: 41 270<257 337>
LayerCount: 2
Fore
SplineSet
176 163 m 0
 96 163 41 216 41 297 c 0
 41 378 96 429 176 429 c 0
 256 429 311 378 311 297 c 0
 311 216 256 163 176 163 c 0
EndSplineSet
Validated: 1
Substitution2: "'ss01' Style Set 1 lookup 42 subtable" uni1E92.ss01
Substitution2: "'salt' Stylistic Alternatives lookup 41 subtable" uni1E92.ss01
Substitution2: "'c2sc' Capitals to Small Capitals lookup 36 subtable" uni1E93.sc
AlternateSubs2: "'aalt' Access All Alternates lookup 1 subtable" uni1E93.sc uni1E92.ss01
EndChar

StartChar: Iacute_J.loclNLD
Encoding: 65538 -1 243
Width: 352
GlyphClass: 1
Flags: HMW
HStem: 163 266<136 216>
VStem: 41 270<257 337>
LayerCount: 2
Fore
SplineSet
176 163 m 0
 96 163 41 216 41 297 c 0
 41 378 96 429 176 429 c 0
 256 429 311 378 311 297 c 0
 311 216 256 163 176 163 c 0
EndSplineSet
Validated: 1
Substitution2: "'ss01' Style Set 1 lookup 42 subtable" Iacute_J.loclNLD.ss01
Substitution2: "'salt' Stylistic Alternatives lookup 41 subtable" Iacute_J.loclNLD.ss01
Substitution2: "'c2sc' Capitals to Small Capitals lookup 36 subtable" iacute_j.loclNLD.sc
Ligature2: "'locl' Localized Forms in Latin lookup 8 subtable" Iacute J
AlternateSubs2: "'aalt' Access All Alternates lookup 1 subtable" iacute_j.loclNLD.sc Iacute_J.loclNLD.ss01
EndChar

StartChar: Adieresis.alt
Encoding: 65539 -1 244
Width: 352
GlyphClass: 1
Flags: HMW
HStem: 163 266<136 216>
VStem: 41 270<257 337>
LayerCount: 2
Fore
SplineSet
176 163 m 0
 96 163 41 216 41 297 c 0
 41 378 96 429 176 429 c 0
 256 429 311 378 311 297 c 0
 311 216 256 163 176 163 c 0
EndSplineSet
Validated: 1
Substitution2: "'c2sc' Capitals to Small Capitals lookup 36 subtable" adieresis.alt.sc
Substitution2: "'aalt' Access All Alternates lookup 0 subtable" adieresis.alt.sc
EndChar

StartChar: Udieresis.alt
Encoding: 65540 -1 245
Width: 352
GlyphClass: 1
Flags: HMW
HStem: 163 266<136 216>
VStem: 41 270<257 337>
LayerCount: 2
Fore
SplineSet
176 163 m 0
 96 163 41 216 41 297 c 0
 41 378 96 429 176 429 c 0
 256 429 311 378 311 297 c 0
 311 216 256 163 176 163 c 0
EndSplineSet
Validated: 1
EndChar

StartChar: Udieresis.ss01.alt
Encoding: 65541 -1 246
Width: 352
GlyphClass: 1
Flags: HMW
HStem: 163 266<136 216>
VStem: 41 270<257 337>
LayerCount: 2
Fore
SplineSet
176 163 m 0
 96 163 41 216 41 297 c 0
 41 378 96 429 176 429 c 0
 256 429 311 378 311 297 c 0
 311 216 256 163 176 163 c 0
EndSplineSet
Validated: 1
EndChar

StartChar: A.ss01
Encoding: 65542 -1 247
Width: 352
GlyphClass: 2
Flags: HMW
HStem: 163 266<136 216>
VStem: 41 270<257 337>
LayerCount: 2
Fore
SplineSet
176 163 m 0
 96 163 41 216 41 297 c 0
 41 378 96 429 176 429 c 0
 256 429 311 378 311 297 c 0
 311 216 256 163 176 163 c 0
EndSplineSet
Validated: 1
EndChar

StartChar: Aacute.ss01
Encoding: 65543 -1 248
Width: 352
GlyphClass: 2
Flags: HMW
HStem: 163 266<136 216>
VStem: 41 270<257 337>
LayerCount: 2
Fore
SplineSet
176 163 m 0
 96 163 41 216 41 297 c 0
 41 378 96 429 176 429 c 0
 256 429 311 378 311 297 c 0
 311 216 256 163 176 163 c 0
EndSplineSet
Validated: 1
EndChar

StartChar: Abreve.ss01
Encoding: 65544 -1 249
Width: 352
GlyphClass: 2
Flags: HMW
HStem: 163 266<136 216>
VStem: 41 270<257 337>
LayerCount: 2
Fore
SplineSet
176 163 m 0
 96 163 41 216 41 297 c 0
 41 378 96 429 176 429 c 0
 256 429 311 378 311 297 c 0
 311 216 256 163 176 163 c 0
EndSplineSet
Validated: 1
EndChar

StartChar: uni1EAE.ss01
Encoding: 65545 -1 250
Width: 352
GlyphClass: 2
Flags: HMW
HStem: 163 266<136 216>
VStem: 41 270<257 337>
LayerCount: 2
Fore
SplineSet
176 163 m 0
 96 163 41 216 41 297 c 0
 41 378 96 429 176 429 c 0
 256 429 311 378 311 297 c 0
 311 216 256 163 176 163 c 0
EndSplineSet
Validated: 1
EndChar

StartChar: uni1EB6.ss01
Encoding: 65546 -1 251
Width: 352
GlyphClass: 2
Flags: HMW
HStem: 163 266<136 216>
VStem: 41 270<257 337>
LayerCount: 2
Fore
SplineSet
176 163 m 0
 96 163 41 216 41 297 c 0
 41 378 96 429 176 429 c 0
 256 429 311 378 311 297 c 0
 311 216 256 163 176 163 c 0
EndSplineSet
Validated: 1
EndChar

StartChar: uni1EB0.ss01
Encoding: 65547 -1 252
Width: 352
GlyphClass: 2
Flags: HMW
HStem: 163 266<136 216>
VStem: 41 270<257 337>
LayerCount: 2
Fore
SplineSet
176 163 m 0
 96 163 41 216 41 297 c 0
 41 378 96 429 176 429 c 0
 256 429 311 378 311 297 c 0
 311 216 256 163 176 163 c 0
EndSplineSet
Validated: 1
EndChar

StartChar: uni1EB2.ss01
Encoding: 65548 -1 253
Width: 352
GlyphClass: 2
Flags: HMW
HStem: 163 266<136 216>
VStem: 41 270<257 337>
LayerCount: 2
Fore
SplineSet
176 163 m 0
 96 163 41 216 41 297 c 0
 41 378 96 429 176 429 c 0
 256 429 311 378 311 297 c 0
 311 216 256 163 176 163 c 0
EndSplineSet
Validated: 1
EndChar

StartChar: uni1EB4.ss01
Encoding: 65549 -1 254
Width: 352
GlyphClass: 2
Flags: HMW
HStem: 163 266<136 216>
VStem: 41 270<257 337>
LayerCount: 2
Fore
SplineSet
176 163 m 0
 96 163 41 216 41 297 c 0
 41 378 96 429 176 429 c 0
 256 429 311 378 311 297 c 0
 311 216 256 163 176 163 c 0
EndSplineSet
Validated: 1
EndChar

StartChar: uni01CD.ss01
Encoding: 65550 -1 255
Width: 352
GlyphClass: 2
Flags: HMW
HStem: 163 266<136 216>
VStem: 41 270<257 337>
LayerCount: 2
Fore
SplineSet
176 163 m 0
 96 163 41 216 41 297 c 0
 41 378 96 429 176 429 c 0
 256 429 311 378 311 297 c 0
 311 216 256 163 176 163 c 0
EndSplineSet
Validated: 1
EndChar

StartChar: Acircumflex.ss01
Encoding: 65551 -1 256
Width: 352
GlyphClass: 2
Flags: HMW
HStem: 163 266<136 216>
VStem: 41 270<257 337>
LayerCount: 2
Fore
SplineSet
176 163 m 0
 96 163 41 216 41 297 c 0
 41 378 96 429 176 429 c 0
 256 429 311 378 311 297 c 0
 311 216 256 163 176 163 c 0
EndSplineSet
Validated: 1
EndChar

StartChar: uni1EA4.ss01
Encoding: 65552 -1 257
Width: 352
GlyphClass: 2
Flags: HMW
HStem: 163 266<136 216>
VStem: 41 270<257 337>
LayerCount: 2
Fore
SplineSet
176 163 m 0
 96 163 41 216 41 297 c 0
 41 378 96 429 176 429 c 0
 256 429 311 378 311 297 c 0
 311 216 256 163 176 163 c 0
EndSplineSet
Validated: 1
EndChar

StartChar: uni1EAC.ss01
Encoding: 65553 -1 258
Width: 352
GlyphClass: 2
Flags: HMW
HStem: 163 266<136 216>
VStem: 41 270<257 337>
LayerCount: 2
Fore
SplineSet
176 163 m 0
 96 163 41 216 41 297 c 0
 41 378 96 429 176 429 c 0
 256 429 311 378 311 297 c 0
 311 216 256 163 176 163 c 0
EndSplineSet
Validated: 1
EndChar

StartChar: uni1EA6.ss01
Encoding: 65554 -1 259
Width: 352
GlyphClass: 2
Flags: HMW
HStem: 163 266<136 216>
VStem: 41 270<257 337>
LayerCount: 2
Fore
SplineSet
176 163 m 0
 96 163 41 216 41 297 c 0
 41 378 96 429 176 429 c 0
 256 429 311 378 311 297 c 0
 311 216 256 163 176 163 c 0
EndSplineSet
Validated: 1
EndChar

StartChar: uni1EA8.ss01
Encoding: 65555 -1 260
Width: 352
GlyphClass: 2
Flags: HMW
HStem: 163 266<136 216>
VStem: 41 270<257 337>
LayerCount: 2
Fore
SplineSet
176 163 m 0
 96 163 41 216 41 297 c 0
 41 378 96 429 176 429 c 0
 256 429 311 378 311 297 c 0
 311 216 256 163 176 163 c 0
EndSplineSet
Validated: 1
EndChar

StartChar: uni1EAA.ss01
Encoding: 65556 -1 261
Width: 352
GlyphClass: 2
Flags: HMW
HStem: 163 266<136 216>
VStem: 41 270<257 337>
LayerCount: 2
Fore
SplineSet
176 163 m 0
 96 163 41 216 41 297 c 0
 41 378 96 429 176 429 c 0
 256 429 311 378 311 297 c 0
 311 216 256 163 176 163 c 0
EndSplineSet
Validated: 1
EndChar

StartChar: uni0200.ss01
Encoding: 65557 -1 262
Width: 352
GlyphClass: 2
Flags: HMW
HStem: 163 266<136 216>
VStem: 41 270<257 337>
LayerCount: 2
Fore
SplineSet
176 163 m 0
 96 163 41 216 41 297 c 0
 41 378 96 429 176 429 c 0
 256 429 311 378 311 297 c 0
 311 216 256 163 176 163 c 0
EndSplineSet
Validated: 1
EndChar

StartChar: Adieresis.ss01
Encoding: 65558 -1 263
Width: 352
GlyphClass: 2
Flags: HMW
HStem: 163 266<136 216>
VStem: 41 270<257 337>
LayerCount: 2
Fore
SplineSet
176 163 m 0
 96 163 41 216 41 297 c 0
 41 378 96 429 176 429 c 0
 256 429 311 378 311 297 c 0
 311 216 256 163 176 163 c 0
EndSplineSet
Validated: 1
EndChar

StartChar: uni1EA0.ss01
Encoding: 65559 -1 264
Width: 352
GlyphClass: 2
Flags: HMW
HStem: 163 266<136 216>
VStem: 41 270<257 337>
LayerCount: 2
Fore
SplineSet
176 163 m 0
 96 163 41 216 41 297 c 0
 41 378 96 429 176 429 c 0
 256 429 311 378 311 297 c 0
 311 216 256 163 176 163 c 0
EndSplineSet
Validated: 1
EndChar

StartChar: Agrave.ss01
Encoding: 65560 -1 265
Width: 352
GlyphClass: 2
Flags: HMW
HStem: 163 266<136 216>
VStem: 41 270<257 337>
LayerCount: 2
Fore
SplineSet
176 163 m 0
 96 163 41 216 41 297 c 0
 41 378 96 429 176 429 c 0
 256 429 311 378 311 297 c 0
 311 216 256 163 176 163 c 0
EndSplineSet
Validated: 1
EndChar

StartChar: uni1EA2.ss01
Encoding: 65561 -1 266
Width: 352
GlyphClass: 2
Flags: HMW
HStem: 163 266<136 216>
VStem: 41 270<257 337>
LayerCount: 2
Fore
SplineSet
176 163 m 0
 96 163 41 216 41 297 c 0
 41 378 96 429 176 429 c 0
 256 429 311 378 311 297 c 0
 311 216 256 163 176 163 c 0
EndSplineSet
Validated: 1
EndChar

StartChar: uni0202.ss01
Encoding: 65562 -1 267
Width: 352
GlyphClass: 2
Flags: HMW
HStem: 163 266<136 216>
VStem: 41 270<257 337>
LayerCount: 2
Fore
SplineSet
176 163 m 0
 96 163 41 216 41 297 c 0
 41 378 96 429 176 429 c 0
 256 429 311 378 311 297 c 0
 311 216 256 163 176 163 c 0
EndSplineSet
Validated: 1
EndChar

StartChar: Amacron.ss01
Encoding: 65563 -1 268
Width: 352
GlyphClass: 2
Flags: HMW
HStem: 163 266<136 216>
VStem: 41 270<257 337>
LayerCount: 2
Fore
SplineSet
176 163 m 0
 96 163 41 216 41 297 c 0
 41 378 96 429 176 429 c 0
 256 429 311 378 311 297 c 0
 311 216 256 163 176 163 c 0
EndSplineSet
Validated: 1
EndChar

StartChar: Aogonek.ss01
Encoding: 65564 -1 269
Width: 352
GlyphClass: 2
Flags: HMW
HStem: 163 266<136 216>
VStem: 41 270<257 337>
LayerCount: 2
Fore
SplineSet
176 163 m 0
 96 163 41 216 41 297 c 0
 41 378 96 429 176 429 c 0
 256 429 311 378 311 297 c 0
 311 216 256 163 176 163 c 0
EndSplineSet
Validated: 1
EndChar

StartChar: Aring.ss01
Encoding: 65565 -1 270
Width: 352
GlyphClass: 2
Flags: HMW
HStem: 163 266<136 216>
VStem: 41 270<257 337>
LayerCount: 2
Fore
SplineSet
176 163 m 0
 96 163 41 216 41 297 c 0
 41 378 96 429 176 429 c 0
 256 429 311 378 311 297 c 0
 311 216 256 163 176 163 c 0
EndSplineSet
Validated: 1
EndChar

StartChar: Aringacute.ss01
Encoding: 65566 -1 271
Width: 352
GlyphClass: 2
Flags: HMW
HStem: 163 266<136 216>
VStem: 41 270<257 337>
LayerCount: 2
Fore
SplineSet
176 163 m 0
 96 163 41 216 41 297 c 0
 41 378 96 429 176 429 c 0
 256 429 311 378 311 297 c 0
 311 216 256 163 176 163 c 0
EndSplineSet
Validated: 1
EndChar

StartChar: Atilde.ss01
Encoding: 65567 -1 272
Width: 352
GlyphClass: 2
Flags: HMW
HStem: 163 266<136 216>
VStem: 41 270<257 337>
LayerCount: 2
Fore
SplineSet
176 163 m 0
 96 163 41 216 41 297 c 0
 41 378 96 429 176 429 c 0
 256 429 311 378 311 297 c 0
 311 216 256 163 176 163 c 0
EndSplineSet
Validated: 1
EndChar

StartChar: AE.ss01
Encoding: 65568 -1 273
Width: 352
GlyphClass: 2
Flags: HMW
HStem: 163 266<136 216>
VStem: 41 270<257 337>
LayerCount: 2
Fore
SplineSet
176 163 m 0
 96 163 41 216 41 297 c 0
 41 378 96 429 176 429 c 0
 256 429 311 378 311 297 c 0
 311 216 256 163 176 163 c 0
EndSplineSet
Validated: 1
EndChar

StartChar: AEacute.ss01
Encoding: 65569 -1 274
Width: 352
GlyphClass: 2
Flags: HMW
HStem: 163 266<136 216>
VStem: 41 270<257 337>
LayerCount: 2
Fore
SplineSet
176 163 m 0
 96 163 41 216 41 297 c 0
 41 378 96 429 176 429 c 0
 256 429 311 378 311 297 c 0
 311 216 256 163 176 163 c 0
EndSplineSet
Validated: 1
EndChar

StartChar: uni01C4.ss01
Encoding: 65570 -1 275
Width: 352
GlyphClass: 2
Flags: HMW
HStem: 163 266<136 216>
VStem: 41 270<257 337>
LayerCount: 2
Fore
SplineSet
176 163 m 0
 96 163 41 216 41 297 c 0
 41 378 96 429 176 429 c 0
 256 429 311 378 311 297 c 0
 311 216 256 163 176 163 c 0
EndSplineSet
Validated: 1
EndChar

StartChar: uni01C5.ss01
Encoding: 65571 -1 276
Width: 352
GlyphClass: 2
Flags: HMW
HStem: 163 266<136 216>
VStem: 41 270<257 337>
LayerCount: 2
Fore
SplineSet
176 163 m 0
 96 163 41 216 41 297 c 0
 41 378 96 429 176 429 c 0
 256 429 311 378 311 297 c 0
 311 216 256 163 176 163 c 0
EndSplineSet
Validated: 1
EndChar

StartChar: E.ss01
Encoding: 65572 -1 277
Width: 352
GlyphClass: 2
Flags: HMW
HStem: 163 266<136 216>
VStem: 41 270<257 337>
LayerCount: 2
Fore
SplineSet
176 163 m 0
 96 163 41 216 41 297 c 0
 41 378 96 429 176 429 c 0
 256 429 311 378 311 297 c 0
 311 216 256 163 176 163 c 0
EndSplineSet
Validated: 1
EndChar

StartChar: Eacute.ss01
Encoding: 65573 -1 278
Width: 352
GlyphClass: 2
Flags: HMW
HStem: 163 266<136 216>
VStem: 41 270<257 337>
LayerCount: 2
Fore
SplineSet
176 163 m 0
 96 163 41 216 41 297 c 0
 41 378 96 429 176 429 c 0
 256 429 311 378 311 297 c 0
 311 216 256 163 176 163 c 0
EndSplineSet
Validated: 1
EndChar

StartChar: Ebreve.ss01
Encoding: 65574 -1 279
Width: 352
GlyphClass: 2
Flags: HMW
HStem: 163 266<136 216>
VStem: 41 270<257 337>
LayerCount: 2
Fore
SplineSet
176 163 m 0
 96 163 41 216 41 297 c 0
 41 378 96 429 176 429 c 0
 256 429 311 378 311 297 c 0
 311 216 256 163 176 163 c 0
EndSplineSet
Validated: 1
EndChar

StartChar: Ecaron.ss01
Encoding: 65575 -1 280
Width: 352
GlyphClass: 2
Flags: HMW
HStem: 163 266<136 216>
VStem: 41 270<257 337>
LayerCount: 2
Fore
SplineSet
176 163 m 0
 96 163 41 216 41 297 c 0
 41 378 96 429 176 429 c 0
 256 429 311 378 311 297 c 0
 311 216 256 163 176 163 c 0
EndSplineSet
Validated: 1
EndChar

StartChar: uni1E1C.ss01
Encoding: 65576 -1 281
Width: 352
GlyphClass: 2
Flags: HMW
HStem: 163 266<136 216>
VStem: 41 270<257 337>
LayerCount: 2
Fore
SplineSet
176 163 m 0
 96 163 41 216 41 297 c 0
 41 378 96 429 176 429 c 0
 256 429 311 378 311 297 c 0
 311 216 256 163 176 163 c 0
EndSplineSet
Validated: 1
EndChar

StartChar: Ecircumflex.ss01
Encoding: 65577 -1 282
Width: 352
GlyphClass: 2
Flags: HMW
HStem: 163 266<136 216>
VStem: 41 270<257 337>
LayerCount: 2
Fore
SplineSet
176 163 m 0
 96 163 41 216 41 297 c 0
 41 378 96 429 176 429 c 0
 256 429 311 378 311 297 c 0
 311 216 256 163 176 163 c 0
EndSplineSet
Validated: 1
EndChar

StartChar: uni1EBE.ss01
Encoding: 65578 -1 283
Width: 352
GlyphClass: 2
Flags: HMW
HStem: 163 266<136 216>
VStem: 41 270<257 337>
LayerCount: 2
Fore
SplineSet
176 163 m 0
 96 163 41 216 41 297 c 0
 41 378 96 429 176 429 c 0
 256 429 311 378 311 297 c 0
 311 216 256 163 176 163 c 0
EndSplineSet
Validated: 1
EndChar

StartChar: uni1EC6.ss01
Encoding: 65579 -1 284
Width: 352
GlyphClass: 2
Flags: HMW
HStem: 163 266<136 216>
VStem: 41 270<257 337>
LayerCount: 2
Fore
SplineSet
176 163 m 0
 96 163 41 216 41 297 c 0
 41 378 96 429 176 429 c 0
 256 429 311 378 311 297 c 0
 311 216 256 163 176 163 c 0
EndSplineSet
Validated: 1
EndChar

StartChar: uni1EC0.ss01
Encoding: 65580 -1 285
Width: 352
GlyphClass: 2
Flags: HMW
HStem: 163 266<136 216>
VStem: 41 270<257 337>
LayerCount: 2
Fore
SplineSet
176 163 m 0
 96 163 41 216 41 297 c 0
 41 378 96 429 176 429 c 0
 256 429 311 378 311 297 c 0
 311 216 256 163 176 163 c 0
EndSplineSet
Validated: 1
EndChar

StartChar: uni1EC2.ss01
Encoding: 65581 -1 286
Width: 352
GlyphClass: 2
Flags: HMW
HStem: 163 266<136 216>
VStem: 41 270<257 337>
LayerCount: 2
Fore
SplineSet
176 163 m 0
 96 163 41 216 41 297 c 0
 41 378 96 429 176 429 c 0
 256 429 311 378 311 297 c 0
 311 216 256 163 176 163 c 0
EndSplineSet
Validated: 1
EndChar

StartChar: uni1EC4.ss01
Encoding: 65582 -1 287
Width: 352
GlyphClass: 2
Flags: HMW
HStem: 163 266<136 216>
VStem: 41 270<257 337>
LayerCount: 2
Fore
SplineSet
176 163 m 0
 96 163 41 216 41 297 c 0
 41 378 96 429 176 429 c 0
 256 429 311 378 311 297 c 0
 311 216 256 163 176 163 c 0
EndSplineSet
Validated: 1
EndChar

StartChar: uni0204.ss01
Encoding: 65583 -1 288
Width: 352
GlyphClass: 2
Flags: HMW
HStem: 163 266<136 216>
VStem: 41 270<257 337>
LayerCount: 2
Fore
SplineSet
176 163 m 0
 96 163 41 216 41 297 c 0
 41 378 96 429 176 429 c 0
 256 429 311 378 311 297 c 0
 311 216 256 163 176 163 c 0
EndSplineSet
Validated: 1
EndChar

StartChar: Edieresis.ss01
Encoding: 65584 -1 289
Width: 352
GlyphClass: 2
Flags: HMW
HStem: 163 266<136 216>
VStem: 41 270<257 337>
LayerCount: 2
Fore
SplineSet
176 163 m 0
 96 163 41 216 41 297 c 0
 41 378 96 429 176 429 c 0
 256 429 311 378 311 297 c 0
 311 216 256 163 176 163 c 0
EndSplineSet
Validated: 1
EndChar

StartChar: Edotaccent.ss01
Encoding: 65585 -1 290
Width: 352
GlyphClass: 2
Flags: HMW
HStem: 163 266<136 216>
VStem: 41 270<257 337>
LayerCount: 2
Fore
SplineSet
176 163 m 0
 96 163 41 216 41 297 c 0
 41 378 96 429 176 429 c 0
 256 429 311 378 311 297 c 0
 311 216 256 163 176 163 c 0
EndSplineSet
Validated: 1
EndChar

StartChar: uni1EB8.ss01
Encoding: 65586 -1 291
Width: 352
GlyphClass: 2
Flags: HMW
HStem: 163 266<136 216>
VStem: 41 270<257 337>
LayerCount: 2
Fore
SplineSet
176 163 m 0
 96 163 41 216 41 297 c 0
 41 378 96 429 176 429 c 0
 256 429 311 378 311 297 c 0
 311 216 256 163 176 163 c 0
EndSplineSet
Validated: 1
EndChar

StartChar: Egrave.ss01
Encoding: 65587 -1 292
Width: 352
GlyphClass: 2
Flags: HMW
HStem: 163 266<136 216>
VStem: 41 270<257 337>
LayerCount: 2
Fore
SplineSet
176 163 m 0
 96 163 41 216 41 297 c 0
 41 378 96 429 176 429 c 0
 256 429 311 378 311 297 c 0
 311 216 256 163 176 163 c 0
EndSplineSet
Validated: 1
EndChar

StartChar: uni1EBA.ss01
Encoding: 65588 -1 293
Width: 352
GlyphClass: 2
Flags: HMW
HStem: 163 266<136 216>
VStem: 41 270<257 337>
LayerCount: 2
Fore
SplineSet
176 163 m 0
 96 163 41 216 41 297 c 0
 41 378 96 429 176 429 c 0
 256 429 311 378 311 297 c 0
 311 216 256 163 176 163 c 0
EndSplineSet
Validated: 1
EndChar

StartChar: uni0206.ss01
Encoding: 65589 -1 294
Width: 352
GlyphClass: 2
Flags: HMW
HStem: 163 266<136 216>
VStem: 41 270<257 337>
LayerCount: 2
Fore
SplineSet
176 163 m 0
 96 163 41 216 41 297 c 0
 41 378 96 429 176 429 c 0
 256 429 311 378 311 297 c 0
 311 216 256 163 176 163 c 0
EndSplineSet
Validated: 1
EndChar

StartChar: Emacron.ss01
Encoding: 65590 -1 295
Width: 352
GlyphClass: 2
Flags: HMW
HStem: 163 266<136 216>
VStem: 41 270<257 337>
LayerCount: 2
Fore
SplineSet
176 163 m 0
 96 163 41 216 41 297 c 0
 41 378 96 429 176 429 c 0
 256 429 311 378 311 297 c 0
 311 216 256 163 176 163 c 0
EndSplineSet
Validated: 1
EndChar

StartChar: uni1E16.ss01
Encoding: 65591 -1 296
Width: 352
GlyphClass: 2
Flags: HMW
HStem: 163 266<136 216>
VStem: 41 270<257 337>
LayerCount: 2
Fore
SplineSet
176 163 m 0
 96 163 41 216 41 297 c 0
 41 378 96 429 176 429 c 0
 256 429 311 378 311 297 c 0
 311 216 256 163 176 163 c 0
EndSplineSet
Validated: 1
EndChar

StartChar: uni1E14.ss01
Encoding: 65592 -1 297
Width: 352
GlyphClass: 2
Flags: HMW
HStem: 163 266<136 216>
VStem: 41 270<257 337>
LayerCount: 2
Fore
SplineSet
176 163 m 0
 96 163 41 216 41 297 c 0
 41 378 96 429 176 429 c 0
 256 429 311 378 311 297 c 0
 311 216 256 163 176 163 c 0
EndSplineSet
Validated: 1
EndChar

StartChar: Eogonek.ss01
Encoding: 65593 -1 298
Width: 352
GlyphClass: 2
Flags: HMW
HStem: 163 266<136 216>
VStem: 41 270<257 337>
LayerCount: 2
Fore
SplineSet
176 163 m 0
 96 163 41 216 41 297 c 0
 41 378 96 429 176 429 c 0
 256 429 311 378 311 297 c 0
 311 216 256 163 176 163 c 0
EndSplineSet
Validated: 1
EndChar

StartChar: uni1EBC.ss01
Encoding: 65594 -1 299
Width: 352
GlyphClass: 2
Flags: HMW
HStem: 163 266<136 216>
VStem: 41 270<257 337>
LayerCount: 2
Fore
SplineSet
176 163 m 0
 96 163 41 216 41 297 c 0
 41 378 96 429 176 429 c 0
 256 429 311 378 311 297 c 0
 311 216 256 163 176 163 c 0
EndSplineSet
Validated: 1
EndChar

StartChar: F.ss01
Encoding: 65595 -1 300
Width: 352
GlyphClass: 1
Flags: HMW
HStem: 163 266<136 216>
VStem: 41 270<257 337>
LayerCount: 2
Fore
SplineSet
176 163 m 0
 96 163 41 216 41 297 c 0
 41 378 96 429 176 429 c 0
 256 429 311 378 311 297 c 0
 311 216 256 163 176 163 c 0
EndSplineSet
Validated: 1
EndChar

StartChar: G.ss01
Encoding: 65596 -1 301
Width: 352
GlyphClass: 2
Flags: HMW
HStem: 163 266<136 216>
VStem: 41 270<257 337>
LayerCount: 2
Fore
SplineSet
176 163 m 0
 96 163 41 216 41 297 c 0
 41 378 96 429 176 429 c 0
 256 429 311 378 311 297 c 0
 311 216 256 163 176 163 c 0
EndSplineSet
Validated: 1
EndChar

StartChar: Gbreve.ss01
Encoding: 65597 -1 302
Width: 352
GlyphClass: 2
Flags: HMW
HStem: 163 266<136 216>
VStem: 41 270<257 337>
LayerCount: 2
Fore
SplineSet
176 163 m 0
 96 163 41 216 41 297 c 0
 41 378 96 429 176 429 c 0
 256 429 311 378 311 297 c 0
 311 216 256 163 176 163 c 0
EndSplineSet
Validated: 1
EndChar

StartChar: Gcaron.ss01
Encoding: 65598 -1 303
Width: 352
GlyphClass: 2
Flags: HMW
HStem: 163 266<136 216>
VStem: 41 270<257 337>
LayerCount: 2
Fore
SplineSet
176 163 m 0
 96 163 41 216 41 297 c 0
 41 378 96 429 176 429 c 0
 256 429 311 378 311 297 c 0
 311 216 256 163 176 163 c 0
EndSplineSet
Validated: 1
EndChar

StartChar: Gcircumflex.ss01
Encoding: 65599 -1 304
Width: 352
GlyphClass: 2
Flags: HMW
HStem: 163 266<136 216>
VStem: 41 270<257 337>
LayerCount: 2
Fore
SplineSet
176 163 m 0
 96 163 41 216 41 297 c 0
 41 378 96 429 176 429 c 0
 256 429 311 378 311 297 c 0
 311 216 256 163 176 163 c 0
EndSplineSet
Validated: 1
EndChar

StartChar: Gcommaaccent.ss01
Encoding: 65600 -1 305
Width: 352
GlyphClass: 2
Flags: HMW
HStem: 163 266<136 216>
VStem: 41 270<257 337>
LayerCount: 2
Fore
SplineSet
176 163 m 0
 96 163 41 216 41 297 c 0
 41 378 96 429 176 429 c 0
 256 429 311 378 311 297 c 0
 311 216 256 163 176 163 c 0
EndSplineSet
Validated: 1
EndChar

StartChar: Gdotaccent.ss01
Encoding: 65601 -1 306
Width: 352
GlyphClass: 2
Flags: HMW
HStem: 163 266<136 216>
VStem: 41 270<257 337>
LayerCount: 2
Fore
SplineSet
176 163 m 0
 96 163 41 216 41 297 c 0
 41 378 96 429 176 429 c 0
 256 429 311 378 311 297 c 0
 311 216 256 163 176 163 c 0
EndSplineSet
Validated: 1
EndChar

StartChar: uni1E20.ss01
Encoding: 65602 -1 307
Width: 352
GlyphClass: 2
Flags: HMW
HStem: 163 266<136 216>
VStem: 41 270<257 337>
LayerCount: 2
Fore
SplineSet
176 163 m 0
 96 163 41 216 41 297 c 0
 41 378 96 429 176 429 c 0
 256 429 311 378 311 297 c 0
 311 216 256 163 176 163 c 0
EndSplineSet
Validated: 1
EndChar

StartChar: uni01E4.ss01
Encoding: 65603 -1 308
Width: 352
GlyphClass: 2
Flags: HMW
HStem: 163 266<136 216>
VStem: 41 270<257 337>
LayerCount: 2
Fore
SplineSet
176 163 m 0
 96 163 41 216 41 297 c 0
 41 378 96 429 176 429 c 0
 256 429 311 378 311 297 c 0
 311 216 256 163 176 163 c 0
EndSplineSet
Validated: 1
EndChar

StartChar: I.ss01
Encoding: 65604 -1 309
Width: 352
GlyphClass: 2
Flags: HMW
HStem: 163 266<136 216>
VStem: 41 270<257 337>
LayerCount: 2
Fore
SplineSet
176 163 m 0
 96 163 41 216 41 297 c 0
 41 378 96 429 176 429 c 0
 256 429 311 378 311 297 c 0
 311 216 256 163 176 163 c 0
EndSplineSet
Validated: 1
EndChar

StartChar: IJ.ss01
Encoding: 65605 -1 310
Width: 352
GlyphClass: 2
Flags: HMW
HStem: 163 266<136 216>
VStem: 41 270<257 337>
LayerCount: 2
Fore
SplineSet
176 163 m 0
 96 163 41 216 41 297 c 0
 41 378 96 429 176 429 c 0
 256 429 311 378 311 297 c 0
 311 216 256 163 176 163 c 0
EndSplineSet
Validated: 1
EndChar

StartChar: Iacute.ss01
Encoding: 65606 -1 311
Width: 352
GlyphClass: 2
Flags: HMW
HStem: 163 266<136 216>
VStem: 41 270<257 337>
LayerCount: 2
Fore
SplineSet
176 163 m 0
 96 163 41 216 41 297 c 0
 41 378 96 429 176 429 c 0
 256 429 311 378 311 297 c 0
 311 216 256 163 176 163 c 0
EndSplineSet
Validated: 1
EndChar

StartChar: Iacute_J.loclNLD.ss01
Encoding: 65607 -1 312
Width: 352
GlyphClass: 1
Flags: HMW
HStem: 163 266<136 216>
VStem: 41 270<257 337>
LayerCount: 2
Fore
SplineSet
176 163 m 0
 96 163 41 216 41 297 c 0
 41 378 96 429 176 429 c 0
 256 429 311 378 311 297 c 0
 311 216 256 163 176 163 c 0
EndSplineSet
Validated: 1
EndChar

StartChar: Ibreve.ss01
Encoding: 65608 -1 313
Width: 352
GlyphClass: 2
Flags: HMW
HStem: 163 266<136 216>
VStem: 41 270<257 337>
LayerCount: 2
Fore
SplineSet
176 163 m 0
 96 163 41 216 41 297 c 0
 41 378 96 429 176 429 c 0
 256 429 311 378 311 297 c 0
 311 216 256 163 176 163 c 0
EndSplineSet
Validated: 1
EndChar

StartChar: Icircumflex.ss01
Encoding: 65609 -1 314
Width: 352
GlyphClass: 2
Flags: HMW
HStem: 163 266<136 216>
VStem: 41 270<257 337>
LayerCount: 2
Fore
SplineSet
176 163 m 0
 96 163 41 216 41 297 c 0
 41 378 96 429 176 429 c 0
 256 429 311 378 311 297 c 0
 311 216 256 163 176 163 c 0
EndSplineSet
Validated: 1
EndChar

StartChar: uni0208.ss01
Encoding: 65610 -1 315
Width: 352
GlyphClass: 2
Flags: HMW
HStem: 163 266<136 216>
VStem: 41 270<257 337>
LayerCount: 2
Fore
SplineSet
176 163 m 0
 96 163 41 216 41 297 c 0
 41 378 96 429 176 429 c 0
 256 429 311 378 311 297 c 0
 311 216 256 163 176 163 c 0
EndSplineSet
Validated: 1
EndChar

StartChar: Idieresis.ss01
Encoding: 65611 -1 316
Width: 352
GlyphClass: 2
Flags: HMW
HStem: 163 266<136 216>
VStem: 41 270<257 337>
LayerCount: 2
Fore
SplineSet
176 163 m 0
 96 163 41 216 41 297 c 0
 41 378 96 429 176 429 c 0
 256 429 311 378 311 297 c 0
 311 216 256 163 176 163 c 0
EndSplineSet
Validated: 1
EndChar

StartChar: uni1E2E.ss01
Encoding: 65612 -1 317
Width: 352
GlyphClass: 2
Flags: HMW
HStem: 163 266<136 216>
VStem: 41 270<257 337>
LayerCount: 2
Fore
SplineSet
176 163 m 0
 96 163 41 216 41 297 c 0
 41 378 96 429 176 429 c 0
 256 429 311 378 311 297 c 0
 311 216 256 163 176 163 c 0
EndSplineSet
Validated: 1
EndChar

StartChar: Idotaccent.ss01
Encoding: 65613 -1 318
Width: 352
GlyphClass: 2
Flags: HMW
HStem: 163 266<136 216>
VStem: 41 270<257 337>
LayerCount: 2
Fore
SplineSet
176 163 m 0
 96 163 41 216 41 297 c 0
 41 378 96 429 176 429 c 0
 256 429 311 378 311 297 c 0
 311 216 256 163 176 163 c 0
EndSplineSet
Validated: 1
EndChar

StartChar: uni1ECA.ss01
Encoding: 65614 -1 319
Width: 352
GlyphClass: 2
Flags: HMW
HStem: 163 266<136 216>
VStem: 41 270<257 337>
LayerCount: 2
Fore
SplineSet
176 163 m 0
 96 163 41 216 41 297 c 0
 41 378 96 429 176 429 c 0
 256 429 311 378 311 297 c 0
 311 216 256 163 176 163 c 0
EndSplineSet
Validated: 1
EndChar

StartChar: Igrave.ss01
Encoding: 65615 -1 320
Width: 352
GlyphClass: 2
Flags: HMW
HStem: 163 266<136 216>
VStem: 41 270<257 337>
LayerCount: 2
Fore
SplineSet
176 163 m 0
 96 163 41 216 41 297 c 0
 41 378 96 429 176 429 c 0
 256 429 311 378 311 297 c 0
 311 216 256 163 176 163 c 0
EndSplineSet
Validated: 1
EndChar

StartChar: uni1EC8.ss01
Encoding: 65616 -1 321
Width: 352
GlyphClass: 2
Flags: HMW
HStem: 163 266<136 216>
VStem: 41 270<257 337>
LayerCount: 2
Fore
SplineSet
176 163 m 0
 96 163 41 216 41 297 c 0
 41 378 96 429 176 429 c 0
 256 429 311 378 311 297 c 0
 311 216 256 163 176 163 c 0
EndSplineSet
Validated: 1
EndChar

StartChar: uni020A.ss01
Encoding: 65617 -1 322
Width: 352
GlyphClass: 2
Flags: HMW
HStem: 163 266<136 216>
VStem: 41 270<257 337>
LayerCount: 2
Fore
SplineSet
176 163 m 0
 96 163 41 216 41 297 c 0
 41 378 96 429 176 429 c 0
 256 429 311 378 311 297 c 0
 311 216 256 163 176 163 c 0
EndSplineSet
Validated: 1
EndChar

StartChar: Imacron.ss01
Encoding: 65618 -1 323
Width: 352
GlyphClass: 2
Flags: HMW
HStem: 163 266<136 216>
VStem: 41 270<257 337>
LayerCount: 2
Fore
SplineSet
176 163 m 0
 96 163 41 216 41 297 c 0
 41 378 96 429 176 429 c 0
 256 429 311 378 311 297 c 0
 311 216 256 163 176 163 c 0
EndSplineSet
Validated: 1
EndChar

StartChar: Iogonek.ss01
Encoding: 65619 -1 324
Width: 352
GlyphClass: 2
Flags: HMW
HStem: 163 266<136 216>
VStem: 41 270<257 337>
LayerCount: 2
Fore
SplineSet
176 163 m 0
 96 163 41 216 41 297 c 0
 41 378 96 429 176 429 c 0
 256 429 311 378 311 297 c 0
 311 216 256 163 176 163 c 0
EndSplineSet
Validated: 1
EndChar

StartChar: Itilde.ss01
Encoding: 65620 -1 325
Width: 352
GlyphClass: 2
Flags: HMW
HStem: 163 266<136 216>
VStem: 41 270<257 337>
LayerCount: 2
Fore
SplineSet
176 163 m 0
 96 163 41 216 41 297 c 0
 41 378 96 429 176 429 c 0
 256 429 311 378 311 297 c 0
 311 216 256 163 176 163 c 0
EndSplineSet
Validated: 1
EndChar

StartChar: J.ss01
Encoding: 65621 -1 326
Width: 352
GlyphClass: 2
Flags: HMW
HStem: 163 266<136 216>
VStem: 41 270<257 337>
LayerCount: 2
Fore
SplineSet
176 163 m 0
 96 163 41 216 41 297 c 0
 41 378 96 429 176 429 c 0
 256 429 311 378 311 297 c 0
 311 216 256 163 176 163 c 0
EndSplineSet
Validated: 1
EndChar

StartChar: uni00A40301.ss01
Encoding: 65622 -1 327
Width: 352
GlyphClass: 2
Flags: HMW
HStem: 163 266<136 216>
VStem: 41 270<257 337>
LayerCount: 2
Fore
SplineSet
176 163 m 0
 96 163 41 216 41 297 c 0
 41 378 96 429 176 429 c 0
 256 429 311 378 311 297 c 0
 311 216 256 163 176 163 c 0
EndSplineSet
Validated: 1
EndChar

StartChar: Jcircumflex.ss01
Encoding: 65623 -1 328
Width: 352
GlyphClass: 2
Flags: HMW
HStem: 163 266<136 216>
VStem: 41 270<257 337>
LayerCount: 2
Fore
SplineSet
176 163 m 0
 96 163 41 216 41 297 c 0
 41 378 96 429 176 429 c 0
 256 429 311 378 311 297 c 0
 311 216 256 163 176 163 c 0
EndSplineSet
Validated: 1
EndChar

StartChar: uni01C7.ss01
Encoding: 65624 -1 329
Width: 352
GlyphClass: 2
Flags: HMW
HStem: 163 266<136 216>
VStem: 41 270<257 337>
LayerCount: 2
Fore
SplineSet
176 163 m 0
 96 163 41 216 41 297 c 0
 41 378 96 429 176 429 c 0
 256 429 311 378 311 297 c 0
 311 216 256 163 176 163 c 0
EndSplineSet
Validated: 1
EndChar

StartChar: M.ss01
Encoding: 65625 -1 330
Width: 352
GlyphClass: 2
Flags: HMW
HStem: 163 266<136 216>
VStem: 41 270<257 337>
LayerCount: 2
Fore
SplineSet
176 163 m 0
 96 163 41 216 41 297 c 0
 41 378 96 429 176 429 c 0
 256 429 311 378 311 297 c 0
 311 216 256 163 176 163 c 0
EndSplineSet
Validated: 1
EndChar

StartChar: uni1E42.ss01
Encoding: 65626 -1 331
Width: 352
GlyphClass: 2
Flags: HMW
HStem: 163 266<136 216>
VStem: 41 270<257 337>
LayerCount: 2
Fore
SplineSet
176 163 m 0
 96 163 41 216 41 297 c 0
 41 378 96 429 176 429 c 0
 256 429 311 378 311 297 c 0
 311 216 256 163 176 163 c 0
EndSplineSet
Validated: 1
EndChar

StartChar: N.ss01
Encoding: 65627 -1 332
Width: 352
GlyphClass: 2
Flags: HMW
HStem: 163 266<136 216>
VStem: 41 270<257 337>
LayerCount: 2
Fore
SplineSet
176 163 m 0
 96 163 41 216 41 297 c 0
 41 378 96 429 176 429 c 0
 256 429 311 378 311 297 c 0
 311 216 256 163 176 163 c 0
EndSplineSet
Validated: 1
EndChar

StartChar: uni01CA.ss01
Encoding: 65628 -1 333
Width: 352
GlyphClass: 2
Flags: HMW
HStem: 163 266<136 216>
VStem: 41 270<257 337>
LayerCount: 2
Fore
SplineSet
176 163 m 0
 96 163 41 216 41 297 c 0
 41 378 96 429 176 429 c 0
 256 429 311 378 311 297 c 0
 311 216 256 163 176 163 c 0
EndSplineSet
Validated: 1
EndChar

StartChar: Nacute.ss01
Encoding: 65629 -1 334
Width: 352
GlyphClass: 2
Flags: HMW
HStem: 163 266<136 216>
VStem: 41 270<257 337>
LayerCount: 2
Fore
SplineSet
176 163 m 0
 96 163 41 216 41 297 c 0
 41 378 96 429 176 429 c 0
 256 429 311 378 311 297 c 0
 311 216 256 163 176 163 c 0
EndSplineSet
Validated: 1
EndChar

StartChar: Ncaron.ss01
Encoding: 65630 -1 335
Width: 352
GlyphClass: 2
Flags: HMW
HStem: 163 266<136 216>
VStem: 41 270<257 337>
LayerCount: 2
Fore
SplineSet
176 163 m 0
 96 163 41 216 41 297 c 0
 41 378 96 429 176 429 c 0
 256 429 311 378 311 297 c 0
 311 216 256 163 176 163 c 0
EndSplineSet
Validated: 1
EndChar

StartChar: Ncommaaccent.ss01
Encoding: 65631 -1 336
Width: 352
GlyphClass: 2
Flags: HMW
HStem: 163 266<136 216>
VStem: 41 270<257 337>
LayerCount: 2
Fore
SplineSet
176 163 m 0
 96 163 41 216 41 297 c 0
 41 378 96 429 176 429 c 0
 256 429 311 378 311 297 c 0
 311 216 256 163 176 163 c 0
EndSplineSet
Validated: 1
EndChar

StartChar: uni1E44.ss01
Encoding: 65632 -1 337
Width: 352
GlyphClass: 2
Flags: HMW
HStem: 163 266<136 216>
VStem: 41 270<257 337>
LayerCount: 2
Fore
SplineSet
176 163 m 0
 96 163 41 216 41 297 c 0
 41 378 96 429 176 429 c 0
 256 429 311 378 311 297 c 0
 311 216 256 163 176 163 c 0
EndSplineSet
Validated: 1
EndChar

StartChar: uni1E46.ss01
Encoding: 65633 -1 338
Width: 352
GlyphClass: 2
Flags: HMW
HStem: 163 266<136 216>
VStem: 41 270<257 337>
LayerCount: 2
Fore
SplineSet
176 163 m 0
 96 163 41 216 41 297 c 0
 41 378 96 429 176 429 c 0
 256 429 311 378 311 297 c 0
 311 216 256 163 176 163 c 0
EndSplineSet
Validated: 1
EndChar

StartChar: Eng.ss01
Encoding: 65634 -1 339
Width: 352
GlyphClass: 1
Flags: HMW
HStem: 163 266<136 216>
VStem: 41 270<257 337>
LayerCount: 2
Fore
SplineSet
176 163 m 0
 96 163 41 216 41 297 c 0
 41 378 96 429 176 429 c 0
 256 429 311 378 311 297 c 0
 311 216 256 163 176 163 c 0
EndSplineSet
Validated: 1
EndChar

StartChar: uni01CB.ss01
Encoding: 65635 -1 340
Width: 352
GlyphClass: 2
Flags: HMW
HStem: 163 266<136 216>
VStem: 41 270<257 337>
LayerCount: 2
Fore
SplineSet
176 163 m 0
 96 163 41 216 41 297 c 0
 41 378 96 429 176 429 c 0
 256 429 311 378 311 297 c 0
 311 216 256 163 176 163 c 0
EndSplineSet
Validated: 1
EndChar

StartChar: uni1E48.ss01
Encoding: 65636 -1 341
Width: 352
GlyphClass: 2
Flags: HMW
HStem: 163 266<136 216>
VStem: 41 270<257 337>
LayerCount: 2
Fore
SplineSet
176 163 m 0
 96 163 41 216 41 297 c 0
 41 378 96 429 176 429 c 0
 256 429 311 378 311 297 c 0
 311 216 256 163 176 163 c 0
EndSplineSet
Validated: 1
EndChar

StartChar: Ntilde.ss01
Encoding: 65637 -1 342
Width: 352
GlyphClass: 2
Flags: HMW
HStem: 163 266<136 216>
VStem: 41 270<257 337>
LayerCount: 2
Fore
SplineSet
176 163 m 0
 96 163 41 216 41 297 c 0
 41 378 96 429 176 429 c 0
 256 429 311 378 311 297 c 0
 311 216 256 163 176 163 c 0
EndSplineSet
Validated: 1
EndChar

StartChar: Q.ss01
Encoding: 65638 -1 343
Width: 352
GlyphClass: 1
Flags: HMW
HStem: 163 266<136 216>
VStem: 41 270<257 337>
LayerCount: 2
Fore
SplineSet
176 163 m 0
 96 163 41 216 41 297 c 0
 41 378 96 429 176 429 c 0
 256 429 311 378 311 297 c 0
 311 216 256 163 176 163 c 0
EndSplineSet
Validated: 1
EndChar

StartChar: uni018F.ss01
Encoding: 65639 -1 344
Width: 352
GlyphClass: 2
Flags: HMW
HStem: 163 266<136 216>
VStem: 41 270<257 337>
LayerCount: 2
Fore
SplineSet
176 163 m 0
 96 163 41 216 41 297 c 0
 41 378 96 429 176 429 c 0
 256 429 311 378 311 297 c 0
 311 216 256 163 176 163 c 0
EndSplineSet
Validated: 1
EndChar

StartChar: T.ss01
Encoding: 65640 -1 345
Width: 352
GlyphClass: 2
Flags: HMW
HStem: 163 266<136 216>
VStem: 41 270<257 337>
LayerCount: 2
Fore
SplineSet
176 163 m 0
 96 163 41 216 41 297 c 0
 41 378 96 429 176 429 c 0
 256 429 311 378 311 297 c 0
 311 216 256 163 176 163 c 0
EndSplineSet
Validated: 1
EndChar

StartChar: Tbar.ss01
Encoding: 65641 -1 346
Width: 352
GlyphClass: 2
Flags: HMW
HStem: 163 266<136 216>
VStem: 41 270<257 337>
LayerCount: 2
Fore
SplineSet
176 163 m 0
 96 163 41 216 41 297 c 0
 41 378 96 429 176 429 c 0
 256 429 311 378 311 297 c 0
 311 216 256 163 176 163 c 0
EndSplineSet
Validated: 1
EndChar

StartChar: Tcaron.ss01
Encoding: 65642 -1 347
Width: 352
GlyphClass: 2
Flags: HMW
HStem: 163 266<136 216>
VStem: 41 270<257 337>
LayerCount: 2
Fore
SplineSet
176 163 m 0
 96 163 41 216 41 297 c 0
 41 378 96 429 176 429 c 0
 256 429 311 378 311 297 c 0
 311 216 256 163 176 163 c 0
EndSplineSet
Validated: 1
EndChar

StartChar: uni0162.ss01
Encoding: 65643 -1 348
Width: 352
GlyphClass: 2
Flags: HMW
HStem: 163 266<136 216>
VStem: 41 270<257 337>
LayerCount: 2
Fore
SplineSet
176 163 m 0
 96 163 41 216 41 297 c 0
 41 378 96 429 176 429 c 0
 256 429 311 378 311 297 c 0
 311 216 256 163 176 163 c 0
EndSplineSet
Validated: 1
EndChar

StartChar: uni021A.ss01
Encoding: 65644 -1 349
Width: 352
GlyphClass: 2
Flags: HMW
HStem: 163 266<136 216>
VStem: 41 270<257 337>
LayerCount: 2
Fore
SplineSet
176 163 m 0
 96 163 41 216 41 297 c 0
 41 378 96 429 176 429 c 0
 256 429 311 378 311 297 c 0
 311 216 256 163 176 163 c 0
EndSplineSet
Validated: 1
EndChar

StartChar: uni1E6C.ss01
Encoding: 65645 -1 350
Width: 352
GlyphClass: 2
Flags: HMW
HStem: 163 266<136 216>
VStem: 41 270<257 337>
LayerCount: 2
Fore
SplineSet
176 163 m 0
 96 163 41 216 41 297 c 0
 41 378 96 429 176 429 c 0
 256 429 311 378 311 297 c 0
 311 216 256 163 176 163 c 0
EndSplineSet
Validated: 1
EndChar

StartChar: uni1E6E.ss01
Encoding: 65646 -1 351
Width: 352
GlyphClass: 2
Flags: HMW
HStem: 163 266<136 216>
VStem: 41 270<257 337>
LayerCount: 2
Fore
SplineSet
176 163 m 0
 96 163 41 216 41 297 c 0
 41 378 96 429 176 429 c 0
 256 429 311 378 311 297 c 0
 311 216 256 163 176 163 c 0
EndSplineSet
Validated: 1
EndChar

StartChar: U.ss01
Encoding: 65647 -1 352
Width: 352
GlyphClass: 2
Flags: HMW
HStem: 163 266<136 216>
VStem: 41 270<257 337>
LayerCount: 2
Fore
SplineSet
176 163 m 0
 96 163 41 216 41 297 c 0
 41 378 96 429 176 429 c 0
 256 429 311 378 311 297 c 0
 311 216 256 163 176 163 c 0
EndSplineSet
Validated: 1
EndChar

StartChar: Uacute.ss01
Encoding: 65648 -1 353
Width: 352
GlyphClass: 2
Flags: HMW
HStem: 163 266<136 216>
VStem: 41 270<257 337>
LayerCount: 2
Fore
SplineSet
176 163 m 0
 96 163 41 216 41 297 c 0
 41 378 96 429 176 429 c 0
 256 429 311 378 311 297 c 0
 311 216 256 163 176 163 c 0
EndSplineSet
Validated: 1
EndChar

StartChar: Ubreve.ss01
Encoding: 65649 -1 354
Width: 352
GlyphClass: 2
Flags: HMW
HStem: 163 266<136 216>
VStem: 41 270<257 337>
LayerCount: 2
Fore
SplineSet
176 163 m 0
 96 163 41 216 41 297 c 0
 41 378 96 429 176 429 c 0
 256 429 311 378 311 297 c 0
 311 216 256 163 176 163 c 0
EndSplineSet
Validated: 1
EndChar

StartChar: uni01D3.ss01
Encoding: 65650 -1 355
Width: 352
GlyphClass: 2
Flags: HMW
HStem: 163 266<136 216>
VStem: 41 270<257 337>
LayerCount: 2
Fore
SplineSet
176 163 m 0
 96 163 41 216 41 297 c 0
 41 378 96 429 176 429 c 0
 256 429 311 378 311 297 c 0
 311 216 256 163 176 163 c 0
EndSplineSet
Validated: 1
EndChar

StartChar: Ucircumflex.ss01
Encoding: 65651 -1 356
Width: 352
GlyphClass: 2
Flags: HMW
HStem: 163 266<136 216>
VStem: 41 270<257 337>
LayerCount: 2
Fore
SplineSet
176 163 m 0
 96 163 41 216 41 297 c 0
 41 378 96 429 176 429 c 0
 256 429 311 378 311 297 c 0
 311 216 256 163 176 163 c 0
EndSplineSet
Validated: 1
EndChar

StartChar: uni0214.ss01
Encoding: 65652 -1 357
Width: 352
GlyphClass: 2
Flags: HMW
HStem: 163 266<136 216>
VStem: 41 270<257 337>
LayerCount: 2
Fore
SplineSet
176 163 m 0
 96 163 41 216 41 297 c 0
 41 378 96 429 176 429 c 0
 256 429 311 378 311 297 c 0
 311 216 256 163 176 163 c 0
EndSplineSet
Validated: 1
EndChar

StartChar: Udieresis.ss01
Encoding: 65653 -1 358
Width: 352
GlyphClass: 2
Flags: HMW
HStem: 163 266<136 216>
VStem: 41 270<257 337>
LayerCount: 2
Fore
SplineSet
176 163 m 0
 96 163 41 216 41 297 c 0
 41 378 96 429 176 429 c 0
 256 429 311 378 311 297 c 0
 311 216 256 163 176 163 c 0
EndSplineSet
Validated: 1
EndChar

StartChar: uni1EE4.ss01
Encoding: 65654 -1 359
Width: 352
GlyphClass: 2
Flags: HMW
HStem: 163 266<136 216>
VStem: 41 270<257 337>
LayerCount: 2
Fore
SplineSet
176 163 m 0
 96 163 41 216 41 297 c 0
 41 378 96 429 176 429 c 0
 256 429 311 378 311 297 c 0
 311 216 256 163 176 163 c 0
EndSplineSet
Validated: 1
EndChar

StartChar: Ugrave.ss01
Encoding: 65655 -1 360
Width: 352
GlyphClass: 2
Flags: HMW
HStem: 163 266<136 216>
VStem: 41 270<257 337>
LayerCount: 2
Fore
SplineSet
176 163 m 0
 96 163 41 216 41 297 c 0
 41 378 96 429 176 429 c 0
 256 429 311 378 311 297 c 0
 311 216 256 163 176 163 c 0
EndSplineSet
Validated: 1
EndChar

StartChar: uni1EE6.ss01
Encoding: 65656 -1 361
Width: 352
GlyphClass: 2
Flags: HMW
HStem: 163 266<136 216>
VStem: 41 270<257 337>
LayerCount: 2
Fore
SplineSet
176 163 m 0
 96 163 41 216 41 297 c 0
 41 378 96 429 176 429 c 0
 256 429 311 378 311 297 c 0
 311 216 256 163 176 163 c 0
EndSplineSet
Validated: 1
EndChar

StartChar: Uhorn.ss01
Encoding: 65657 -1 362
Width: 352
GlyphClass: 2
Flags: HMW
HStem: 163 266<136 216>
VStem: 41 270<257 337>
LayerCount: 2
Fore
SplineSet
176 163 m 0
 96 163 41 216 41 297 c 0
 41 378 96 429 176 429 c 0
 256 429 311 378 311 297 c 0
 311 216 256 163 176 163 c 0
EndSplineSet
Validated: 1
EndChar

StartChar: uni1EE8.ss01
Encoding: 65658 -1 363
Width: 352
GlyphClass: 2
Flags: HMW
HStem: 163 266<136 216>
VStem: 41 270<257 337>
LayerCount: 2
Fore
SplineSet
176 163 m 0
 96 163 41 216 41 297 c 0
 41 378 96 429 176 429 c 0
 256 429 311 378 311 297 c 0
 311 216 256 163 176 163 c 0
EndSplineSet
Validated: 1
EndChar

StartChar: uni1EF0.ss01
Encoding: 65659 -1 364
Width: 352
GlyphClass: 2
Flags: HMW
HStem: 163 266<136 216>
VStem: 41 270<257 337>
LayerCount: 2
Fore
SplineSet
176 163 m 0
 96 163 41 216 41 297 c 0
 41 378 96 429 176 429 c 0
 256 429 311 378 311 297 c 0
 311 216 256 163 176 163 c 0
EndSplineSet
Validated: 1
EndChar

StartChar: uni1EEA.ss01
Encoding: 65660 -1 365
Width: 352
GlyphClass: 2
Flags: HMW
HStem: 163 266<136 216>
VStem: 41 270<257 337>
LayerCount: 2
Fore
SplineSet
176 163 m 0
 96 163 41 216 41 297 c 0
 41 378 96 429 176 429 c 0
 256 429 311 378 311 297 c 0
 311 216 256 163 176 163 c 0
EndSplineSet
Validated: 1
EndChar

StartChar: uni1EEC.ss01
Encoding: 65661 -1 366
Width: 352
GlyphClass: 2
Flags: HMW
HStem: 163 266<136 216>
VStem: 41 270<257 337>
LayerCount: 2
Fore
SplineSet
176 163 m 0
 96 163 41 216 41 297 c 0
 41 378 96 429 176 429 c 0
 256 429 311 378 311 297 c 0
 311 216 256 163 176 163 c 0
EndSplineSet
Validated: 1
EndChar

StartChar: uni1EEE.ss01
Encoding: 65662 -1 367
Width: 352
GlyphClass: 2
Flags: HMW
HStem: 163 266<136 216>
VStem: 41 270<257 337>
LayerCount: 2
Fore
SplineSet
176 163 m 0
 96 163 41 216 41 297 c 0
 41 378 96 429 176 429 c 0
 256 429 311 378 311 297 c 0
 311 216 256 163 176 163 c 0
EndSplineSet
Validated: 1
EndChar

StartChar: Uhungarumlaut.ss01
Encoding: 65663 -1 368
Width: 352
GlyphClass: 2
Flags: HMW
HStem: 163 266<136 216>
VStem: 41 270<257 337>
LayerCount: 2
Fore
SplineSet
176 163 m 0
 96 163 41 216 41 297 c 0
 41 378 96 429 176 429 c 0
 256 429 311 378 311 297 c 0
 311 216 256 163 176 163 c 0
EndSplineSet
Validated: 1
EndChar

StartChar: uni0216.ss01
Encoding: 65664 -1 369
Width: 352
GlyphClass: 2
Flags: HMW
HStem: 163 266<136 216>
VStem: 41 270<257 337>
LayerCount: 2
Fore
SplineSet
176 163 m 0
 96 163 41 216 41 297 c 0
 41 378 96 429 176 429 c 0
 256 429 311 378 311 297 c 0
 311 216 256 163 176 163 c 0
EndSplineSet
Validated: 1
EndChar

StartChar: Umacron.ss01
Encoding: 65665 -1 370
Width: 352
GlyphClass: 2
Flags: HMW
HStem: 163 266<136 216>
VStem: 41 270<257 337>
LayerCount: 2
Fore
SplineSet
176 163 m 0
 96 163 41 216 41 297 c 0
 41 378 96 429 176 429 c 0
 256 429 311 378 311 297 c 0
 311 216 256 163 176 163 c 0
EndSplineSet
Validated: 1
EndChar

StartChar: uni1E7A.ss01
Encoding: 65666 -1 371
Width: 352
GlyphClass: 2
Flags: HMW
HStem: 163 266<136 216>
VStem: 41 270<257 337>
LayerCount: 2
Fore
SplineSet
176 163 m 0
 96 163 41 216 41 297 c 0
 41 378 96 429 176 429 c 0
 256 429 311 378 311 297 c 0
 311 216 256 163 176 163 c 0
EndSplineSet
Validated: 1
EndChar

StartChar: Uogonek.ss01
Encoding: 65667 -1 372
Width: 352
GlyphClass: 2
Flags: HMW
HStem: 163 266<136 216>
VStem: 41 270<257 337>
LayerCount: 2
Fore
SplineSet
176 163 m 0
 96 163 41 216 41 297 c 0
 41 378 96 429 176 429 c 0
 256 429 311 378 311 297 c 0
 311 216 256 163 176 163 c 0
EndSplineSet
Validated: 1
EndChar

StartChar: Uring.ss01
Encoding: 65668 -1 373
Width: 352
GlyphClass: 2
Flags: HMW
HStem: 163 266<136 216>
VStem: 41 270<257 337>
LayerCount: 2
Fore
SplineSet
176 163 m 0
 96 163 41 216 41 297 c 0
 41 378 96 429 176 429 c 0
 256 429 311 378 311 297 c 0
 311 216 256 163 176 163 c 0
EndSplineSet
Validated: 1
EndChar

StartChar: Utilde.ss01
Encoding: 65669 -1 374
Width: 352
GlyphClass: 2
Flags: HMW
HStem: 163 266<136 216>
VStem: 41 270<257 337>
LayerCount: 2
Fore
SplineSet
176 163 m 0
 96 163 41 216 41 297 c 0
 41 378 96 429 176 429 c 0
 256 429 311 378 311 297 c 0
 311 216 256 163 176 163 c 0
EndSplineSet
Validated: 1
EndChar

StartChar: uni1E78.ss01
Encoding: 65670 -1 375
Width: 352
GlyphClass: 2
Flags: HMW
HStem: 163 266<136 216>
VStem: 41 270<257 337>
LayerCount: 2
Fore
SplineSet
176 163 m 0
 96 163 41 216 41 297 c 0
 41 378 96 429 176 429 c 0
 256 429 311 378 311 297 c 0
 311 216 256 163 176 163 c 0
EndSplineSet
Validated: 1
EndChar

StartChar: W.ss01
Encoding: 65671 -1 376
Width: 352
GlyphClass: 2
Flags: HMW
HStem: 163 266<136 216>
VStem: 41 270<257 337>
LayerCount: 2
Fore
SplineSet
176 163 m 0
 96 163 41 216 41 297 c 0
 41 378 96 429 176 429 c 0
 256 429 311 378 311 297 c 0
 311 216 256 163 176 163 c 0
EndSplineSet
Validated: 1
EndChar

StartChar: Wacute.ss01
Encoding: 65672 -1 377
Width: 352
GlyphClass: 2
Flags: HMW
HStem: 163 266<136 216>
VStem: 41 270<257 337>
LayerCount: 2
Fore
SplineSet
176 163 m 0
 96 163 41 216 41 297 c 0
 41 378 96 429 176 429 c 0
 256 429 311 378 311 297 c 0
 311 216 256 163 176 163 c 0
EndSplineSet
Validated: 1
EndChar

StartChar: Wcircumflex.ss01
Encoding: 65673 -1 378
Width: 352
GlyphClass: 2
Flags: HMW
HStem: 163 266<136 216>
VStem: 41 270<257 337>
LayerCount: 2
Fore
SplineSet
176 163 m 0
 96 163 41 216 41 297 c 0
 41 378 96 429 176 429 c 0
 256 429 311 378 311 297 c 0
 311 216 256 163 176 163 c 0
EndSplineSet
Validated: 1
EndChar

StartChar: Wdieresis.ss01
Encoding: 65674 -1 379
Width: 352
GlyphClass: 2
Flags: HMW
HStem: 163 266<136 216>
VStem: 41 270<257 337>
LayerCount: 2
Fore
SplineSet
176 163 m 0
 96 163 41 216 41 297 c 0
 41 378 96 429 176 429 c 0
 256 429 311 378 311 297 c 0
 311 216 256 163 176 163 c 0
EndSplineSet
Validated: 1
EndChar

StartChar: Wgrave.ss01
Encoding: 65675 -1 380
Width: 352
GlyphClass: 2
Flags: HMW
HStem: 163 266<136 216>
VStem: 41 270<257 337>
LayerCount: 2
Fore
SplineSet
176 163 m 0
 96 163 41 216 41 297 c 0
 41 378 96 429 176 429 c 0
 256 429 311 378 311 297 c 0
 311 216 256 163 176 163 c 0
EndSplineSet
Validated: 1
EndChar

StartChar: Y.ss01
Encoding: 65676 -1 381
Width: 352
GlyphClass: 2
Flags: HMW
HStem: 163 266<136 216>
VStem: 41 270<257 337>
LayerCount: 2
Fore
SplineSet
176 163 m 0
 96 163 41 216 41 297 c 0
 41 378 96 429 176 429 c 0
 256 429 311 378 311 297 c 0
 311 216 256 163 176 163 c 0
EndSplineSet
Validated: 1
EndChar

StartChar: Yacute.ss01
Encoding: 65677 -1 382
Width: 352
GlyphClass: 2
Flags: HMW
HStem: 163 266<136 216>
VStem: 41 270<257 337>
LayerCount: 2
Fore
SplineSet
176 163 m 0
 96 163 41 216 41 297 c 0
 41 378 96 429 176 429 c 0
 256 429 311 378 311 297 c 0
 311 216 256 163 176 163 c 0
EndSplineSet
Validated: 1
EndChar

StartChar: Ycircumflex.ss01
Encoding: 65678 -1 383
Width: 352
GlyphClass: 2
Flags: HMW
HStem: 163 266<136 216>
VStem: 41 270<257 337>
LayerCount: 2
Fore
SplineSet
176 163 m 0
 96 163 41 216 41 297 c 0
 41 378 96 429 176 429 c 0
 256 429 311 378 311 297 c 0
 311 216 256 163 176 163 c 0
EndSplineSet
Validated: 1
EndChar

StartChar: Ydieresis.ss01
Encoding: 65679 -1 384
Width: 352
GlyphClass: 2
Flags: HMW
HStem: 163 266<136 216>
VStem: 41 270<257 337>
LayerCount: 2
Fore
SplineSet
176 163 m 0
 96 163 41 216 41 297 c 0
 41 378 96 429 176 429 c 0
 256 429 311 378 311 297 c 0
 311 216 256 163 176 163 c 0
EndSplineSet
Validated: 1
EndChar

StartChar: uni1E8E.ss01
Encoding: 65680 -1 385
Width: 352
GlyphClass: 2
Flags: HMW
HStem: 163 266<136 216>
VStem: 41 270<257 337>
LayerCount: 2
Fore
SplineSet
176 163 m 0
 96 163 41 216 41 297 c 0
 41 378 96 429 176 429 c 0
 256 429 311 378 311 297 c 0
 311 216 256 163 176 163 c 0
EndSplineSet
Validated: 1
EndChar

StartChar: uni1EF4.ss01
Encoding: 65681 -1 386
Width: 352
GlyphClass: 2
Flags: HMW
HStem: 163 266<136 216>
VStem: 41 270<257 337>
LayerCount: 2
Fore
SplineSet
176 163 m 0
 96 163 41 216 41 297 c 0
 41 378 96 429 176 429 c 0
 256 429 311 378 311 297 c 0
 311 216 256 163 176 163 c 0
EndSplineSet
Validated: 1
EndChar

StartChar: Ygrave.ss01
Encoding: 65682 -1 387
Width: 352
GlyphClass: 2
Flags: HMW
HStem: 163 266<136 216>
VStem: 41 270<257 337>
LayerCount: 2
Fore
SplineSet
176 163 m 0
 96 163 41 216 41 297 c 0
 41 378 96 429 176 429 c 0
 256 429 311 378 311 297 c 0
 311 216 256 163 176 163 c 0
EndSplineSet
Validated: 1
EndChar

StartChar: uni1EF6.ss01
Encoding: 65683 -1 388
Width: 352
GlyphClass: 2
Flags: HMW
HStem: 163 266<136 216>
VStem: 41 270<257 337>
LayerCount: 2
Fore
SplineSet
176 163 m 0
 96 163 41 216 41 297 c 0
 41 378 96 429 176 429 c 0
 256 429 311 378 311 297 c 0
 311 216 256 163 176 163 c 0
EndSplineSet
Validated: 1
EndChar

StartChar: uni0232.ss01
Encoding: 65684 -1 389
Width: 352
GlyphClass: 2
Flags: HMW
HStem: 163 266<136 216>
VStem: 41 270<257 337>
LayerCount: 2
Fore
SplineSet
176 163 m 0
 96 163 41 216 41 297 c 0
 41 378 96 429 176 429 c 0
 256 429 311 378 311 297 c 0
 311 216 256 163 176 163 c 0
EndSplineSet
Validated: 1
EndChar

StartChar: uni1EF8.ss01
Encoding: 65685 -1 390
Width: 352
GlyphClass: 2
Flags: HMW
HStem: 163 266<136 216>
VStem: 41 270<257 337>
LayerCount: 2
Fore
SplineSet
176 163 m 0
 96 163 41 216 41 297 c 0
 41 378 96 429 176 429 c 0
 256 429 311 378 311 297 c 0
 311 216 256 163 176 163 c 0
EndSplineSet
Validated: 1
EndChar

StartChar: Z.ss01
Encoding: 65686 -1 391
Width: 352
GlyphClass: 2
Flags: HMW
HStem: 163 266<136 216>
VStem: 41 270<257 337>
LayerCount: 2
Fore
SplineSet
176 163 m 0
 96 163 41 216 41 297 c 0
 41 378 96 429 176 429 c 0
 256 429 311 378 311 297 c 0
 311 216 256 163 176 163 c 0
EndSplineSet
Validated: 1
EndChar

StartChar: Zacute.ss01
Encoding: 65687 -1 392
Width: 352
GlyphClass: 2
Flags: HMW
HStem: 163 266<136 216>
VStem: 41 270<257 337>
LayerCount: 2
Fore
SplineSet
176 163 m 0
 96 163 41 216 41 297 c 0
 41 378 96 429 176 429 c 0
 256 429 311 378 311 297 c 0
 311 216 256 163 176 163 c 0
EndSplineSet
Validated: 1
EndChar

StartChar: Zcaron.ss01
Encoding: 65688 -1 393
Width: 352
GlyphClass: 2
Flags: HMW
HStem: 163 266<136 216>
VStem: 41 270<257 337>
LayerCount: 2
Fore
SplineSet
176 163 m 0
 96 163 41 216 41 297 c 0
 41 378 96 429 176 429 c 0
 256 429 311 378 311 297 c 0
 311 216 256 163 176 163 c 0
EndSplineSet
Validated: 1
EndChar

StartChar: Zdotaccent.ss01
Encoding: 65689 -1 394
Width: 352
GlyphClass: 2
Flags: HMW
HStem: 163 266<136 216>
VStem: 41 270<257 337>
LayerCount: 2
Fore
SplineSet
176 163 m 0
 96 163 41 216 41 297 c 0
 41 378 96 429 176 429 c 0
 256 429 311 378 311 297 c 0
 311 216 256 163 176 163 c 0
EndSplineSet
Validated: 1
EndChar

StartChar: uni1E92.ss01
Encoding: 65690 -1 395
Width: 352
GlyphClass: 2
Flags: HMW
HStem: 163 266<136 216>
VStem: 41 270<257 337>
LayerCount: 2
Fore
SplineSet
176 163 m 0
 96 163 41 216 41 297 c 0
 41 378 96 429 176 429 c 0
 256 429 311 378 311 297 c 0
 311 216 256 163 176 163 c 0
EndSplineSet
Validated: 1
EndChar

StartChar: a
Encoding: 97 97 396
Width: 352
GlyphClass: 2
Flags: HMW
HStem: 163 266<136 216>
VStem: 41 270<257 337>
LayerCount: 2
Fore
SplineSet
176 163 m 0
 96 163 41 216 41 297 c 0
 41 378 96 429 176 429 c 0
 256 429 311 378 311 297 c 0
 311 216 256 163 176 163 c 0
EndSplineSet
Validated: 1
Substitution2: "Single Substitution lookup 44 subtable" ordfeminine
Substitution2: "'ss01' Style Set 1 lookup 42 subtable" a.ss01
Substitution2: "'salt' Stylistic Alternatives lookup 41 subtable" a.ss01
Substitution2: "'smcp' Lowercase to Small Capitals lookup 37 subtable" a.sc
AlternateSubs2: "'aalt' Access All Alternates lookup 1 subtable" ordfeminine a.sc a.ss01
EndChar

StartChar: aacute
Encoding: 225 225 397
Width: 352
GlyphClass: 2
Flags: HMW
HStem: 163 266<136 216>
VStem: 41 270<257 337>
LayerCount: 2
Fore
SplineSet
176 163 m 0
 96 163 41 216 41 297 c 0
 41 378 96 429 176 429 c 0
 256 429 311 378 311 297 c 0
 311 216 256 163 176 163 c 0
EndSplineSet
Validated: 1
Substitution2: "'ss01' Style Set 1 lookup 42 subtable" aacute.ss01
Substitution2: "'salt' Stylistic Alternatives lookup 41 subtable" aacute.ss01
Substitution2: "'smcp' Lowercase to Small Capitals lookup 37 subtable" aacute.sc
AlternateSubs2: "'aalt' Access All Alternates lookup 1 subtable" aacute.sc aacute.ss01
EndChar

StartChar: abreve
Encoding: 259 259 398
Width: 352
GlyphClass: 2
Flags: HMW
HStem: 163 266<136 216>
VStem: 41 270<257 337>
LayerCount: 2
Fore
SplineSet
176 163 m 0
 96 163 41 216 41 297 c 0
 41 378 96 429 176 429 c 0
 256 429 311 378 311 297 c 0
 311 216 256 163 176 163 c 0
EndSplineSet
Validated: 1
Substitution2: "'ss01' Style Set 1 lookup 42 subtable" abreve.ss01
Substitution2: "'salt' Stylistic Alternatives lookup 41 subtable" abreve.ss01
Substitution2: "'smcp' Lowercase to Small Capitals lookup 37 subtable" abreve.sc
AlternateSubs2: "'aalt' Access All Alternates lookup 1 subtable" abreve.sc abreve.ss01
EndChar

StartChar: uni1EAF
Encoding: 7855 7855 399
Width: 352
GlyphClass: 2
Flags: HMW
HStem: 163 266<136 216>
VStem: 41 270<257 337>
LayerCount: 2
Fore
SplineSet
176 163 m 0
 96 163 41 216 41 297 c 0
 41 378 96 429 176 429 c 0
 256 429 311 378 311 297 c 0
 311 216 256 163 176 163 c 0
EndSplineSet
Validated: 1
Substitution2: "'ss01' Style Set 1 lookup 42 subtable" uni1EAF.ss01
Substitution2: "'salt' Stylistic Alternatives lookup 41 subtable" uni1EAF.ss01
Substitution2: "'smcp' Lowercase to Small Capitals lookup 37 subtable" uni1EAF.sc
AlternateSubs2: "'aalt' Access All Alternates lookup 1 subtable" uni1EAF.sc uni1EAF.ss01
EndChar

StartChar: uni1EB7
Encoding: 7863 7863 400
Width: 352
GlyphClass: 2
Flags: HMW
HStem: 163 266<136 216>
VStem: 41 270<257 337>
LayerCount: 2
Fore
SplineSet
176 163 m 0
 96 163 41 216 41 297 c 0
 41 378 96 429 176 429 c 0
 256 429 311 378 311 297 c 0
 311 216 256 163 176 163 c 0
EndSplineSet
Validated: 1
Substitution2: "'ss01' Style Set 1 lookup 42 subtable" uni1EB7.ss01
Substitution2: "'salt' Stylistic Alternatives lookup 41 subtable" uni1EB7.ss01
Substitution2: "'smcp' Lowercase to Small Capitals lookup 37 subtable" uni1EB7.sc
AlternateSubs2: "'aalt' Access All Alternates lookup 1 subtable" uni1EB7.sc uni1EB7.ss01
EndChar

StartChar: uni1EB1
Encoding: 7857 7857 401
Width: 352
GlyphClass: 2
Flags: HMW
HStem: 163 266<136 216>
VStem: 41 270<257 337>
LayerCount: 2
Fore
SplineSet
176 163 m 0
 96 163 41 216 41 297 c 0
 41 378 96 429 176 429 c 0
 256 429 311 378 311 297 c 0
 311 216 256 163 176 163 c 0
EndSplineSet
Validated: 1
Substitution2: "'ss01' Style Set 1 lookup 42 subtable" uni1EB1.ss01
Substitution2: "'salt' Stylistic Alternatives lookup 41 subtable" uni1EB1.ss01
Substitution2: "'smcp' Lowercase to Small Capitals lookup 37 subtable" uni1EB1.sc
AlternateSubs2: "'aalt' Access All Alternates lookup 1 subtable" uni1EB1.sc uni1EB1.ss01
EndChar

StartChar: uni1EB3
Encoding: 7859 7859 402
Width: 352
GlyphClass: 2
Flags: HMW
HStem: 163 266<136 216>
VStem: 41 270<257 337>
LayerCount: 2
Fore
SplineSet
176 163 m 0
 96 163 41 216 41 297 c 0
 41 378 96 429 176 429 c 0
 256 429 311 378 311 297 c 0
 311 216 256 163 176 163 c 0
EndSplineSet
Validated: 1
Substitution2: "'ss01' Style Set 1 lookup 42 subtable" uni1EB3.ss01
Substitution2: "'salt' Stylistic Alternatives lookup 41 subtable" uni1EB3.ss01
Substitution2: "'smcp' Lowercase to Small Capitals lookup 37 subtable" uni1EB3.sc
AlternateSubs2: "'aalt' Access All Alternates lookup 1 subtable" uni1EB3.sc uni1EB3.ss01
EndChar

StartChar: uni1EB5
Encoding: 7861 7861 403
Width: 352
GlyphClass: 2
Flags: HMW
HStem: 163 266<136 216>
VStem: 41 270<257 337>
LayerCount: 2
Fore
SplineSet
176 163 m 0
 96 163 41 216 41 297 c 0
 41 378 96 429 176 429 c 0
 256 429 311 378 311 297 c 0
 311 216 256 163 176 163 c 0
EndSplineSet
Validated: 1
Substitution2: "'ss01' Style Set 1 lookup 42 subtable" uni1EB5.ss01
Substitution2: "'salt' Stylistic Alternatives lookup 41 subtable" uni1EB5.ss01
Substitution2: "'smcp' Lowercase to Small Capitals lookup 37 subtable" uni1EB5.sc
AlternateSubs2: "'aalt' Access All Alternates lookup 1 subtable" uni1EB5.sc uni1EB5.ss01
EndChar

StartChar: uni01CE
Encoding: 462 462 404
Width: 352
GlyphClass: 2
Flags: HMW
HStem: 163 266<136 216>
VStem: 41 270<257 337>
LayerCount: 2
Fore
SplineSet
176 163 m 0
 96 163 41 216 41 297 c 0
 41 378 96 429 176 429 c 0
 256 429 311 378 311 297 c 0
 311 216 256 163 176 163 c 0
EndSplineSet
Validated: 1
Substitution2: "'ss01' Style Set 1 lookup 42 subtable" uni01CE.ss01
Substitution2: "'salt' Stylistic Alternatives lookup 41 subtable" uni01CE.ss01
Substitution2: "'smcp' Lowercase to Small Capitals lookup 37 subtable" uni01CE.sc
AlternateSubs2: "'aalt' Access All Alternates lookup 1 subtable" uni01CE.sc uni01CE.ss01
EndChar

StartChar: acircumflex
Encoding: 226 226 405
Width: 352
GlyphClass: 2
Flags: HMW
HStem: 163 266<136 216>
VStem: 41 270<257 337>
LayerCount: 2
Fore
SplineSet
176 163 m 0
 96 163 41 216 41 297 c 0
 41 378 96 429 176 429 c 0
 256 429 311 378 311 297 c 0
 311 216 256 163 176 163 c 0
EndSplineSet
Validated: 1
Substitution2: "'ss01' Style Set 1 lookup 42 subtable" acircumflex.ss01
Substitution2: "'salt' Stylistic Alternatives lookup 41 subtable" acircumflex.ss01
Substitution2: "'smcp' Lowercase to Small Capitals lookup 37 subtable" acircumflex.sc
AlternateSubs2: "'aalt' Access All Alternates lookup 1 subtable" acircumflex.sc acircumflex.ss01
EndChar

StartChar: uni1EA5
Encoding: 7845 7845 406
Width: 352
GlyphClass: 2
Flags: HMW
HStem: 163 266<136 216>
VStem: 41 270<257 337>
LayerCount: 2
Fore
SplineSet
176 163 m 0
 96 163 41 216 41 297 c 0
 41 378 96 429 176 429 c 0
 256 429 311 378 311 297 c 0
 311 216 256 163 176 163 c 0
EndSplineSet
Validated: 1
Substitution2: "'ss01' Style Set 1 lookup 42 subtable" uni1EA5.ss01
Substitution2: "'salt' Stylistic Alternatives lookup 41 subtable" uni1EA5.ss01
Substitution2: "'smcp' Lowercase to Small Capitals lookup 37 subtable" uni1EA5.sc
AlternateSubs2: "'aalt' Access All Alternates lookup 1 subtable" uni1EA5.sc uni1EA5.ss01
EndChar

StartChar: uni1EAD
Encoding: 7853 7853 407
Width: 352
GlyphClass: 2
Flags: HMW
HStem: 163 266<136 216>
VStem: 41 270<257 337>
LayerCount: 2
Fore
SplineSet
176 163 m 0
 96 163 41 216 41 297 c 0
 41 378 96 429 176 429 c 0
 256 429 311 378 311 297 c 0
 311 216 256 163 176 163 c 0
EndSplineSet
Validated: 1
Substitution2: "'ss01' Style Set 1 lookup 42 subtable" uni1EAD.ss01
Substitution2: "'salt' Stylistic Alternatives lookup 41 subtable" uni1EAD.ss01
Substitution2: "'smcp' Lowercase to Small Capitals lookup 37 subtable" uni1EAD.sc
AlternateSubs2: "'aalt' Access All Alternates lookup 1 subtable" uni1EAD.sc uni1EAD.ss01
EndChar

StartChar: uni1EA7
Encoding: 7847 7847 408
Width: 352
GlyphClass: 2
Flags: HMW
HStem: 163 266<136 216>
VStem: 41 270<257 337>
LayerCount: 2
Fore
SplineSet
176 163 m 0
 96 163 41 216 41 297 c 0
 41 378 96 429 176 429 c 0
 256 429 311 378 311 297 c 0
 311 216 256 163 176 163 c 0
EndSplineSet
Validated: 1
Substitution2: "'ss01' Style Set 1 lookup 42 subtable" uni1EA7.ss01
Substitution2: "'salt' Stylistic Alternatives lookup 41 subtable" uni1EA7.ss01
Substitution2: "'smcp' Lowercase to Small Capitals lookup 37 subtable" uni1EA7.sc
AlternateSubs2: "'aalt' Access All Alternates lookup 1 subtable" uni1EA7.sc uni1EA7.ss01
EndChar

StartChar: uni1EA9
Encoding: 7849 7849 409
Width: 352
GlyphClass: 2
Flags: HMW
HStem: 163 266<136 216>
VStem: 41 270<257 337>
LayerCount: 2
Fore
SplineSet
176 163 m 0
 96 163 41 216 41 297 c 0
 41 378 96 429 176 429 c 0
 256 429 311 378 311 297 c 0
 311 216 256 163 176 163 c 0
EndSplineSet
Validated: 1
Substitution2: "'ss01' Style Set 1 lookup 42 subtable" uni1EA9.ss01
Substitution2: "'salt' Stylistic Alternatives lookup 41 subtable" uni1EA9.ss01
Substitution2: "'smcp' Lowercase to Small Capitals lookup 37 subtable" uni1EA9.sc
AlternateSubs2: "'aalt' Access All Alternates lookup 1 subtable" uni1EA9.sc uni1EA9.ss01
EndChar

StartChar: uni1EAB
Encoding: 7851 7851 410
Width: 352
GlyphClass: 2
Flags: HMW
HStem: 163 266<136 216>
VStem: 41 270<257 337>
LayerCount: 2
Fore
SplineSet
176 163 m 0
 96 163 41 216 41 297 c 0
 41 378 96 429 176 429 c 0
 256 429 311 378 311 297 c 0
 311 216 256 163 176 163 c 0
EndSplineSet
Validated: 1
Substitution2: "'ss01' Style Set 1 lookup 42 subtable" uni1EAB.ss01
Substitution2: "'salt' Stylistic Alternatives lookup 41 subtable" uni1EAB.ss01
Substitution2: "'smcp' Lowercase to Small Capitals lookup 37 subtable" uni1EAB.sc
AlternateSubs2: "'aalt' Access All Alternates lookup 1 subtable" uni1EAB.sc uni1EAB.ss01
EndChar

StartChar: uni0201
Encoding: 513 513 411
Width: 352
GlyphClass: 2
Flags: HMW
HStem: 163 266<136 216>
VStem: 41 270<257 337>
LayerCount: 2
Fore
SplineSet
176 163 m 0
 96 163 41 216 41 297 c 0
 41 378 96 429 176 429 c 0
 256 429 311 378 311 297 c 0
 311 216 256 163 176 163 c 0
EndSplineSet
Validated: 1
Substitution2: "'ss01' Style Set 1 lookup 42 subtable" uni0201.ss01
Substitution2: "'salt' Stylistic Alternatives lookup 41 subtable" uni0201.ss01
Substitution2: "'smcp' Lowercase to Small Capitals lookup 37 subtable" uni0201.sc
AlternateSubs2: "'aalt' Access All Alternates lookup 1 subtable" uni0201.sc uni0201.ss01
EndChar

StartChar: adieresis
Encoding: 228 228 412
Width: 352
GlyphClass: 2
Flags: HMW
HStem: 163 266<136 216>
VStem: 41 270<257 337>
LayerCount: 2
Fore
SplineSet
176 163 m 0
 96 163 41 216 41 297 c 0
 41 378 96 429 176 429 c 0
 256 429 311 378 311 297 c 0
 311 216 256 163 176 163 c 0
EndSplineSet
Validated: 1
Substitution2: "'ss01' Style Set 1 lookup 42 subtable" adieresis.ss01
Substitution2: "'salt' Stylistic Alternatives lookup 41 subtable" adieresis.ss01
Substitution2: "'smcp' Lowercase to Small Capitals lookup 37 subtable" adieresis.sc
AlternateSubs2: "'aalt' Access All Alternates lookup 1 subtable" adieresis.sc adieresis.ss01
EndChar

StartChar: uni1EA1
Encoding: 7841 7841 413
Width: 352
GlyphClass: 2
Flags: HMW
HStem: 163 266<136 216>
VStem: 41 270<257 337>
LayerCount: 2
Fore
SplineSet
176 163 m 0
 96 163 41 216 41 297 c 0
 41 378 96 429 176 429 c 0
 256 429 311 378 311 297 c 0
 311 216 256 163 176 163 c 0
EndSplineSet
Validated: 1
Substitution2: "'ss01' Style Set 1 lookup 42 subtable" uni1EA1.ss01
Substitution2: "'salt' Stylistic Alternatives lookup 41 subtable" uni1EA1.ss01
Substitution2: "'smcp' Lowercase to Small Capitals lookup 37 subtable" uni1EA1.sc
AlternateSubs2: "'aalt' Access All Alternates lookup 1 subtable" uni1EA1.sc uni1EA1.ss01
EndChar

